<?xml version="1.0" encoding="utf-8"?>
<!-- Generator: Adobe Illustrator 18.1.1, SVG Export Plug-In . SVG Version: 6.00 Build 0)  -->
<svg version="1.1" xmlns="http://www.w3.org/2000/svg" xmlns:xlink="http://www.w3.org/1999/xlink" x="0px" y="0px"
	 viewBox="0 0 800 800" enable-background="new 0 0 800 800" xml:space="preserve">
<defs>
	<filter id="Adobe_OpacityMaskFilter" filterUnits="userSpaceOnUse" x="0" y="0" width="800" height="800">
		<feFlood  style="flood-color:white;flood-opacity:1" result="back"/>
		<feBlend  in="SourceGraphic" in2="back" mode="normal"/>
	</filter>
</defs>
<mask maskUnits="userSpaceOnUse" x="0" y="0" width="800" height="800" id="Capa_1_1_">
	<g filter="url(#Adobe_OpacityMaskFilter)">
		<circle cx="401" cy="400" r="293"/>
	</g>
</mask>
<g id="Capa_1" display="none" mask="url(#Capa_1_1_)">
	<g display="inline">
		<g>
			<path d="M756.2,320.9h-42.4c-7.9-30.7-20.2-59.5-36.2-85.8l30.5-30.6c8.2-8.2,12.8-19.2,12.8-30.9c0-11.6-4.6-22.6-12.8-30.9
				l-50.8-50.8c-16.5-16.5-45.3-16.5-61.7,0l-31.8,31.6c-26-15.2-53.9-26.9-84.7-34.4V43.9C479,19.8,459.8,0,435.8,0h-71.8
				c-24.1,0-43,19.8-43,43.9v45.4c-30.7,7.5-58.8,19.2-84.9,34.4L204.3,92c-16.5-16.5-45.3-16.5-61.8,0l-50.8,50.8
				c-8.1,8.1-12.8,19.4-12.8,30.9c0,11.6,4.5,22.6,12.8,30.8l30.5,30.6c-16,26.3-28.3,55.1-36.2,85.8H43.5
				C19.4,320.9,0,340.3,0,364.3v71.8c0,24.1,19.4,43,43.5,43h42.4c7.9,30.7,20.2,59.7,36.2,86l-30.5,30.7
				c-8.2,8.2-12.8,19.2-12.8,30.9s4.5,22.7,12.8,30.9l50.8,50.8c8.2,8.2,19.2,12.8,30.8,12.8c11.6,0,22.6-4.5,30.9-12.8l31.9-31.6
				c26.1,15.2,54.2,26.9,84.9,34.4v45.3c0,24.1,18.9,43.5,43,43.5h71.8c24.1,0,43.3-19.4,43.3-43.5v-45.3
				c30.7-7.5,58.7-19.2,84.7-34.4l31.6,31.5c8.2,8.3,19.2,12.8,30.9,12.8c11.7,0,22.6-4.5,30.9-12.8l50.8-50.8
				c8.2-8.2,12.7-19.2,12.8-30.8c0-11.7-4.6-22.6-12.8-30.9l-30.5-30.8c16-26.3,28.3-55.3,36.2-86h42.4c24.1,0,43.9-18.9,43.9-43
				v-71.8C800,340.3,780.2,320.9,756.2,320.9z M399.8,536.8c-76.2,0-138-61.2-138-136.6c0-75.5,61.8-136.6,138-136.6
				c76.2,0,138,61.1,138,136.6C537.8,475.7,476,536.8,399.8,536.8z"/>
		</g>
	</g>
	<g display="inline">
	</g>
</g>
<g id="Layer_2">
	<g>
		<path stroke="#000000" stroke-width="5" stroke-miterlimit="10" d="M157.7,472.9L120,458.1l-1.2-5.3l27.6-29.6l1.5,6.7l-22.7,24.1
			l0.1,0.3l30.8,11.9L157.7,472.9z"/>
		<path stroke="#000000" stroke-width="5" stroke-miterlimit="10" d="M173.3,473.9l-1.4-60.2l35.4-8l0.2,6l-28.7,6.5l0.5,19.5
			l24-5.4l0.2,6.1l-23.9,5.4l0.4,22.6l29.5-6.7l0.2,6.1L173.3,473.9z"/>
		<path stroke="#000000" stroke-width="5" stroke-miterlimit="10" d="M220.7,463.1l-1.1-44.6l5.2-1.2l0.7,5.9l0.3-0.1
			c1.2-2.5,2.6-4.6,4.3-6.3c1.6-1.6,3.5-2.7,5.7-3.2c2-0.5,3.7-0.2,5,0.7c1.4,0.9,2.4,2.6,3,5.2l-0.8,1.2c1.5-3.5,3.3-6.1,5.1-7.9
			s3.9-2.9,6-3.3c2-0.5,3.8-0.2,5.3,0.7c1.5,0.9,2.5,2.7,3.1,5.3c0.2,0.8,0.3,1.5,0.4,2.2c0.1,0.7,0.2,1.6,0.2,2.7l0.8,32.9
			l-6.7,1.5l-0.8-31.9c0-0.7-0.1-1.4-0.2-1.9c-0.1-0.5-0.1-1-0.3-1.5c-0.3-1.5-0.8-2.4-1.5-2.9c-0.6-0.5-1.5-0.6-2.4-0.4
			c-1.5,0.3-2.9,1.3-4,2.7c-1.1,1.5-2.2,3.6-3.3,6.3l0.8,32.3L239,459l-0.6-32c0-0.7-0.1-1.4-0.2-1.9c-0.1-0.5-0.1-1-0.3-1.5
			c-0.3-1.5-0.8-2.4-1.5-2.9c-0.7-0.5-1.5-0.6-2.4-0.4c-1.6,0.4-3,1.3-4.1,2.8c-1.1,1.5-2.2,3.6-3.4,6.3l0.9,32.3L220.7,463.1z"/>
		<path stroke="#000000" stroke-width="5" stroke-miterlimit="10" d="M329.6,438.5l-1.4-60.2l14.9-3.4c3.9-0.9,7.2-1.1,10.1-0.8
			c2.9,0.4,5.2,1.3,7,2.9c1.8,1.6,3,3.7,3.7,6.6c0.6,2.6,0.5,5-0.3,7.3c-0.8,2.3-2,4.3-3.7,6c-1.7,1.7-3.5,3.1-5.6,4l0.1,0.4
			c2.1,0,4,0.3,5.9,1c1.8,0.6,3.4,1.6,4.6,3c1.3,1.3,2.2,3.1,2.7,5.3c1,4.3,0.7,8-0.7,11.2c-1.5,3.2-3.8,5.8-7.2,7.9
			c-3.3,2.1-7.2,3.7-11.8,4.7L329.6,438.5z M335.6,402.3l7.9-1.8c5.4-1.2,9.3-3.1,11.4-5.7c2.2-2.6,2.9-5.4,2.2-8.7
			c-0.6-2.6-2-4.4-4.2-5.3c-2.2-0.9-5.6-0.8-10.1,0.2l-7.5,1.7L335.6,402.3z M336.3,430.9l9.7-2.2c3.6-0.8,6.7-1.9,9.2-3.3
			c2.5-1.4,4.2-3.2,5.3-5.3c1-2.1,1.2-4.7,0.5-7.7c-0.7-2.9-2.3-5-4.9-6.1c-2.6-1.1-6.1-1.2-10.3-0.2l-9.8,2.2L336.3,430.9z"/>
		<path stroke="#000000" stroke-width="5" stroke-miterlimit="10" d="M387.2,425.4l-1.1-44.6l5.5-1.3l0.9,12.6l0.4-0.1
			c1-2.8,2.3-5.4,3.9-7.8c1.6-2.5,3.4-4.6,5.4-6.3c2-1.7,4.3-2.9,6.7-3.4c1.9-0.4,3.7-0.6,5.2-0.6c1.5,0.1,2.8,0.3,3.9,0.8l-1.3,6.4
			c-1.2-0.5-2.4-0.7-3.6-0.7c-1.2,0-2.5,0.2-3.9,0.5c-3.3,0.7-6.3,2.9-8.9,6.4c-2.7,3.6-5,8-6.9,13.3l0.5,23.2L387.2,425.4z"/>
		<path stroke="#000000" stroke-width="5" stroke-miterlimit="10" d="M455.3,411.1c-3.7,0.8-7,0.9-10.1,0.1c-3-0.8-5.6-2.4-7.7-4.8
			c-2.1-2.4-3.6-5.6-4.5-9.6c-0.9-3.9-1-7.5-0.4-11c0.6-3.5,1.8-6.7,3.5-9.6c1.7-2.9,3.9-5.3,6.5-7.2c2.6-1.9,5.6-3.3,8.8-4
			c5.2-1.2,9.6-0.5,13.1,1.9c3.5,2.5,5.8,6.1,6.9,10.8c0.3,1.5,0.5,3,0.6,4.6c0.1,1.6,0.1,2.7,0,3.3l-34.2,7.7l-0.3-5.5l30.5-6.9
			l-2.5,2c0-0.7,0-1.4-0.1-2.1c-0.1-0.7-0.2-1.4-0.3-2c-0.8-3.3-2.3-5.8-4.6-7.3c-2.3-1.5-5-1.9-8.2-1.2c-2,0.5-4,1.4-5.8,2.9
			c-1.8,1.5-3.4,3.3-4.6,5.5c-1.3,2.2-2.1,4.7-2.6,7.4c-0.5,2.7-0.3,5.7,0.4,8.8c0.6,2.9,1.7,5.2,3.2,6.9s3.3,2.9,5.5,3.6
			s4.5,0.6,7.1,0.1c2.8-0.6,5.3-1.8,7.5-3.4c2.2-1.6,4.1-3.4,5.8-5.5l3.6,4c-1.8,2.2-4.1,4.3-7,6.3
			C462.4,408.9,459.1,410.3,455.3,411.1z"/>
		<path stroke="#000000" stroke-width="5" stroke-miterlimit="10" d="M501.3,399.6L482,359.1l6.7-1.5l11,23.6c0.9,1.9,1.8,3.9,2.7,6
			c0.9,2.1,1.7,4.1,2.6,6l0.4-0.1c0.5-2.3,1.2-4.6,1.9-7c0.8-2.4,1.5-4.8,2.3-7.3l9.1-28.1l6.8-1.5l-16.2,48.5L501.3,399.6z"/>
		<path stroke="#000000" stroke-width="5" stroke-miterlimit="10" d="M560.6,387.3c-3.7,0.8-7,0.9-10.1,0.1s-5.6-2.4-7.7-4.8
			c-2.1-2.4-3.6-5.6-4.5-9.6c-0.9-3.9-1-7.5-0.4-11c0.6-3.5,1.8-6.7,3.5-9.6c1.7-2.9,3.9-5.3,6.5-7.2c2.6-1.9,5.6-3.3,8.8-4
			c5.2-1.2,9.6-0.5,13.1,1.9c3.5,2.5,5.8,6.1,6.9,10.8c0.3,1.5,0.5,3,0.6,4.6c0.1,1.6,0.1,2.7,0,3.3l-34.2,7.7l-0.3-5.5l30.5-6.9
			l-2.5,2c0-0.7,0-1.4-0.1-2.1c-0.1-0.7-0.2-1.4-0.3-2c-0.8-3.3-2.3-5.8-4.6-7.3c-2.3-1.5-5-1.9-8.2-1.2c-2,0.5-4,1.4-5.8,2.9
			c-1.8,1.5-3.4,3.3-4.6,5.5c-1.3,2.2-2.1,4.7-2.6,7.4c-0.5,2.7-0.3,5.7,0.4,8.8c0.6,2.9,1.7,5.2,3.2,6.9c1.5,1.8,3.3,2.9,5.5,3.6
			c2.2,0.6,4.5,0.6,7.1,0.1c2.8-0.6,5.3-1.8,7.5-3.4c2.2-1.6,4.1-3.4,5.8-5.5l3.6,4c-1.8,2.2-4.1,4.3-7,6.3
			C567.7,385,564.4,386.4,560.6,387.3z"/>
		<path stroke="#000000" stroke-width="5" stroke-miterlimit="10" d="M593.6,393.5l26.7-86.3l6.3-1.4l-26.7,86.3L593.6,393.5z"/>
		<path stroke="#000000" stroke-width="5" stroke-miterlimit="10" d="M650.5,361.3l-1.5-6.7l22.7-24.1l-0.1-0.4l-30.8-11.9l-1.5-6.7
			l37.7,14.8l1.2,5.3L650.5,361.3z"/>
	</g>
	<g>
		<polygon points="680.7,222.1 120.2,366.8 117.4,354.4 677.8,209.7 		"/>
		<path d="M118.1,370.4l-4.2-18.2l2.7-0.7l563.2-145.4l4.2,18.2l-2.7,0.7L118.1,370.4z M120.8,356.6l1.5,6.6l555-143.3l-1.5-6.6
			L120.8,356.6z"/>
	</g>
	<g>
		<polygon points="689.7,438.9 126.8,592.2 124,579.1 686.8,425.9 		"/>
		<path d="M124.8,596l-4.2-19.2l2.7-0.7l565.6-154l4.2,19.2l-2.7,0.7L124.8,596z M127.4,581.5l1.5,7l557.4-151.8l-1.5-7L127.4,581.5
			z"/>
	</g>
</g>
</svg>
