<?xml version="1.0" encoding="utf-8"?>
<!-- Generator: Adobe Illustrator 18.1.1, SVG Export Plug-In . SVG Version: 6.00 Build 0)  -->
<svg version="1.1" id="Layer_1" xmlns="http://www.w3.org/2000/svg" xmlns:xlink="http://www.w3.org/1999/xlink" x="0px" y="0px"
	 viewBox="0 0 1366 768" enable-background="new 0 0 1366 768" xml:space="preserve">
<defs>
	<filter id="Adobe_OpacityMaskFilter" filterUnits="userSpaceOnUse" x="-11.8" y="-20.9" width="1410.5" height="845.5">
		
			<feColorMatrix  type="matrix" values="-1 0 0 0 1  0 -1 0 0 1  0 0 -1 0 1  0 0 0 1 0" color-interpolation-filters="sRGB" result="source"/>
	</filter>
</defs>
<mask maskUnits="userSpaceOnUse" x="-11.8" y="-20.9" width="1410.5" height="845.5" id="SVGID_1_">
	<g filter="url(#Adobe_OpacityMaskFilter)">
		
			<radialGradient id="SVGID_2_" cx="756.8478" cy="455.0858" r="582.6611" gradientTransform="matrix(0.9449 -2.889400e-004 2.875015e-004 0.9521 -36.3088 -49.08)" gradientUnits="userSpaceOnUse">
			<stop  offset="0" style="stop-color:#7F3F98"/>
			<stop  offset="0.1619" style="stop-color:#755487;stop-opacity:0.86"/>
			<stop  offset="0.3469" style="stop-color:#5F5369;stop-opacity:0.7"/>
			<stop  offset="0.4624" style="stop-color:#584F60;stop-opacity:0.4413"/>
			<stop  offset="0.5969" style="stop-color:#4B4550;stop-opacity:0.1398"/>
			<stop  offset="0.6569" style="stop-color:#3A353E;stop-opacity:0.1124"/>
			<stop  offset="0.8204" style="stop-color:#100F11;stop-opacity:3.772897e-002"/>
			<stop  offset="0.9031" style="stop-color:#000000;stop-opacity:0"/>
		</radialGradient>
		<polygon fill="url(#SVGID_2_)" points="1358,768 0.2,768.4 0,0 1357.8,-0.4 		"/>
		<radialGradient id="SVGID_3_" cx="647.1949" cy="423.2265" r="611.8584" gradientUnits="userSpaceOnUse">
			<stop  offset="0" style="stop-color:#7F3F98"/>
			<stop  offset="0.1619" style="stop-color:#755487;stop-opacity:0.86"/>
			<stop  offset="0.3469" style="stop-color:#5F5369;stop-opacity:0.7"/>
			<stop  offset="0.4624" style="stop-color:#584F60;stop-opacity:0.4413"/>
			<stop  offset="0.5969" style="stop-color:#4B4550;stop-opacity:0.1398"/>
			<stop  offset="0.6569" style="stop-color:#3A353E;stop-opacity:0.1124"/>
			<stop  offset="0.8204" style="stop-color:#100F11;stop-opacity:3.772897e-002"/>
			<stop  offset="0.9031" style="stop-color:#000000;stop-opacity:0"/>
		</radialGradient>
		<path fill="url(#SVGID_3_)" d="M1396.4,347.5c-0.2-51.2-13.1-98.9-38.7-143.1c-41.6-56.7-52.2-72.8-112.2-111.7
			c-11.8-7.7-32.1-14.3-40.9-18c-9.4-4-27.6-13.7-41.5-16.6c-75.1-15.7-91-12.7-165.3-0.6c-2.6,0.4-5.2,0.9-7.7,1.8
			c-0.8,0.3-1.7,0.6-2.5,0.9c-22.6,9.5-45.1,19.1-67.7,28.6c-0.7,0.3-1.4,0.6-2.1,1c-11.7-1.5-23.6-2.2-35.8-2.3h-6.1
			c-47.8-11.6-95.5-10.9-143.3,1.9c-2,0.7-4,1.3-6,2c-22.1,5.2-42.4,13.4-61,24.5c-15.9-8.3-32.3-15-49.1-20.1
			c-32.9-29.4-70.8-50.2-113.8-62.3c-9.7-1.3-19.5-2.6-29.2-3.9c-0.1-0.1-0.2-0.1-0.3-0.2c-22.6-9.5-45.1-19.1-67.7-28.6
			c-50.2-13.5-100.5-13.5-150.7,0c-13.4,3.5-26.6,7.5-39.4,12.6c-28.6,11.3-57.3,22.7-85.1,36.2c-6.2,3-12.2,6.3-18.1,9.8
			c-5.9,3.6-11.5,7.5-17,11.6c-20.6,15.5-49.7,35.6-71,55.9c-4.6,4.4-8.9,9-12.9,13.9c-18.9,23-38.4,46.2-54.5,71.4
			c-3.4,5.3-6.4,10.8-9.1,16.5c-0.7,1.4-1.3,2.9-1.9,4.3c-9.6,22.1-20.3,46.8-29.2,69.2c-1.3,3.4-2.6,6.8-3.6,10.3
			c-1.8,6-3.1,12.1-4,18.3c-3.1,21.3-12,64.1-11,93.7c1.1,31.6,6.4,63.2,12.3,94.3c1.3,6.8,3.1,13.6,5.4,20.1
			c9.9,28.6,22.3,56.5,35.2,83.9c3.2,6.9,6.9,13.5,10.9,19.9c4.1,6.6,8.7,13,13.4,19.2c19,25,38.2,51.6,59.3,75.5
			c10.8,12.2,22.3,23.8,33.7,35.4c25.7,27.6,56.1,47.2,91.2,58.6c33.8,17.8,70.2,25.9,109.2,24.4c39,1.5,75.4-6.7,109.2-24.4
			c35.1-11.4,65.6-31,91.2-58.6c3.6-4.7,7.2-9.3,10.8-14c28,4.7,56.2,7.7,84.3,11.4c22.7,3,45.7,4.3,68.6,3.8
			c11.5-0.2,22.9-0.9,34.3-2.1c36-3.6,72-8.3,107.7-14.6c26-4.5,51.5-11.5,76.2-20.7c3.5-0.8,7-1.8,10.4-2.7
			c10.2,1.2,20.4,2.4,30.7,3.4c16.4,1.6,32.9,2.1,49.4,1.5c8.5-0.3,17.1-0.9,25.6-1.8c33.1-3.6,66.1-7.8,98.9-13.4
			c36.9-8.8,69-25.7,96.4-50.7c26.4-17.1,48-38.9,64.8-65.6c32-14.1,60.8-33.7,86.3-59.1c27.6-25.7,47.2-56.1,58.6-91.2
			C1389.7,423,1397.9,386.6,1396.4,347.5z"/>
	</g>
</mask>
<g mask="url(#SVGID_1_)">
	<path fill="#808285" d="M16-20.9l-0.1,32.2c0,2.4,0,5.1,0.2,6.9l-4.4,0l-0.2-4.6l-0.1,0c-1.5,3-4.8,5.2-9.3,5.2
		c-6.6,0-11.6-5.5-11.6-13.6c0-8.9,5.6-14.3,12.2-14.3c4.2,0,7,1.9,8.2,4.1L11-5l0-15.9L16-20.9z M11,2.4c0-0.6-0.1-1.4-0.2-2
		c-0.7-3.1-3.4-5.6-7.1-5.6C-1.5-5.3-4.5-0.9-4.5,5c0,5.4,2.7,9.9,8,9.9c3.3,0,6.4-2.1,7.3-5.8C10.9,8.4,11,7.8,11,7L11,2.4z"/>
	<path fill="#808285" d="M24.2-0.1c0-3.1,0-5.8-0.2-8.3l4.3,0l0.2,5.2l0.2,0C29.9-6.8,32.9-9,36.2-9c0.6,0,1,0.1,1.4,0.2l0,4.6
		c-0.5-0.1-1-0.2-1.7-0.2c-3.5,0-6,2.6-6.7,6.2c-0.1,0.7-0.2,1.4-0.2,2.3l0,14.2l-4.9,0L24.2-0.1z"/>
	<path fill="#808285" d="M48.3-15.9c0.1,1.7-1.2,3-3.2,3c-1.7,0-3-1.3-3-3c0-1.7,1.3-3,3.1-3C47.2-18.9,48.3-17.6,48.3-15.9z
		 M42.8,18.2l0-26.6l5,0l0,26.6L42.8,18.2z"/>
	<path fill="#808285" d="M57.9-8.4l5.3,15c0.9,2.4,1.6,4.6,2.2,6.8l0.2,0c0.6-2.2,1.4-4.4,2.3-6.8l5.3-15l5.2,0L67.6,18.3l-4.7,0
		L52.6-8.4L57.9-8.4z"/>
	<path fill="#808285" d="M85.2,5.9c0.1,6.6,4.4,9.3,9.3,9.3c3.5,0,5.7-0.6,7.5-1.4l0.8,3.5c-1.7,0.8-4.7,1.6-9.1,1.6
		c-8.4,0-13.4-5.4-13.4-13.5S85.4-8.9,93.3-8.9c8.9,0,11.2,7.7,11.2,12.6c0,1-0.1,1.8-0.2,2.3L85.2,5.9z M99.7,2.4
		c0.1-3.1-1.3-7.9-6.9-7.9c-5,0-7.2,4.5-7.6,7.9L99.7,2.4z"/>
	<path fill="#808285" d="M110.7,0c0-3.1,0-5.8-0.2-8.3l4.3,0l0.2,5.2l0.2,0c1.2-3.6,4.2-5.8,7.6-5.8c0.6,0,1,0.1,1.4,0.2l0,4.6
		c-0.5-0.1-1-0.2-1.7-0.2c-3.5,0-6,2.6-6.7,6.2c-0.1,0.7-0.2,1.4-0.2,2.3l0,14.2l-4.9,0L110.7,0z"/>
	<path fill="#808285" d="M124.9,15.5c0-2,1.4-3.5,3.4-3.5c2,0,3.3,1.4,3.3,3.5c0,2-1.3,3.5-3.4,3.5C126.2,19,124.9,17.5,124.9,15.5z
		"/>
	<path fill="#808285" d="M161.2-8.2c-0.1,1.9-0.2,4.1-0.2,7.3l0,15.5c0,6.1-1.3,9.9-3.9,12.2c-2.6,2.4-6.5,3.2-9.9,3.2
		c-3.3,0-6.9-0.8-9.1-2.2l1.2-3.7c1.8,1.1,4.6,2.1,8,2.1c5.1,0,8.8-2.6,8.8-9.3l0-3l-0.1,0c-1.5,2.5-4.5,4.5-8.7,4.4
		c-6.8,0-11.6-5.6-11.6-13c0-9,6-14.1,12.3-14.1c4.7,0,7.3,2.4,8.5,4.6l0.1,0l0.2-4L161.2-8.2z M156.1,2.3c0-0.8-0.1-1.5-0.3-2.2
		c-0.9-2.8-3.3-5.1-6.9-5.1c-4.7,0-8.1,3.9-8.1,10.1c0,5.2,2.7,9.6,8,9.6c3,0,5.8-1.9,6.9-4.9c0.3-0.8,0.4-1.8,0.4-2.6L156.1,2.3z"
		/>
	<path fill="#808285" d="M171.9,6c0.1,6.6,4.4,9.3,9.3,9.3c3.5,0,5.7-0.6,7.5-1.4l0.8,3.5c-1.7,0.8-4.7,1.6-9.1,1.6
		c-8.4,0-13.4-5.4-13.4-13.5S172.1-8.8,180-8.8c8.9,0,11.2,7.7,11.2,12.6c0,1-0.1,1.8-0.2,2.3L171.9,6z M186.5,2.6
		c0.1-3.1-1.3-7.9-6.9-7.9c-5,0-7.2,4.5-7.6,7.9L186.5,2.6z"/>
	<path fill="#808285" d="M203.4-15.8l0,7.7l7.1,0l0,3.7l-7.1,0l0,14.4c0,3.3,0.9,5.2,3.7,5.2c1.3,0,2.3-0.2,2.9-0.3l0.2,3.6
		c-1,0.4-2.5,0.7-4.4,0.7c-2.3,0-4.2-0.7-5.3-2c-1.4-1.4-1.9-3.8-1.9-6.9l0-14.5l-4.2,0l0-3.7l4.2,0l0-6.4L203.4-15.8z"/>
	<path fill="#808285" d="M226.8-19.7c-4.1,5.4-7.1,12.5-7.1,22.5c0,9.8,3.1,16.8,7.1,22.4l-3.9,0c-3.5-4.6-7.4-11.6-7.3-22.4
		c0.1-10.8,3.9-17.9,7.4-22.5L226.8-19.7z"/>
	<path fill="#808285" d="M235.7-19.2l-1,13.2l-3,0l-0.9-13.2L235.7-19.2z"/>
	<path fill="#808285" d="M242.6-20.5l5,0l0,16.6l0.1,0c0.8-1.4,2-2.6,3.6-3.4c1.5-0.8,3.2-1.4,5.1-1.4c3.7,0,9.5,2.2,9.5,11.4
		l0,15.9l-5,0l0-15.3c0-4.3-1.6-7.9-6.3-7.9c-3.2,0-5.7,2.2-6.6,4.8c-0.3,0.7-0.3,1.4-0.3,2.3l0,16.1l-5,0L242.6-20.5z"/>
	<path fill="#808285" d="M279.6-15.7l0,7.7l7.1,0l0,3.7l-7.1,0l0,14.4c0,3.3,0.9,5.2,3.7,5.2c1.3,0,2.3-0.2,2.9-0.3l0.2,3.6
		c-1,0.4-2.5,0.7-4.4,0.7c-2.3,0-4.2-0.7-5.3-2c-1.4-1.4-1.9-3.8-1.9-6.9l0-14.5l-4.2,0l0-3.7l4.2,0l0-6.4L279.6-15.7z"/>
	<path fill="#808285" d="M298.2-15.6l0,7.7l7.1,0l0,3.7l-7.1,0l0,14.4c0,3.3,0.9,5.2,3.7,5.2c1.3,0,2.3-0.2,2.9-0.3l0.2,3.6
		c-1,0.4-2.5,0.7-4.4,0.7c-2.3,0-4.2-0.7-5.3-2c-1.4-1.4-1.9-3.8-1.9-6.9l0-14.5l-4.2,0l0-3.7l4.2,0l0-6.4L298.2-15.6z"/>
	<path fill="#808285" d="M310.8,0.7c0-3.4-0.1-6.2-0.2-8.7l4.4,0l0.2,4.6l0.1,0c2-3.2,5.2-5.2,9.7-5.2c6.6,0,11.5,5.5,11.5,13.6
		c0,9.6-6,14.3-12.4,14.3c-3.6,0-6.8-1.6-8.4-4.2l-0.1,0l0,14.5l-4.9,0L310.8,0.7z M315.7,7.8c0,0.7,0.1,1.4,0.2,2
		c0.9,3.4,3.9,5.7,7.4,5.7c5.2,0,8.3-4.2,8.3-10.3c0-5.3-2.9-9.9-8.1-9.9c-3.4,0-6.5,2.4-7.5,6c-0.2,0.6-0.3,1.3-0.3,2L315.7,7.8z"
		/>
	<path fill="#808285" d="M342.1,13.8c1.5,0.9,4,1.9,6.5,1.9c3.6,0,5.3-1.8,5.3-4c0-2.3-1.4-3.6-5.1-4.9c-4.9-1.7-7.2-4.4-7.2-7.6
		c0-4.3,3.6-7.8,9.4-7.8c2.8,0,5.2,0.8,6.7,1.7l-1.2,3.5c-1.1-0.7-3-1.5-5.6-1.6c-2.9,0-4.6,1.6-4.6,3.6c0,2.2,1.6,3.2,5.2,4.5
		c4.7,1.8,7.1,4.1,7.1,8c0,4.7-3.7,8-10.2,8c-3,0-5.7-0.7-7.7-1.8L342.1,13.8z"/>
	<path fill="#808285" d="M363.9-3.5c0-2,1.4-3.5,3.4-3.5c2,0,3.3,1.4,3.3,3.5c0,1.9-1.3,3.4-3.4,3.4C365.3-0.1,363.9-1.6,363.9-3.5z
		 M363.9,16c0-2,1.4-3.5,3.4-3.5s3.3,1.4,3.3,3.5c0,1.9-1.3,3.4-3.4,3.4C365.3,19.4,363.9,17.9,363.9,16z"/>
	<path fill="#808285" d="M372.6,21l15.8-39.9l3.8,0L376.3,21L372.6,21z"/>
	<path fill="#808285" d="M391.9,21l15.8-39.9l3.8,0L395.6,21L391.9,21z"/>
	<path fill="#808285" d="M417.3-7.8l3.6,13.5c0.8,3,1.5,5.7,2,8.5l0.2,0c0.6-2.7,1.5-5.6,2.4-8.4L430-7.8l4.2,0l4.2,13.3
		c1,3.2,1.8,6,2.4,8.7l0.2,0c0.5-2.7,1.2-5.5,2.1-8.6L447-7.7l4.9,0L443,18.9l-4.5,0l-4.1-12.7c-1-3-1.7-5.6-2.4-8.8l-0.1,0
		c-0.7,3.2-1.5,5.9-2.5,8.8L425,18.9l-4.5,0l-8.2-26.7L417.3-7.8z"/>
	<path fill="#808285" d="M459.4-7.7L463,5.8c0.8,3,1.5,5.7,2,8.5l0.2,0c0.6-2.7,1.5-5.6,2.4-8.4l4.5-13.6l4.2,0l4.2,13.3
		c1,3.2,1.8,6,2.4,8.7l0.2,0c0.5-2.7,1.2-5.5,2.1-8.6L489-7.7l4.9,0L485.1,19l-4.5,0l-4.1-12.7c-1-3-1.7-5.6-2.4-8.8l-0.1,0
		c-0.7,3.2-1.5,5.9-2.5,8.8L467,18.9l-4.5,0l-8.2-26.7L459.4-7.7z"/>
	<path fill="#808285" d="M501.5-7.7l3.6,13.5c0.8,3,1.5,5.7,2,8.5l0.2,0c0.6-2.7,1.5-5.6,2.4-8.4l4.5-13.6l4.2,0l4.2,13.3
		c1,3.2,1.8,6,2.4,8.7l0.2,0c0.5-2.7,1.2-5.5,2.1-8.6l3.9-13.4l4.9,0L527.2,19l-4.5,0l-4.1-12.7c-1-3-1.7-5.6-2.4-8.8l-0.1,0
		c-0.7,3.2-1.5,5.9-2.5,8.8L509.1,19l-4.5,0l-8.2-26.7L501.5-7.7z"/>
	<path fill="#808285" d="M537.6,16.2c0-2,1.4-3.5,3.4-3.5c2,0,3.3,1.4,3.3,3.5c0,2-1.3,3.5-3.4,3.5
		C538.9,19.7,537.6,18.2,537.6,16.2z"/>
	<path fill="#808285" d="M573.9-7.5c-0.1,1.9-0.2,4.1-0.2,7.3l0,15.5c0,6.1-1.3,9.9-3.9,12.2c-2.6,2.4-6.5,3.2-9.9,3.2
		c-3.3,0-6.9-0.8-9.1-2.2l1.2-3.7c1.8,1.1,4.6,2.1,8,2.1c5.1,0,8.8-2.6,8.8-9.3l0-3l-0.1,0c-1.5,2.5-4.5,4.5-8.7,4.4
		c-6.8,0-11.6-5.6-11.6-13c0-9,6-14.1,12.3-14.1c4.7,0,7.3,2.4,8.5,4.6l0.1,0l0.2-4L573.9-7.5z M568.8,3c0-0.8-0.1-1.5-0.3-2.2
		c-0.9-2.8-3.3-5.1-6.9-5.1c-4.7,0-8.1,3.9-8.1,10.1c0,5.2,2.7,9.6,8,9.6c3,0,5.8-1.9,6.9-4.9c0.3-0.8,0.4-1.8,0.4-2.6L568.8,3z"/>
	<path fill="#808285" d="M581.5-0.3c0-2.8,0-5-0.2-7.2l4.3,0l0.2,4.3l0.2,0c1.5-2.5,4.1-4.9,8.6-4.9c3.7,0,6.5,2.2,7.7,5.4l0.1,0
		c0.8-1.5,1.9-2.6,3-3.5c1.6-1.2,3.4-1.9,6-1.9c3.6,0,8.9,2.3,8.9,11.6l0,15.7l-4.8,0l0-15.1c0-5.1-1.9-8.2-5.9-8.2
		c-2.8,0-5,2-5.9,4.4c-0.2,0.7-0.4,1.5-0.4,2.4l0,16.5l-4.8,0l0-16c0-4.2-1.9-7.3-5.7-7.3c-3.1,0-5.4,2.4-6.1,4.8
		c-0.3,0.7-0.4,1.5-0.4,2.4l0,16.1l-4.8,0L581.5-0.3z"/>
	<path fill="#808285" d="M643.5,19.2l-0.4-3.4l-0.2,0c-1.5,2.1-4.5,4-8.3,3.9c-5.5,0-8.3-3.8-8.3-7.7c0-6.4,5.9-10,16.4-9.9l0-0.6
		c0-2.2-0.6-6.2-6.2-6.2c-2.5,0-5.2,0.8-7.1,2l-1.1-3.2c2.3-1.4,5.5-2.4,9-2.4c8.3,0,10.3,5.6,10.3,10.9l0,10c0,2.3,0.1,4.6,0.4,6.4
		L643.5,19.2z M642.8,5.6c-5.4-0.1-11.5,0.8-11.5,6c0,3.1,2.1,4.6,4.7,4.6c3.5,0,5.8-2.2,6.6-4.4c0.2-0.5,0.3-1,0.3-1.5L642.8,5.6z"
		/>
	<path fill="#808285" d="M661.1-14.9c0.1,1.7-1.2,3-3.2,3c-1.7,0-3-1.3-3-3c0-1.7,1.3-3,3.1-3C659.9-17.9,661.1-16.6,661.1-14.9z
		 M655.6,19.2l0-26.6l5,0l0,26.6L655.6,19.2z"/>
	<path fill="#808285" d="M668.8-19.8l5,0l-0.1,39.1l-5,0L668.8-19.8z"/>
	<path fill="#808285" d="M680.3,16.4c0-2,1.4-3.5,3.4-3.5c2,0,3.3,1.4,3.3,3.5c0,2-1.3,3.5-3.4,3.5
		C681.6,19.9,680.3,18.4,680.3,16.4z"/>
	<path fill="#808285" d="M712.5,18.3c-1.3,0.7-4.2,1.5-7.8,1.5c-8.2,0-13.6-5.5-13.5-13.6c0-8.2,5.8-14.1,14.7-14.1
		c2.9,0,5.5,0.7,6.9,1.4l-1.1,3.7c-1.2-0.7-3-1.3-5.7-1.3c-6.2,0-9.6,4.5-9.6,10.1c0,6.2,4,10,9.4,10c2.8,0,4.7-0.7,6.1-1.3
		L712.5,18.3z"/>
	<path fill="#808285" d="M742.6,5.8c0,9.9-7,14.1-13.6,14.1c-7.4,0-13-5.3-13-13.7c0-8.9,6-14.1,13.5-14.1
		C737.4-7.9,742.6-2.3,742.6,5.8z M721,6.1c0,5.8,3.4,10.2,8.3,10.3c4.7,0,8.3-4.3,8.3-10.3c0-4.5-2.3-10.2-8.1-10.3S721,1,721,6.1z
		"/>
	<path fill="#808285" d="M748.9,0c0-2.8,0-5-0.2-7.2l4.3,0l0.2,4.3l0.2,0c1.5-2.5,4.1-4.9,8.6-4.9c3.7,0,6.5,2.2,7.7,5.4l0.1,0
		c0.8-1.5,1.9-2.6,3-3.5c1.6-1.2,3.4-1.9,6-1.9c3.6,0,8.9,2.3,8.9,11.6l0,15.7l-4.8,0l0-15.1c0-5.1-1.9-8.2-5.9-8.2
		c-2.8,0-5,2-5.9,4.4c-0.2,0.7-0.4,1.5-0.4,2.4l0,16.5l-4.8,0l0-16c0-4.2-1.9-7.3-5.7-7.3c-3.1,0-5.4,2.4-6.1,4.8
		c-0.3,0.7-0.4,1.5-0.4,2.4l0,16.1l-4.8,0L748.9,0z"/>
	<path fill="#808285" d="M799.1-18.2l-1,13.2l-3,0l-0.9-13.2L799.1-18.2z"/>
	<path fill="#808285" d="M803,26.1c4-5.4,7.1-12.6,7.1-22.5c0-9.9-3-16.9-7.1-22.4l3.8,0c3.6,4.5,7.4,11.6,7.3,22.4
		c0,10.8-3.8,17.8-7.4,22.4L803,26.1z"/>
	<path fill="#808285" d="M15.8,111.2l-0.1,32.2c0,2.4,0,5.1,0.2,6.9l-4.4,0l-0.2-4.6l-0.1,0c-1.5,3-4.8,5.2-9.3,5.2
		c-6.6,0-11.6-5.5-11.6-13.6c0-8.9,5.6-14.3,12.2-14.3c4.2,0,7,1.9,8.2,4.1l0.1,0l0-15.9L15.8,111.2z M10.8,134.5
		c0-0.6-0.1-1.4-0.2-2c-0.7-3.1-3.4-5.6-7.1-5.6c-5.1,0-8.2,4.4-8.2,10.3c0,5.4,2.7,9.9,8,9.9c3.3,0,6.4-2.1,7.3-5.8
		c0.2-0.7,0.2-1.3,0.2-2.1L10.8,134.5z"/>
	<path fill="#808285" d="M24,132c0-3.1,0-5.8-0.2-8.3l4.3,0l0.2,5.2l0.2,0c1.2-3.6,4.2-5.8,7.6-5.8c0.6,0,1,0.1,1.4,0.2l0,4.6
		c-0.5-0.1-1-0.2-1.7-0.2c-3.5,0-6,2.6-6.7,6.2c-0.1,0.7-0.2,1.4-0.2,2.3l0,14.2l-4.9,0L24,132z"/>
	<path fill="#808285" d="M48.1,116.2c0.1,1.7-1.2,3-3.2,3c-1.7,0-3-1.3-3-3c0-1.7,1.3-3,3.1-3C47,113.2,48.1,114.5,48.1,116.2z
		 M42.6,150.3l0-26.6l5,0l0,26.6L42.6,150.3z"/>
	<path fill="#808285" d="M57.7,123.7l5.3,15c0.9,2.4,1.6,4.6,2.2,6.8l0.2,0c0.6-2.2,1.4-4.4,2.3-6.8l5.3-15l5.2,0l-10.7,26.6l-4.7,0
		l-10.3-26.7L57.7,123.7z"/>
	<path fill="#808285" d="M85,138c0.1,6.6,4.4,9.3,9.3,9.3c3.5,0,5.7-0.6,7.5-1.4l0.8,3.5c-1.7,0.8-4.7,1.6-9.1,1.6
		c-8.4,0-13.4-5.4-13.4-13.5s4.9-14.4,12.8-14.3c8.9,0,11.2,7.7,11.2,12.6c0,1-0.1,1.8-0.2,2.3L85,138z M99.5,134.5
		c0.1-3.1-1.3-7.9-6.9-7.9c-5,0-7.2,4.5-7.6,7.9L99.5,134.5z"/>
	<path fill="#808285" d="M110.4,132.1c0-3.1,0-5.8-0.2-8.3l4.3,0l0.2,5.2l0.2,0c1.2-3.6,4.2-5.8,7.6-5.8c0.6,0,1,0.1,1.4,0.2l0,4.6
		c-0.5-0.1-1-0.2-1.7-0.2c-3.5,0-6,2.6-6.7,6.2c-0.1,0.7-0.2,1.4-0.2,2.3l0,14.2l-4.9,0L110.4,132.1z"/>
	<path fill="#808285" d="M124.7,147.6c0-2,1.4-3.5,3.4-3.5c2,0,3.3,1.4,3.3,3.5c0,2-1.3,3.5-3.4,3.5
		C126,151.1,124.7,149.6,124.7,147.6z"/>
	<path fill="#808285" d="M138,150.5l0-23l-3.8,0l0-3.7l3.8,0l0-1.4c0-7,4.2-11.6,11.9-11.6c2.5,0,5.5,0.8,6.9,1.8l-1.4,3.7
		c-1.2-0.8-3.3-1.5-5.7-1.6c-5.2,0-6.8,3.6-6.8,7.8l0,1.3l15.8,0l0,26.6l-4.9,0l0-23l-10.9,0l0,23L138,150.5z"/>
	<path fill="#808285" d="M166.9,131.1c0-2.8,0-5-0.2-7.2l4.4,0l0.3,4.4l0.1,0c1.4-2.5,4.5-5,9-5c3.8,0,9.6,2.2,9.6,11.4l0,15.9l-5,0
		l0-15.4c0-4.3-1.6-7.9-6.3-7.9c-3.3,0-5.8,2.2-6.6,4.9c-0.2,0.6-0.3,1.4-0.3,2.3l0,16l-5,0L166.9,131.1z"/>
	<path fill="#808285" d="M221.7,111.5l-0.1,32.2c0,2.4,0,5.1,0.2,6.9l-4.4,0l-0.2-4.6l-0.1,0c-1.5,3-4.8,5.2-9.3,5.2
		c-6.6,0-11.6-5.5-11.6-13.6c0-8.9,5.6-14.3,12.2-14.3c4.2,0,7,1.9,8.2,4.1l0.1,0l0-15.9L221.7,111.5z M216.7,134.8
		c0-0.6-0.1-1.4-0.2-2c-0.7-3.1-3.4-5.6-7.1-5.6c-5.1,0-8.2,4.4-8.2,10.3c0,5.4,2.7,9.9,8,9.9c3.3,0,6.4-2.1,7.3-5.8
		c0.2-0.7,0.2-1.3,0.2-2.1L216.7,134.8z"/>
	<path fill="#808285" d="M253.9,154.8l0,2.8l-28.1,0l0-2.8L253.9,154.8z"/>
	<path fill="#808285" d="M260.8,138.2c0.1,6.6,4.4,9.3,9.3,9.3c3.5,0,5.7-0.6,7.5-1.4l0.8,3.5c-1.7,0.8-4.7,1.6-9.1,1.6
		c-8.4,0-13.4-5.4-13.4-13.5s4.9-14.4,12.8-14.3c8.9,0,11.2,7.7,11.2,12.6c0,1-0.1,1.8-0.2,2.3L260.8,138.2z M275.3,134.8
		c0.1-3.1-1.3-7.9-6.9-7.9c-5,0-7.2,4.5-7.6,7.9L275.3,134.8z"/>
	<path fill="#808285" d="M286.3,111.6l5,0l-0.1,39.1l-5,0L286.3,111.6z"/>
	<path fill="#808285" d="M302.3,138.3c0.1,6.6,4.4,9.3,9.3,9.3c3.5,0,5.7-0.6,7.5-1.4l0.8,3.5c-1.7,0.8-4.7,1.6-9.1,1.6
		c-8.4,0-13.4-5.4-13.4-13.5s4.9-14.4,12.8-14.3c8.9,0,11.2,7.7,11.2,12.6c0,1-0.1,1.8-0.2,2.3L302.3,138.3z M316.8,134.9
		c0.1-3.1-1.3-7.9-6.9-7.9c-5,0-7.2,4.5-7.6,7.9L316.8,134.9z"/>
	<path fill="#808285" d="M327.7,131.4c0-2.8,0-5-0.2-7.2l4.3,0l0.2,4.3l0.2,0c1.5-2.5,4.1-4.9,8.6-4.9c3.7,0,6.5,2.2,7.7,5.4l0.1,0
		c0.8-1.5,1.9-2.6,3-3.5c1.6-1.2,3.4-1.9,6-1.9c3.6,0,8.9,2.3,8.9,11.6l0,15.7l-4.8,0l0-15.1c0-5.1-1.9-8.2-5.9-8.2
		c-2.8,0-5,2-5.9,4.4c-0.2,0.7-0.4,1.5-0.4,2.4l0,16.5l-4.8,0l0-16c0-4.2-1.9-7.3-5.7-7.3c-3.1,0-5.4,2.4-6.1,4.8
		c-0.3,0.7-0.4,1.5-0.4,2.4l0,16.1l-4.8,0L327.7,131.4z"/>
	<path fill="#808285" d="M377.4,138.4c0.1,6.6,4.4,9.3,9.3,9.3c3.5,0,5.7-0.6,7.5-1.4l0.8,3.5c-1.7,0.8-4.7,1.6-9.1,1.6
		c-8.4,0-13.4-5.4-13.4-13.5s4.9-14.4,12.8-14.3c8.9,0,11.2,7.7,11.2,12.6c0,1-0.1,1.8-0.2,2.3L377.4,138.4z M391.9,135
		c0.1-3.1-1.3-7.9-6.9-7.9c-5,0-7.2,4.5-7.6,7.9L391.9,135z"/>
	<path fill="#808285" d="M402.8,131.5c0-2.8,0-5-0.2-7.2l4.4,0l0.3,4.4l0.1,0c1.4-2.5,4.5-5,9-5c3.8,0,9.6,2.2,9.6,11.4l0,15.9l-5,0
		l0-15.4c0-4.3-1.6-7.9-6.3-7.9c-3.3,0-5.8,2.2-6.6,4.9c-0.2,0.6-0.3,1.4-0.3,2.3l0,16l-5,0L402.8,131.5z"/>
	<path fill="#808285" d="M439.8,116.7l0,7.7l7.1,0l0,3.7l-7.1,0l0,14.4c0,3.3,0.9,5.2,3.7,5.2c1.3,0,2.3-0.2,2.9-0.3l0.2,3.6
		c-1,0.4-2.5,0.7-4.4,0.7c-2.3,0-4.2-0.7-5.3-2c-1.4-1.4-1.9-3.8-1.9-6.9l0-14.5l-4.2,0l0-3.7l4.2,0l0-6.4L439.8,116.7z"/>
	<path fill="#808285" d="M476.5,155.2l0,2.8l-28.1,0l0-2.8L476.5,155.2z"/>
	<path fill="#808285" d="M480.3,151c0.1-1.8,0.2-4.5,0.2-6.9l0.1-32.2l4.9,0l0,16.7l0.1,0c1.7-3,4.9-4.9,9.3-4.9
		c6.8,0,11.5,5.5,11.5,13.6c0,9.5-6.2,14.2-12.2,14.2c-3.9,0-7.1-1.5-9.1-5l-0.2,0l-0.2,4.4L480.3,151z M485.5,140.4
		c0,0.6,0.1,1.2,0.2,1.8c1,3.4,3.8,5.7,7.4,5.7c5.2,0,8.3-4.1,8.3-10.2c0-5.3-2.8-9.9-8.1-9.9c-3.4,0-6.5,2.2-7.6,5.9
		c-0.1,0.6-0.3,1.2-0.3,2L485.5,140.4z"/>
	<path fill="#808285" d="M514,124.5l5.9,15.8c0.6,1.8,1.3,3.9,1.7,5.5l0.1,0c0.5-1.6,1.1-3.6,1.8-5.6l5.4-15.6l5.2,0l-7.5,19
		c-3.6,9.1-6,13.8-9.4,16.7c-2.4,2.1-4.8,2.9-6.1,3.1l-1.2-4.1c1.2-0.4,2.9-1.2,4.3-2.4c1.4-1,3-2.9,4.2-5.4
		c0.2-0.5,0.4-0.9,0.4-1.2c0-0.3-0.1-0.7-0.3-1.3l-10-24.6L514,124.5z"/>
	<path fill="#808285" d="M562.7,155.3l0,2.8l-28.1,0l0-2.8L562.7,155.3z"/>
	<path fill="#808285" d="M572.4,117.1c0.1,1.7-1.2,3-3.2,3c-1.7,0-3-1.3-3-3c0-1.7,1.3-3,3.1-3C571.2,114,572.4,115.4,572.4,117.1z
		 M566.8,151.2l0-26.6l5,0l0,26.6L566.8,151.2z"/>
	<path fill="#808285" d="M603.6,112.2l-0.1,32.2c0,2.4,0,5.1,0.2,6.9l-4.4,0l-0.2-4.6l-0.1,0c-1.5,3-4.8,5.2-9.3,5.2
		c-6.6,0-11.6-5.5-11.6-13.6c0-8.9,5.6-14.3,12.2-14.3c4.2,0,7,1.9,8.2,4.1l0.1,0l0-15.9L603.6,112.2z M598.6,135.4
		c0-0.6-0.1-1.4-0.2-2c-0.7-3.1-3.4-5.6-7.1-5.6c-5.1,0-8.2,4.4-8.2,10.3c0,5.4,2.7,9.9,8,9.9c3.3,0,6.4-2.1,7.3-5.8
		c0.2-0.7,0.2-1.3,0.2-2.1L598.6,135.4z"/>
	<path fill="#808285" d="M622.5,113.1c-4.1,5.4-7.1,12.5-7.1,22.5c0,9.8,3.1,16.8,7.1,22.4l-3.9,0c-3.5-4.6-7.4-11.6-7.3-22.4
		c0.1-10.8,3.9-17.9,7.4-22.5L622.5,113.1z"/>
	<path fill="#808285" d="M631.4,113.6l-1,13.2l-3,0l-0.9-13.2L631.4,113.6z"/>
	<path fill="#808285" d="M643.9,117.2c0.1,1.7-1.2,3-3.2,3c-1.7,0-3-1.3-3-3c0-1.7,1.3-3,3.1-3C642.7,114.2,643.9,115.5,643.9,117.2
		z M638.3,151.3l0-26.6l5,0l0,26.6L638.3,151.3z"/>
	<path fill="#808285" d="M675,112.3l-0.1,32.2c0,2.4,0,5.1,0.2,6.9l-4.4,0l-0.2-4.6l-0.1,0c-1.5,3-4.8,5.2-9.3,5.2
		c-6.6,0-11.6-5.5-11.6-13.6c0-8.9,5.6-14.3,12.2-14.3c4.2,0,7,1.9,8.2,4.1l0.1,0l0-15.9L675,112.3z M670.1,135.6
		c0-0.6-0.1-1.4-0.2-2c-0.7-3.1-3.4-5.6-7.1-5.6c-5.1,0-8.2,4.4-8.2,10.3c0,5.4,2.7,9.9,8,9.9c3.3,0,6.4-2.1,7.3-5.8
		c0.2-0.7,0.2-1.3,0.2-2.1L670.1,135.6z"/>
	<path fill="#808285" d="M686,138.9c0.1,6.6,4.4,9.3,9.3,9.3c3.5,0,5.7-0.6,7.5-1.4l0.8,3.5c-1.7,0.8-4.7,1.6-9.1,1.6
		c-8.4,0-13.4-5.4-13.4-13.5s4.9-14.4,12.8-14.3c8.9,0,11.2,7.7,11.2,12.6c0,1-0.1,1.8-0.2,2.3L686,138.9z M700.5,135.5
		c0.1-3.1-1.3-7.9-6.9-7.9c-5,0-7.2,4.5-7.6,7.9L700.5,135.5z"/>
	<path fill="#808285" d="M711.4,132c0-2.8,0-5-0.2-7.2l4.4,0l0.3,4.4l0.1,0c1.4-2.5,4.5-5,9-5c3.8,0,9.6,2.2,9.6,11.4l0,15.9l-5,0
		l0-15.4c0-4.3-1.6-7.9-6.3-7.9c-3.3,0-5.8,2.2-6.6,4.9c-0.2,0.6-0.3,1.4-0.3,2.3l0,16l-5,0L711.4,132z"/>
	<path fill="#808285" d="M748.4,117.2l0,7.7l7.1,0l0,3.7l-7.1,0l0,14.4c0,3.3,0.9,5.2,3.7,5.2c1.3,0,2.3-0.2,2.9-0.3l0.2,3.6
		c-1,0.4-2.5,0.7-4.4,0.7c-2.3,0-4.2-0.7-5.3-2c-1.4-1.4-1.9-3.8-1.9-6.9l0-14.5l-4.2,0l0-3.7l4.2,0l0-6.4L748.4,117.2z"/>
	<path fill="#808285" d="M766.6,117.4c0.1,1.7-1.2,3-3.2,3c-1.7,0-3-1.3-3-3c0-1.7,1.3-3,3.1-3C765.4,114.4,766.6,115.7,766.6,117.4
		z M761,151.5l0-26.6l5,0l0,26.6L761,151.5z"/>
	<path fill="#808285" d="M774.7,151.5l0-23l-3.8,0l0-3.7l3.8,0l0-1.4c0-7,4.2-11.6,11.9-11.6c2.5,0,5.5,0.8,6.9,1.8l-1.4,3.7
		c-1.2-0.8-3.3-1.5-5.7-1.6c-5.2,0-6.8,3.6-6.8,7.8l0,1.3l15.8,0l0,26.6l-4.9,0l0-23l-10.9,0l0,23L774.7,151.5z"/>
	<path fill="#808285" d="M806.4,139.1c0.1,6.6,4.4,9.3,9.3,9.3c3.5,0,5.7-0.6,7.5-1.4l0.8,3.5c-1.7,0.8-4.7,1.6-9.1,1.6
		c-8.4,0-13.4-5.4-13.4-13.5s4.9-14.4,12.8-14.3c8.9,0,11.2,7.7,11.2,12.6c0,1-0.1,1.8-0.2,2.3L806.4,139.1z M820.9,135.7
		c0.1-3.1-1.3-7.9-6.9-7.9c-5,0-7.2,4.5-7.6,7.9L820.9,135.7z"/>
	<path fill="#808285" d="M831.8,133.3c0-3.1,0-5.8-0.2-8.3l4.3,0l0.2,5.2l0.2,0c1.2-3.6,4.2-5.8,7.6-5.8c0.6,0,1,0.1,1.4,0.2l0,4.6
		c-0.5-0.1-1-0.2-1.7-0.2c-3.5,0-6,2.6-6.7,6.2c-0.1,0.7-0.2,1.4-0.2,2.3l0,14.2l-4.9,0L831.8,133.3z"/>
	<path fill="#808285" d="M855.3,114.6l-0.1,37.1l-4.9,0l0.1-37.1L855.3,114.6z"/>
	<path fill="#808285" d="M887.2,112.6l-0.1,32.2c0,2.4,0,5.1,0.2,6.9l-4.4,0l-0.2-4.6l-0.1,0c-1.5,3-4.8,5.2-9.3,5.2
		c-6.6,0-11.6-5.5-11.6-13.6c0-8.9,5.6-14.3,12.2-14.3c4.2,0,7,1.9,8.2,4.1l0.1,0l0-15.9L887.2,112.6z M882.2,135.9
		c0-0.6-0.1-1.4-0.2-2c-0.7-3.1-3.4-5.6-7.1-5.6c-5.1,0-8.2,4.4-8.2,10.3c0,5.4,2.7,9.9,8,9.9c3.3,0,6.4-2.1,7.3-5.8
		c0.2-0.7,0.2-1.3,0.2-2.1L882.2,135.9z"/>
	<path fill="#808285" d="M899.1,114l-1,13.2l-3,0l-0.9-13.2L899.1,114z"/>
	<path fill="#808285" d="M903,158.4c4-5.4,7.1-12.6,7.1-22.5c0-9.9-3-16.9-7.1-22.4l3.8,0c3.6,4.5,7.4,11.6,7.3,22.4
		c0,10.8-3.8,17.8-7.4,22.4L903,158.4z"/>
	<path fill="#808285" d="M920.8,148.9c0-2,1.4-3.5,3.4-3.5c2,0,3.3,1.4,3.3,3.5c0,2-1.3,3.5-3.4,3.5
		C922.1,152.4,920.8,150.9,920.8,148.9z"/>
	<path fill="#808285" d="M932.9,146.8c1.5,0.9,4,1.9,6.5,1.9c3.6,0,5.3-1.8,5.3-4c0-2.3-1.4-3.6-5.1-4.9c-4.9-1.7-7.2-4.4-7.2-7.6
		c0-4.3,3.6-7.8,9.4-7.8c2.8,0,5.2,0.8,6.7,1.7l-1.2,3.5c-1.1-0.7-3-1.5-5.6-1.6c-2.9,0-4.6,1.6-4.6,3.6c0,2.2,1.6,3.2,5.2,4.5
		c4.7,1.8,7.1,4.1,7.1,8c0,4.7-3.7,8-10.2,8c-3,0-5.7-0.7-7.7-1.8L932.9,146.8z"/>
	<path fill="#808285" d="M958.7,139.4c0.1,6.6,4.4,9.3,9.3,9.3c3.5,0,5.7-0.6,7.5-1.4l0.8,3.5c-1.7,0.8-4.7,1.6-9.1,1.6
		c-8.4,0-13.4-5.4-13.4-13.5s4.9-14.4,12.8-14.3c8.9,0,11.2,7.7,11.2,12.6c0,1-0.1,1.8-0.2,2.3L958.7,139.4z M973.2,135.9
		c0.1-3.1-1.3-7.9-6.9-7.9c-5,0-7.2,4.5-7.6,7.9L973.2,135.9z"/>
	<path fill="#808285" d="M984.1,132.4c0-2.8,0-5-0.2-7.2l4.4,0l0.3,4.4l0.1,0c1.4-2.5,4.5-5,9-5c3.8,0,9.6,2.2,9.6,11.4l0,15.9l-5,0
		l0-15.4c0-4.3-1.6-7.9-6.3-7.9c-3.3,0-5.8,2.2-6.6,4.9c-0.2,0.6-0.3,1.4-0.3,2.3l0,16l-5,0L984.1,132.4z"/>
	<path fill="#808285" d="M1038.9,112.9l-0.1,32.2c0,2.4,0,5.1,0.2,6.9l-4.4,0l-0.2-4.6l-0.1,0c-1.5,3-4.8,5.2-9.3,5.2
		c-6.6,0-11.6-5.5-11.6-13.6c0-8.9,5.6-14.3,12.2-14.3c4.2,0,7,1.9,8.2,4.1l0.1,0l0-15.9L1038.9,112.9z M1033.9,136.2
		c0-0.6-0.1-1.4-0.2-2c-0.7-3.1-3.4-5.6-7.1-5.6c-5.1,0-8.2,4.4-8.2,10.3c0,5.4,2.7,9.9,8,9.9c3.3,0,6.4-2.1,7.3-5.8
		c0.2-0.7,0.2-1.3,0.2-2.1L1033.9,136.2z"/>
	<path fill="#808285" d="M1071.1,156.1l0,2.8l-28.1,0l0-2.8L1071.1,156.1z"/>
	<path fill="#808285" d="M1080.1,137.6l0.1,0c0.7-0.9,1.6-2.1,2.4-3l8-9.2l6,0l-10.5,10.9l12,15.7l-6,0l-9.4-12.8l-2.5,2.7l0,10
		l-4.9,0l0.1-39.1l4.9,0L1080.1,137.6z"/>
	<path fill="#808285" d="M1104.3,139.6c0.1,6.6,4.4,9.3,9.3,9.3c3.5,0,5.7-0.6,7.5-1.4l0.8,3.5c-1.7,0.8-4.7,1.6-9.1,1.6
		c-8.4,0-13.4-5.4-13.4-13.5s4.9-14.4,12.8-14.3c8.9,0,11.2,7.7,11.2,12.6c0,1-0.1,1.8-0.2,2.3L1104.3,139.6z M1118.9,136.2
		c0.1-3.1-1.3-7.9-6.9-7.9c-5,0-7.2,4.5-7.6,7.9L1118.9,136.2z"/>
	<path fill="#808285" d="M1131.6,125.5l5.9,15.8c0.6,1.8,1.3,3.9,1.7,5.5l0.1,0c0.5-1.6,1.1-3.6,1.8-5.6l5.4-15.6l5.2,0l-7.5,19
		c-3.6,9.1-6,13.8-9.4,16.7c-2.4,2.1-4.8,2.9-6.1,3.1l-1.2-4.1c1.2-0.4,2.9-1.2,4.3-2.4c1.4-1,3-2.9,4.2-5.4
		c0.2-0.5,0.4-0.9,0.4-1.2c0-0.3-0.1-0.7-0.3-1.3l-10-24.6L1131.6,125.5z"/>
	<path fill="#808285" d="M1155.3,147.2c1.5,0.9,4,1.9,6.5,1.9c3.6,0,5.3-1.8,5.3-4c0-2.3-1.4-3.6-5.1-4.9c-4.9-1.7-7.2-4.4-7.2-7.6
		c0-4.3,3.6-7.8,9.4-7.8c2.8,0,5.2,0.8,6.7,1.7l-1.2,3.5c-1.1-0.7-3-1.5-5.6-1.6c-2.9,0-4.6,1.6-4.6,3.6c0,2.2,1.6,3.2,5.2,4.5
		c4.7,1.8,7.1,4.1,7.1,8c0,4.7-3.7,8-10.2,8c-3,0-5.7-0.7-7.7-1.8L1155.3,147.2z"/>
	<path fill="#808285" d="M1189,114c-4.1,5.4-7.1,12.5-7.1,22.5c0,9.8,3.1,16.8,7.1,22.4l-3.9,0c-3.5-4.6-7.4-11.6-7.3-22.4
		c0.1-10.8,3.9-17.9,7.4-22.5L1189,114z"/>
	<path fill="#808285" d="M1197,139.8c0.1,6.6,4.4,9.3,9.3,9.3c3.5,0,5.7-0.6,7.5-1.4l0.8,3.5c-1.7,0.8-4.7,1.6-9.1,1.6
		c-8.4,0-13.4-5.4-13.4-13.5s4.9-14.4,12.8-14.3c8.9,0,11.2,7.7,11.2,12.6c0,1-0.1,1.8-0.2,2.3L1197,139.8z M1211.5,136.3
		c0.1-3.1-1.3-7.9-6.9-7.9c-5,0-7.2,4.5-7.6,7.9L1211.5,136.3z"/>
	<path fill="#808285" d="M1222.4,132.8c0-2.8,0-5-0.2-7.2l4.3,0l0.2,4.3l0.2,0c1.5-2.5,4.1-4.9,8.6-4.9c3.7,0,6.5,2.2,7.7,5.4l0.1,0
		c0.8-1.5,1.9-2.6,3-3.5c1.6-1.2,3.4-1.9,6-1.9c3.6,0,8.9,2.3,8.9,11.6l0,15.7l-4.8,0l0-15.1c0-5.1-1.9-8.2-5.9-8.2
		c-2.8,0-5,2-5.9,4.4c-0.2,0.7-0.4,1.5-0.4,2.4l0,16.5l-4.8,0l0-16c0-4.2-1.9-7.3-5.7-7.3c-3.1,0-5.4,2.4-6.1,4.8
		c-0.3,0.7-0.4,1.5-0.4,2.4l0,16.1l-4.8,0L1222.4,132.8z"/>
	<path fill="#808285" d="M1284.4,152.4l-0.4-3.4l-0.2,0c-1.5,2.1-4.5,4-8.3,3.9c-5.5,0-8.3-3.8-8.3-7.7c0-6.4,5.9-10,16.4-9.9l0-0.6
		c0-2.2-0.6-6.2-6.2-6.2c-2.5,0-5.2,0.8-7.1,2l-1.1-3.2c2.3-1.4,5.5-2.4,9-2.4c8.3,0,10.3,5.6,10.3,10.9l0,10c0,2.3,0.1,4.6,0.4,6.4
		L1284.4,152.4z M1283.7,138.8c-5.4-0.1-11.5,0.8-11.5,6c0,3.1,2.1,4.6,4.7,4.6c3.5,0,5.8-2.2,6.6-4.4c0.2-0.5,0.3-1,0.3-1.5
		L1283.7,138.8z"/>
	<path fill="#808285" d="M1302,118.3c0.1,1.7-1.2,3-3.2,3c-1.7,0-3-1.3-3-3c0-1.7,1.3-3,3.1-3C1300.8,115.2,1302,116.6,1302,118.3z
		 M1296.4,152.4l0-26.6l5,0l0,26.6L1296.4,152.4z"/>
	<path fill="#808285" d="M1309.7,113.3l5,0l-0.1,39.1l-5,0L1309.7,113.3z"/>
	<path fill="#808285" d="M1319.9,159.1c4-5.4,7.1-12.6,7.1-22.5c0-9.9-3-16.9-7.1-22.4l3.8,0c3.6,4.5,7.4,11.6,7.3,22.4
		c0,10.8-3.8,17.8-7.4,22.4L1319.9,159.1z"/>
	<path fill="#808285" d="M15.7,177.3l-0.1,32.2c0,2.4,0,5.1,0.2,6.9l-4.4,0l-0.2-4.6l-0.1,0c-1.5,3-4.8,5.2-9.3,5.2
		c-6.6,0-11.6-5.5-11.6-13.6c0-8.9,5.6-14.3,12.2-14.3c4.2,0,7,1.9,8.2,4.1l0.1,0l0-15.9L15.7,177.3z M10.7,200.5
		c0-0.6-0.1-1.4-0.2-2c-0.7-3.1-3.4-5.6-7.1-5.6c-5.1,0-8.2,4.4-8.2,10.3c0,5.4,2.7,9.9,8,9.9c3.3,0,6.4-2.1,7.3-5.8
		c0.2-0.7,0.2-1.3,0.2-2.1L10.7,200.5z"/>
	<path fill="#808285" d="M23.9,198c0-3.1,0-5.8-0.2-8.3l4.3,0l0.2,5.2l0.2,0c1.2-3.6,4.2-5.8,7.6-5.8c0.6,0,1,0.1,1.4,0.2l0,4.6
		c-0.5-0.1-1-0.2-1.7-0.2c-3.5,0-6,2.6-6.7,6.2c-0.1,0.7-0.2,1.4-0.2,2.3l0,14.2l-4.9,0L23.9,198z"/>
	<path fill="#808285" d="M48,182.3c0.1,1.7-1.2,3-3.2,3c-1.7,0-3-1.3-3-3c0-1.7,1.3-3,3.1-3C46.8,179.2,48,180.6,48,182.3z
		 M42.4,216.4l0-26.6l5,0l0,26.6L42.4,216.4z"/>
	<path fill="#808285" d="M57.6,189.8l5.3,15c0.9,2.4,1.6,4.6,2.2,6.8l0.2,0c0.6-2.2,1.4-4.4,2.3-6.8l5.3-15l5.2,0l-10.7,26.6l-4.7,0
		l-10.3-26.7L57.6,189.8z"/>
	<path fill="#808285" d="M84.9,204c0.1,6.6,4.4,9.3,9.3,9.3c3.5,0,5.7-0.6,7.5-1.4l0.8,3.5c-1.7,0.8-4.7,1.6-9.1,1.6
		c-8.4,0-13.4-5.4-13.4-13.5S85,189.2,93,189.2c8.9,0,11.2,7.7,11.2,12.6c0,1-0.1,1.8-0.2,2.3L84.9,204z M99.4,200.6
		c0.1-3.1-1.3-7.9-6.9-7.9c-5,0-7.2,4.5-7.6,7.9L99.4,200.6z"/>
	<path fill="#808285" d="M110.3,198.2c0-3.1,0-5.8-0.2-8.3l4.3,0l0.2,5.2l0.2,0c1.2-3.6,4.2-5.8,7.6-5.8c0.6,0,1,0.1,1.4,0.2l0,4.6
		c-0.5-0.1-1-0.2-1.7-0.2c-3.5,0-6,2.6-6.7,6.2c-0.1,0.7-0.2,1.4-0.2,2.3l0,14.2l-4.9,0L110.3,198.2z"/>
	<path fill="#808285" d="M124.6,213.6c0-2,1.4-3.5,3.4-3.5c2,0,3.3,1.4,3.3,3.5c0,2-1.3,3.5-3.4,3.5
		C125.9,217.1,124.5,215.6,124.6,213.6z"/>
	<path fill="#808285" d="M137.9,216.5l0-23l-3.8,0l0-3.7l3.8,0l0-1.4c0-7,4.2-11.6,11.9-11.6c2.5,0,5.5,0.8,6.9,1.8l-1.4,3.7
		c-1.2-0.8-3.3-1.5-5.7-1.6c-5.2,0-6.8,3.6-6.8,7.8l0,1.3l15.8,0l0,26.6l-4.9,0l0-23l-10.9,0l0,23L137.9,216.5z"/>
	<path fill="#808285" d="M166.8,197.1c0-2.8,0-5-0.2-7.2l4.4,0l0.3,4.4l0.1,0c1.4-2.5,4.5-5,9-5c3.8,0,9.6,2.2,9.6,11.4l0,15.9l-5,0
		l0-15.4c0-4.3-1.6-7.9-6.3-7.9c-3.3,0-5.8,2.2-6.6,4.9c-0.2,0.6-0.3,1.4-0.3,2.3l0,16l-5,0L166.8,197.1z"/>
	<path fill="#808285" d="M221.6,177.6l-0.1,32.2c0,2.4,0,5.1,0.2,6.9l-4.4,0l-0.2-4.6l-0.1,0c-1.5,3-4.8,5.2-9.3,5.2
		c-6.6,0-11.6-5.5-11.6-13.6c0-8.9,5.6-14.3,12.2-14.3c4.2,0,7,1.9,8.2,4.1l0.1,0l0-15.9L221.6,177.6z M216.6,200.9
		c0-0.6-0.1-1.4-0.2-2c-0.7-3.1-3.4-5.6-7.1-5.6c-5.1,0-8.2,4.4-8.2,10.3c0,5.4,2.7,9.9,8,9.9c3.3,0,6.4-2.1,7.3-5.8
		c0.2-0.7,0.2-1.3,0.2-2.1L216.6,200.9z"/>
	<path fill="#808285" d="M253.8,220.9l0,2.8l-28.1,0l0-2.8L253.8,220.9z"/>
	<path fill="#808285" d="M260.7,204.3c0.1,6.6,4.4,9.3,9.3,9.3c3.5,0,5.7-0.6,7.5-1.4l0.8,3.5c-1.7,0.8-4.7,1.6-9.1,1.6
		c-8.4,0-13.4-5.4-13.4-13.5s4.9-14.4,12.8-14.3c8.9,0,11.2,7.7,11.2,12.6c0,1-0.1,1.8-0.2,2.3L260.7,204.3z M275.2,200.9
		c0.1-3.1-1.3-7.9-6.9-7.9c-5,0-7.2,4.5-7.6,7.9L275.2,200.9z"/>
	<path fill="#808285" d="M286.2,177.7l5,0l-0.1,39.1l-5,0L286.2,177.7z"/>
	<path fill="#808285" d="M302.2,204.4c0.1,6.6,4.4,9.3,9.3,9.3c3.5,0,5.7-0.6,7.5-1.4l0.8,3.5c-1.7,0.8-4.7,1.6-9.1,1.6
		c-8.4,0-13.4-5.4-13.4-13.5c0-8,4.9-14.4,12.8-14.3c8.9,0,11.2,7.7,11.2,12.6c0,1-0.1,1.8-0.2,2.3L302.2,204.4z M316.7,200.9
		c0.1-3.1-1.3-7.9-6.9-7.9c-5,0-7.2,4.5-7.6,7.9L316.7,200.9z"/>
	<path fill="#808285" d="M327.6,197.4c0-2.8,0-5-0.2-7.2l4.3,0l0.2,4.3l0.2,0c1.5-2.5,4.1-4.9,8.6-4.9c3.7,0,6.5,2.2,7.7,5.4l0.1,0
		c0.8-1.5,1.9-2.6,3-3.5c1.6-1.2,3.4-1.9,6-1.9c3.6,0,8.9,2.3,8.9,11.6l0,15.7l-4.8,0l0-15.1c0-5.1-1.9-8.2-5.9-8.2
		c-2.8,0-5,2-5.9,4.4c-0.2,0.7-0.4,1.5-0.4,2.4l0,16.5l-4.8,0l0-16c0-4.2-1.9-7.3-5.7-7.3c-3.1,0-5.4,2.4-6.1,4.8
		c-0.3,0.7-0.4,1.5-0.4,2.4l0,16.1l-4.8,0L327.6,197.4z"/>
	<path fill="#808285" d="M377.3,204.5c0.1,6.6,4.4,9.3,9.3,9.3c3.5,0,5.7-0.6,7.5-1.4l0.8,3.5c-1.7,0.8-4.7,1.6-9.1,1.6
		c-8.4,0-13.4-5.4-13.4-13.5s4.9-14.4,12.8-14.3c8.9,0,11.2,7.7,11.2,12.6c0,1-0.1,1.8-0.2,2.3L377.3,204.5z M391.8,201
		c0.1-3.1-1.3-7.9-6.9-7.9c-5,0-7.2,4.5-7.6,7.9L391.8,201z"/>
	<path fill="#808285" d="M402.7,197.5c0-2.8,0-5-0.2-7.2l4.4,0l0.3,4.4l0.1,0c1.4-2.5,4.5-5,9-5c3.8,0,9.6,2.2,9.6,11.4l0,15.9l-5,0
		l0-15.4c0-4.3-1.6-7.9-6.3-7.9c-3.3,0-5.8,2.2-6.6,4.9c-0.2,0.6-0.3,1.4-0.3,2.3l0,16l-5,0L402.7,197.5z"/>
	<path fill="#808285" d="M439.7,182.7l0,7.7l7.1,0l0,3.7l-7.1,0l0,14.4c0,3.3,0.9,5.2,3.7,5.2c1.3,0,2.3-0.2,2.9-0.3l0.2,3.6
		c-1,0.4-2.5,0.7-4.4,0.7c-2.3,0-4.2-0.7-5.3-2c-1.4-1.4-1.9-3.8-1.9-6.9l0-14.5l-4.2,0l0-3.7l4.2,0l0-6.4L439.7,182.7z"/>
	<path fill="#808285" d="M476.3,221.2l0,2.8l-28.1,0l0-2.8L476.3,221.2z"/>
	<path fill="#808285" d="M480.2,217.1c0.1-1.8,0.2-4.5,0.2-6.9l0.1-32.2l4.9,0l0,16.7l0.1,0c1.7-3,4.9-4.9,9.3-4.9
		c6.8,0,11.5,5.5,11.5,13.6c0,9.5-6.2,14.2-12.2,14.2c-3.9,0-7.1-1.5-9.1-5l-0.2,0l-0.2,4.4L480.2,217.1z M485.4,206.4
		c0,0.6,0.1,1.2,0.2,1.8c1,3.4,3.8,5.7,7.4,5.7c5.2,0,8.3-4.1,8.3-10.2c0-5.3-2.8-9.9-8.1-9.9c-3.4,0-6.5,2.2-7.6,5.9
		c-0.1,0.6-0.3,1.2-0.3,2L485.4,206.4z"/>
	<path fill="#808285" d="M513.9,190.5l5.9,15.8c0.6,1.8,1.3,3.9,1.7,5.5l0.1,0c0.5-1.6,1.1-3.6,1.8-5.6l5.4-15.6l5.2,0l-7.5,19
		c-3.6,9.1-6,13.8-9.4,16.7c-2.4,2.1-4.8,2.9-6.1,3.1l-1.2-4.1c1.2-0.4,2.9-1.2,4.3-2.4c1.4-1,3-2.9,4.2-5.4
		c0.2-0.5,0.4-0.9,0.4-1.2c0-0.3-0.1-0.7-0.3-1.3l-10-24.6L513.9,190.5z"/>
	<path fill="#808285" d="M562.6,221.4l0,2.8l-28.1,0l0-2.8L562.6,221.4z"/>
	<path fill="#808285" d="M572.3,183.1c0.1,1.7-1.2,3-3.2,3c-1.7,0-3-1.3-3-3c0-1.7,1.3-3,3.1-3C571.1,180.1,572.3,181.4,572.3,183.1
		z M566.7,217.2l0-26.6l5,0l0,26.6L566.7,217.2z"/>
	<path fill="#808285" d="M603.5,178.2l-0.1,32.2c0,2.4,0,5.1,0.2,6.9l-4.4,0l-0.2-4.6l-0.1,0c-1.5,3-4.8,5.2-9.3,5.2
		c-6.6,0-11.6-5.5-11.6-13.6c0-8.9,5.6-14.3,12.2-14.3c4.2,0,7,1.9,8.2,4.1l0.1,0l0-15.9L603.5,178.2z M598.5,201.5
		c0-0.6-0.1-1.4-0.2-2c-0.7-3.1-3.4-5.6-7.1-5.6c-5.1,0-8.2,4.4-8.2,10.3c0,5.4,2.7,9.9,8,9.9c3.3,0,6.4-2.1,7.3-5.8
		c0.2-0.7,0.2-1.3,0.2-2.1L598.5,201.5z"/>
	<path fill="#808285" d="M622.4,179.1c-4.1,5.4-7.1,12.5-7.1,22.5c0,9.8,3.1,16.8,7.1,22.4l-3.9,0c-3.5-4.6-7.4-11.6-7.3-22.4
		c0.1-10.8,3.9-17.9,7.4-22.5L622.4,179.1z"/>
	<path fill="#808285" d="M631.3,179.6l-1,13.2l-3,0l-0.9-13.2L631.3,179.6z"/>
	<path fill="#808285" d="M643.8,183.2c0.1,1.7-1.2,3-3.2,3c-1.7,0-3-1.3-3-3c0-1.7,1.3-3,3.1-3C642.6,180.2,643.8,181.5,643.8,183.2
		z M638.2,217.4l0-26.6l5,0l0,26.6L638.2,217.4z"/>
	<path fill="#808285" d="M674.9,178.3l-0.1,32.2c0,2.4,0,5.1,0.2,6.9l-4.4,0l-0.2-4.6l-0.1,0c-1.5,3-4.8,5.2-9.3,5.2
		c-6.6,0-11.6-5.5-11.6-13.6c0-8.9,5.6-14.3,12.2-14.3c4.2,0,7,1.9,8.2,4.1l0.1,0l0-15.9L674.9,178.3z M669.9,201.6
		c0-0.6-0.1-1.4-0.2-2c-0.7-3.1-3.4-5.6-7.1-5.6c-5.1,0-8.2,4.4-8.2,10.3c0,5.4,2.7,9.9,8,9.9c3.3,0,6.4-2.1,7.3-5.8
		c0.2-0.7,0.2-1.3,0.2-2.1L669.9,201.6z"/>
	<path fill="#808285" d="M685.9,205c0.1,6.6,4.4,9.3,9.3,9.3c3.5,0,5.7-0.6,7.5-1.4l0.8,3.5c-1.7,0.8-4.7,1.6-9.1,1.6
		c-8.4,0-13.4-5.4-13.4-13.5s4.9-14.4,12.8-14.3c8.9,0,11.2,7.7,11.2,12.6c0,1-0.1,1.8-0.2,2.3L685.9,205z M700.4,201.5
		c0.1-3.1-1.3-7.9-6.9-7.9c-5,0-7.2,4.5-7.6,7.9L700.4,201.5z"/>
	<path fill="#808285" d="M711.3,198c0-2.8,0-5-0.2-7.2l4.4,0l0.3,4.4l0.1,0c1.4-2.5,4.5-5,9-5c3.8,0,9.6,2.2,9.6,11.4l0,15.9l-5,0
		l0-15.4c0-4.3-1.6-7.9-6.3-7.9c-3.3,0-5.8,2.2-6.6,4.9c-0.2,0.6-0.3,1.4-0.3,2.3l0,16l-5,0L711.3,198z"/>
	<path fill="#808285" d="M748.3,183.2l0,7.7l7.1,0l0,3.7l-7.1,0l0,14.4c0,3.3,0.9,5.2,3.7,5.2c1.3,0,2.3-0.2,2.9-0.3l0.2,3.6
		c-1,0.4-2.5,0.7-4.4,0.7c-2.3,0-4.2-0.7-5.3-2c-1.4-1.4-1.9-3.8-1.9-6.9l0-14.5l-4.2,0l0-3.7l4.2,0l0-6.4L748.3,183.2z"/>
	<path fill="#808285" d="M766.5,183.4c0.1,1.7-1.2,3-3.2,3c-1.7,0-3-1.3-3-3c0-1.7,1.3-3,3.1-3C765.3,180.4,766.5,181.7,766.5,183.4
		z M760.9,217.6l0-26.6l5,0l0,26.6L760.9,217.6z"/>
	<path fill="#808285" d="M774.6,217.6l0-23l-3.8,0l0-3.7l3.8,0l0-1.4c0-7,4.2-11.6,11.9-11.6c2.5,0,5.5,0.8,6.9,1.8l-1.4,3.7
		c-1.2-0.8-3.3-1.5-5.7-1.6c-5.2,0-6.8,3.6-6.8,7.8l0,1.3l15.8,0l0,26.6l-4.9,0l0-23l-10.9,0l0,23L774.6,217.6z"/>
	<path fill="#808285" d="M806.3,205.2c0.1,6.6,4.4,9.3,9.3,9.3c3.5,0,5.7-0.6,7.5-1.4l0.8,3.5c-1.7,0.8-4.7,1.6-9.1,1.6
		c-8.4,0-13.4-5.4-13.4-13.5s4.9-14.4,12.8-14.3c8.9,0,11.2,7.7,11.2,12.6c0,1-0.1,1.8-0.2,2.3L806.3,205.2z M820.8,201.7
		c0.1-3.1-1.3-7.9-6.9-7.9c-5,0-7.2,4.5-7.6,7.9L820.8,201.7z"/>
	<path fill="#808285" d="M831.7,199.3c0-3.1,0-5.8-0.2-8.3l4.3,0l0.2,5.2l0.2,0c1.2-3.6,4.2-5.8,7.6-5.8c0.6,0,1,0.1,1.4,0.2l0,4.6
		c-0.5-0.1-1-0.2-1.7-0.2c-3.5,0-6,2.6-6.7,6.2c-0.1,0.7-0.2,1.4-0.2,2.3l0,14.2l-4.9,0L831.7,199.3z"/>
	<path fill="#808285" d="M850.3,217.7l0.1-37.1l5.3,0l12.1,18.8c2.8,4.4,5,8.3,6.8,12.1l0.1-0.1c-0.4-5-0.5-9.5-0.5-15.2l0-15.5
		l4.6,0l-0.1,37.1l-5,0l-12-18.8c-2.6-4.1-5.2-8.4-7.1-12.4l-0.2,0.1c0.3,4.7,0.4,9.1,0.4,15.3l0,15.9L850.3,217.7z"/>
	<path fill="#808285" d="M889.9,205.3c0.1,6.6,4.4,9.3,9.3,9.3c3.5,0,5.7-0.6,7.5-1.4l0.8,3.5c-1.7,0.8-4.7,1.6-9.1,1.6
		c-8.4,0-13.4-5.4-13.4-13.5s4.9-14.4,12.8-14.3c8.9,0,11.2,7.7,11.2,12.6c0,1-0.1,1.8-0.2,2.3L889.9,205.3z M904.4,201.9
		c0.1-3.1-1.3-7.9-6.9-7.9c-5,0-7.2,4.5-7.6,7.9L904.4,201.9z"/>
	<path fill="#808285" d="M917.5,191.2l3.9,5.7c1,1.5,1.9,2.9,2.7,4.4l0.2,0c0.9-1.6,1.8-3,2.7-4.4l3.8-5.7l5.3,0l-9.3,12.9l9.5,13.8
		l-5.6,0l-4-6c-1.1-1.5-2-3-2.9-4.6l-0.1,0c-0.9,1.6-1.9,3-2.9,4.6l-3.9,6l-5.5,0l9.7-13.6l-9.2-13.1L917.5,191.2z"/>
	<path fill="#808285" d="M948,183.6l0,7.7l7.1,0l0,3.7l-7.1,0l0,14.4c0,3.3,0.9,5.2,3.7,5.2c1.3,0,2.3-0.2,2.9-0.3l0.2,3.6
		c-1,0.4-2.5,0.7-4.4,0.7c-2.3,0-4.2-0.7-5.3-2c-1.4-1.4-1.9-3.8-1.9-6.9l0-14.5l-4.2,0l0-3.7l4.2,0l0-6.4L948,183.6z"/>
	<path fill="#808285" d="M964.3,180.2l-1,13.2l-3,0l-0.9-13.2L964.3,180.2z"/>
	<path fill="#808285" d="M968.1,224.6c4-5.4,7.1-12.6,7.1-22.5c0-9.9-3-16.9-7.1-22.4l3.8,0c3.6,4.5,7.4,11.6,7.3,22.4
		c0,10.8-3.8,17.8-7.4,22.4L968.1,224.6z"/>
	<path fill="#808285" d="M985.9,215.1c0-2,1.4-3.5,3.4-3.5c2,0,3.3,1.4,3.3,3.5c0,2-1.3,3.5-3.4,3.5
		C987.3,218.5,985.9,217,985.9,215.1z"/>
	<path fill="#808285" d="M1018.2,217c-1.3,0.7-4.2,1.5-7.8,1.5c-8.2,0-13.6-5.5-13.5-13.6c0-8.2,5.8-14.1,14.7-14.1
		c2.9,0,5.5,0.7,6.9,1.4l-1.1,3.7c-1.2-0.7-3-1.3-5.7-1.3c-6.2,0-9.6,4.5-9.6,10.1c0,6.2,4,10,9.4,10c2.8,0,4.7-0.7,6.1-1.3
		L1018.2,217z"/>
	<path fill="#808285" d="M1024,178.9l5,0l-0.1,39.1l-5,0L1024,178.9z"/>
	<path fill="#808285" d="M1042.8,183.9c0.1,1.7-1.2,3-3.2,3c-1.7,0-3-1.3-3-3c0-1.7,1.3-3,3.1-3
		C1041.6,180.9,1042.8,182.2,1042.8,183.9z M1037.2,218l0-26.6l5,0l0,26.6L1037.2,218z"/>
	<path fill="#808285" d="M1069.8,217.1c-1.3,0.7-4.2,1.5-7.8,1.5c-8.2,0-13.6-5.5-13.5-13.6c0-8.2,5.8-14.1,14.7-14.1
		c2.9,0,5.5,0.7,6.9,1.4l-1.1,3.7c-1.2-0.7-3-1.3-5.7-1.3c-6.2,0-9.6,4.5-9.6,10.1c0,6.2,4,10,9.4,10c2.8,0,4.7-0.7,6.1-1.3
		L1069.8,217.1z"/>
	<path fill="#808285" d="M1080.5,203.7l0.1,0c0.7-0.9,1.6-2.1,2.4-3l8-9.2l6,0l-10.5,10.9l12,15.7l-6,0l-9.4-12.8l-2.5,2.7l0,10
		l-4.9,0l0.1-39.1l4.9,0L1080.5,203.7z"/>
	<path fill="#808285" d="M1112.8,179.9c-4.1,5.4-7.1,12.5-7.1,22.5c0,9.8,3.1,16.8,7.1,22.4l-3.9,0c-3.5-4.6-7.4-11.6-7.3-22.4
		c0.1-10.8,3.9-17.9,7.4-22.5L1112.8,179.9z"/>
	<path fill="#808285" d="M1115,224.8c4-5.4,7.1-12.6,7.1-22.5c0-9.9-3-16.9-7.1-22.4l3.8,0c3.6,4.5,7.4,11.6,7.3,22.4
		c0,10.8-3.8,17.8-7.4,22.4L1115,224.8z"/>
	<path fill="#808285" d="M-2,248.1l0,7.7l7.1,0l0,3.7l-7.1,0l0,14.4c0,3.3,0.9,5.2,3.7,5.2c1.3,0,2.3-0.2,2.9-0.3l0.2,3.6
		c-1,0.4-2.5,0.7-4.4,0.7c-2.3,0-4.2-0.7-5.3-2c-1.4-1.4-1.9-3.8-1.9-6.9l0-14.5l-4.2,0l0-3.7l4.2,0l0-6.4L-2,248.1z"/>
	<path fill="#808285" d="M16.2,248.3c0.1,1.7-1.2,3-3.2,3c-1.7,0-3-1.3-3-3c0-1.7,1.3-3,3.1-3C15,245.2,16.2,246.5,16.2,248.3z
		 M10.6,282.4l0-26.6l5,0l0,26.6L10.6,282.4z"/>
	<path fill="#808285" d="M23.8,263c0-2.8,0-5-0.2-7.2l4.3,0l0.2,4.3l0.2,0c1.5-2.5,4.1-4.9,8.6-4.9c3.7,0,6.5,2.2,7.7,5.4l0.1,0
		c0.8-1.5,1.9-2.6,3-3.5c1.6-1.2,3.4-1.9,6-1.9c3.6,0,8.9,2.3,8.9,11.6l0,15.7l-4.8,0l0-15.1c0-5.1-1.9-8.2-5.9-8.2
		c-2.8,0-5,2-5.9,4.4c-0.2,0.7-0.4,1.5-0.4,2.4l0,16.5l-4.8,0l0-16c0-4.2-1.9-7.3-5.7-7.3c-3.1,0-5.4,2.4-6.1,4.8
		c-0.3,0.7-0.4,1.5-0.4,2.4l0,16.1l-4.8,0L23.8,263z"/>
	<path fill="#808285" d="M73.5,270c0.1,6.6,4.4,9.3,9.3,9.3c3.5,0,5.7-0.6,7.5-1.4l0.8,3.5c-1.7,0.8-4.7,1.6-9.1,1.6
		c-8.4,0-13.4-5.4-13.4-13.5c0-8,4.9-14.4,12.8-14.3c8.9,0,11.2,7.7,11.2,12.6c0,1-0.1,1.8-0.2,2.3L73.5,270z M88,266.6
		c0.1-3.1-1.3-7.9-6.9-7.9c-5,0-7.2,4.5-7.6,7.9L88,266.6z"/>
	<path fill="#808285" d="M97,279.7c0-2,1.4-3.5,3.4-3.5c2,0,3.3,1.4,3.3,3.5c0,2-1.3,3.5-3.4,3.5C98.4,283.1,97,281.6,97,279.7z"/>
	<path fill="#808285" d="M109.2,277.6c1.5,0.9,4,1.9,6.5,1.9c3.6,0,5.3-1.8,5.3-4c0-2.3-1.4-3.6-5.1-4.9c-4.9-1.7-7.2-4.4-7.2-7.6
		c0-4.3,3.6-7.8,9.4-7.8c2.8,0,5.2,0.8,6.7,1.7l-1.2,3.5c-1.1-0.7-3-1.5-5.6-1.6c-2.9,0-4.6,1.6-4.6,3.6c0,2.2,1.6,3.2,5.2,4.5
		c4.7,1.8,7.1,4.1,7.1,8c0,4.7-3.7,8-10.2,8c-3,0-5.7-0.7-7.7-1.8L109.2,277.6z"/>
	<path fill="#808285" d="M132.2,243.5l5,0l-0.1,39.1l-5,0L132.2,243.5z"/>
	<path fill="#808285" d="M148.2,270.2c0.1,6.6,4.4,9.3,9.3,9.3c3.5,0,5.7-0.6,7.5-1.4l0.8,3.5c-1.7,0.8-4.7,1.6-9.1,1.6
		c-8.4,0-13.4-5.4-13.4-13.5c0-8,4.9-14.4,12.8-14.3c8.9,0,11.2,7.7,11.2,12.6c0,1-0.1,1.8-0.2,2.3L148.2,270.2z M162.7,266.7
		c0.1-3.1-1.3-7.9-6.9-7.9c-5,0-7.2,4.5-7.6,7.9L162.7,266.7z"/>
	<path fill="#808285" d="M176.4,270.2c0.1,6.6,4.4,9.3,9.3,9.3c3.5,0,5.7-0.6,7.5-1.4l0.8,3.5c-1.7,0.8-4.7,1.6-9.1,1.6
		c-8.4,0-13.4-5.4-13.4-13.5c0-8,4.9-14.4,12.8-14.3c8.9,0,11.2,7.7,11.2,12.6c0,1-0.1,1.8-0.2,2.3L176.4,270.2z M190.9,266.8
		c0.1-3.1-1.3-7.9-6.9-7.9c-5,0-7.2,4.5-7.6,7.9L190.9,266.8z"/>
	<path fill="#808285" d="M201.8,264.7c0-3.4-0.1-6.2-0.2-8.7l4.4,0l0.2,4.6l0.1,0c2-3.2,5.2-5.2,9.7-5.2c6.6,0,11.5,5.5,11.5,13.6
		c0,9.6-6,14.3-12.4,14.3c-3.6,0-6.8-1.6-8.4-4.2l-0.1,0l0,14.5l-4.9,0L201.8,264.7z M206.7,271.9c0,0.7,0.1,1.4,0.2,2
		c0.9,3.4,3.9,5.7,7.4,5.7c5.2,0,8.3-4.2,8.3-10.3c0-5.3-2.9-9.9-8.1-9.9c-3.4,0-6.5,2.4-7.5,6c-0.2,0.6-0.3,1.3-0.3,2L206.7,271.9z
		"/>
	<path fill="#808285" d="M244.6,244.6c-4.1,5.4-7.1,12.5-7.1,22.5c0,9.8,3.1,16.8,7.1,22.4l-3.9,0c-3.5-4.6-7.4-11.6-7.3-22.4
		c0.1-10.8,3.9-17.9,7.4-22.5L244.6,244.6z"/>
	<path fill="#808285" d="M248.2,282.8l0-3l3.9-3.7c9.4-8.7,13.6-13.3,13.6-18.7c0-3.6-1.8-7-7.2-7c-3.3,0-6.1,1.6-7.8,3l-1.6-3.4
		c2.5-2.1,6.1-3.6,10.4-3.6c7.9,0,11.2,5.3,11.2,10.4c0,6.6-4.9,11.9-12.6,19.2l-2.9,2.6l0,0.1l16.4,0l0,4L248.2,282.8z"/>
	<path fill="#808285" d="M275.7,289.5c4-5.4,7.1-12.6,7.1-22.5c0-9.9-3-16.9-7.1-22.4l3.8,0c3.6,4.5,7.4,11.6,7.3,22.4
		c0,10.8-3.8,17.8-7.4,22.4L275.7,289.5z"/>
	<path fill="#808285" d="M15.5,309.3l-0.1,32.2c0,2.4,0,5.1,0.2,6.9l-4.4,0l-0.2-4.6l-0.1,0c-1.5,3-4.8,5.2-9.3,5.2
		c-6.6,0-11.6-5.5-11.6-13.6c0-8.9,5.6-14.3,12.2-14.3c4.2,0,7,1.9,8.2,4.1l0.1,0l0-15.9L15.5,309.3z M10.5,332.6
		c0-0.6-0.1-1.4-0.2-2c-0.7-3.1-3.4-5.6-7.1-5.6c-5.1,0-8.2,4.4-8.2,10.3c0,5.4,2.7,9.9,8,9.9c3.3,0,6.4-2.1,7.3-5.8
		c0.2-0.7,0.2-1.3,0.2-2.1L10.5,332.6z"/>
	<path fill="#808285" d="M23.6,330.1c0-3.1,0-5.8-0.2-8.3l4.3,0l0.2,5.2l0.2,0c1.2-3.6,4.2-5.8,7.6-5.8c0.6,0,1,0.1,1.4,0.2l0,4.6
		c-0.5-0.1-1-0.2-1.7-0.2c-3.5,0-6,2.6-6.7,6.2c-0.1,0.7-0.2,1.4-0.2,2.3l0,14.2l-4.9,0L23.6,330.1z"/>
	<path fill="#808285" d="M47.8,314.4c0.1,1.7-1.2,3-3.2,3c-1.7,0-3-1.3-3-3c0-1.7,1.3-3,3.1-3C46.6,311.3,47.8,312.6,47.8,314.4z
		 M42.2,348.5l0-26.6l5,0l0,26.6L42.2,348.5z"/>
	<path fill="#808285" d="M57.4,321.9l5.3,15c0.9,2.4,1.6,4.6,2.2,6.8l0.2,0c0.6-2.2,1.4-4.4,2.3-6.8l5.3-15l5.2,0l-10.7,26.6l-4.7,0
		l-10.3-26.7L57.4,321.9z"/>
	<path fill="#808285" d="M84.7,336.1c0.1,6.6,4.4,9.3,9.3,9.3c3.5,0,5.7-0.6,7.5-1.4l0.8,3.5c-1.7,0.8-4.7,1.6-9.1,1.6
		c-8.4,0-13.4-5.4-13.4-13.5s4.9-14.4,12.8-14.3c8.9,0,11.2,7.7,11.2,12.6c0,1-0.1,1.8-0.2,2.3L84.7,336.1z M99.2,332.7
		c0.1-3.1-1.3-7.9-6.9-7.9c-5,0-7.2,4.5-7.6,7.9L99.2,332.7z"/>
	<path fill="#808285" d="M110.1,330.3c0-3.1,0-5.8-0.2-8.3l4.3,0l0.2,5.2l0.2,0c1.2-3.6,4.2-5.8,7.6-5.8c0.6,0,1,0.1,1.4,0.2l0,4.6
		c-0.5-0.1-1-0.2-1.7-0.2c-3.5,0-6,2.6-6.7,6.2c-0.1,0.7-0.2,1.4-0.2,2.3l0,14.2l-4.9,0L110.1,330.3z"/>
	<path fill="#808285" d="M124.3,345.7c0-2,1.4-3.5,3.4-3.5c2,0,3.3,1.4,3.3,3.5c0,2-1.3,3.5-3.4,3.5
		C125.7,349.2,124.3,347.7,124.3,345.7z"/>
	<path fill="#808285" d="M137.7,348.6l0-23l-3.8,0l0-3.7l3.8,0l0-1.4c0-7,4.2-11.6,11.9-11.6c2.5,0,5.5,0.8,6.9,1.8l-1.4,3.7
		c-1.2-0.8-3.3-1.5-5.7-1.6c-5.2,0-6.8,3.6-6.8,7.8l0,1.3l15.8,0l0,26.6l-4.9,0l0-23l-10.9,0l0,23L137.7,348.6z"/>
	<path fill="#808285" d="M166.6,329.2c0-2.8,0-5-0.2-7.2l4.4,0l0.3,4.4l0.1,0c1.4-2.5,4.5-5,9-5c3.8,0,9.6,2.2,9.6,11.4l0,15.9l-5,0
		l0-15.4c0-4.3-1.6-7.9-6.3-7.9c-3.3,0-5.8,2.2-6.6,4.9c-0.2,0.6-0.3,1.4-0.3,2.3l0,16l-5,0L166.6,329.2z"/>
	<path fill="#808285" d="M221.4,309.7l-0.1,32.2c0,2.4,0,5.1,0.2,6.9l-4.4,0l-0.2-4.6l-0.1,0c-1.5,3-4.8,5.2-9.3,5.2
		c-6.6,0-11.6-5.5-11.6-13.6c0-8.9,5.6-14.3,12.2-14.3c4.2,0,7,1.9,8.2,4.1l0.1,0l0-15.9L221.4,309.7z M216.4,333
		c0-0.6-0.1-1.4-0.2-2c-0.7-3.1-3.4-5.6-7.1-5.6c-5.1,0-8.2,4.4-8.2,10.3c0,5.4,2.7,9.9,8,9.9c3.3,0,6.4-2.1,7.3-5.8
		c0.2-0.7,0.2-1.3,0.2-2.1L216.4,333z"/>
	<path fill="#808285" d="M253.6,352.9l0,2.8l-28.1,0l0-2.8L253.6,352.9z"/>
	<path fill="#808285" d="M260.5,336.4c0.1,6.6,4.4,9.3,9.3,9.3c3.5,0,5.7-0.6,7.5-1.4l0.8,3.5c-1.7,0.8-4.7,1.6-9.1,1.6
		c-8.4,0-13.4-5.4-13.4-13.5s4.9-14.4,12.8-14.3c8.9,0,11.2,7.7,11.2,12.6c0,1-0.1,1.8-0.2,2.3L260.5,336.4z M275,332.9
		c0.1-3.1-1.3-7.9-6.9-7.9c-5,0-7.2,4.5-7.6,7.9L275,332.9z"/>
	<path fill="#808285" d="M285.9,309.8l5,0l-0.1,39.1l-5,0L285.9,309.8z"/>
	<path fill="#808285" d="M301.9,336.5c0.1,6.6,4.4,9.3,9.3,9.3c3.5,0,5.7-0.6,7.5-1.4l0.8,3.5c-1.7,0.8-4.7,1.6-9.1,1.6
		c-8.4,0-13.4-5.4-13.4-13.5s4.9-14.4,12.8-14.3c8.9,0,11.2,7.7,11.2,12.6c0,1-0.1,1.8-0.2,2.3L301.9,336.5z M316.5,333
		c0.1-3.1-1.3-7.9-6.9-7.9c-5,0-7.2,4.5-7.6,7.9L316.5,333z"/>
	<path fill="#808285" d="M327.4,329.5c0-2.8,0-5-0.2-7.2l4.3,0l0.2,4.3l0.2,0c1.5-2.5,4.1-4.9,8.6-4.9c3.7,0,6.5,2.2,7.7,5.4l0.1,0
		c0.8-1.5,1.9-2.6,3-3.5c1.6-1.2,3.4-1.9,6-1.9c3.6,0,8.9,2.3,8.9,11.6l0,15.7l-4.8,0l0-15.1c0-5.1-1.9-8.2-5.9-8.2
		c-2.8,0-5,2-5.9,4.4c-0.2,0.7-0.4,1.5-0.4,2.4l0,16.5l-4.8,0l0-16c0-4.2-1.9-7.3-5.7-7.3c-3.1,0-5.4,2.4-6.1,4.8
		c-0.3,0.7-0.4,1.5-0.4,2.4l0,16.1l-4.8,0L327.4,329.5z"/>
	<path fill="#808285" d="M377.1,336.6c0.1,6.6,4.4,9.3,9.3,9.3c3.5,0,5.7-0.6,7.5-1.4l0.8,3.5c-1.7,0.8-4.7,1.6-9.1,1.6
		c-8.4,0-13.4-5.4-13.4-13.5s4.9-14.4,12.8-14.3c8.9,0,11.2,7.7,11.2,12.6c0,1-0.1,1.8-0.2,2.3L377.1,336.6z M391.6,333.1
		c0.1-3.1-1.3-7.9-6.9-7.9c-5,0-7.2,4.5-7.6,7.9L391.6,333.1z"/>
	<path fill="#808285" d="M402.5,329.6c0-2.8,0-5-0.2-7.2l4.4,0l0.3,4.4l0.1,0c1.4-2.5,4.5-5,9-5c3.8,0,9.6,2.2,9.6,11.4l0,15.9l-5,0
		l0-15.4c0-4.3-1.6-7.9-6.3-7.9c-3.3,0-5.8,2.2-6.6,4.9c-0.2,0.6-0.3,1.4-0.3,2.3l0,16l-5,0L402.5,329.6z"/>
	<path fill="#808285" d="M439.5,314.8l0,7.7l7.1,0l0,3.7l-7.1,0l0,14.4c0,3.3,0.9,5.2,3.7,5.2c1.3,0,2.3-0.2,2.9-0.3l0.2,3.6
		c-1,0.4-2.5,0.7-4.4,0.7c-2.3,0-4.2-0.7-5.3-2c-1.4-1.4-1.9-3.8-1.9-6.9l0-14.5l-4.2,0l0-3.7l4.2,0l0-6.4L439.5,314.8z"/>
	<path fill="#808285" d="M476.1,353.3l0,2.8l-28.1,0l0-2.8L476.1,353.3z"/>
	<path fill="#808285" d="M480,349.2c0.1-1.8,0.2-4.5,0.2-6.9l0.1-32.2l4.9,0l0,16.7l0.1,0c1.7-3,4.9-4.9,9.3-4.9
		c6.8,0,11.5,5.5,11.5,13.6c0,9.5-6.2,14.2-12.2,14.2c-3.9,0-7.1-1.5-9.1-5l-0.2,0l-0.2,4.4L480,349.2z M485.2,338.5
		c0,0.6,0.1,1.2,0.2,1.8c1,3.4,3.8,5.7,7.4,5.7c5.2,0,8.3-4.1,8.3-10.2c0-5.3-2.8-9.9-8.1-9.9c-3.4,0-6.5,2.2-7.6,5.9
		c-0.1,0.6-0.3,1.2-0.3,2L485.2,338.5z"/>
	<path fill="#808285" d="M513.7,322.6l5.9,15.8c0.6,1.8,1.3,3.9,1.7,5.5l0.1,0c0.5-1.6,1.1-3.6,1.8-5.6l5.4-15.6l5.2,0l-7.5,19
		c-3.6,9.1-6,13.8-9.4,16.7c-2.4,2.1-4.8,2.9-6.1,3.1l-1.2-4.1c1.2-0.4,2.9-1.2,4.3-2.4c1.4-1,3-2.9,4.2-5.4
		c0.2-0.5,0.4-0.9,0.4-1.2c0-0.3-0.1-0.7-0.3-1.3l-10-24.6L513.7,322.6z"/>
	<path fill="#808285" d="M562.4,353.5l0,2.8l-28.1,0l0-2.8L562.4,353.5z"/>
	<path fill="#808285" d="M566.5,329.9c0-2.8,0-5-0.2-7.2l4.4,0l0.3,4.4l0.1,0c1.4-2.5,4.5-5,9-5c3.8,0,9.6,2.2,9.6,11.4l0,15.9l-5,0
		l0-15.4c0-4.3-1.6-7.9-6.3-7.9c-3.3,0-5.8,2.2-6.6,4.9c-0.2,0.6-0.3,1.4-0.3,2.3l0,16l-5,0L566.5,329.9z"/>
	<path fill="#808285" d="M612.8,349.4l-0.4-3.4l-0.2,0c-1.5,2.1-4.5,4-8.3,3.9c-5.5,0-8.3-3.8-8.3-7.7c0-6.4,5.9-10,16.4-9.9l0-0.6
		c0-2.2-0.6-6.2-6.2-6.2c-2.5,0-5.2,0.8-7.1,2l-1.1-3.2c2.3-1.4,5.5-2.4,9-2.4c8.3,0,10.3,5.6,10.3,10.9l0,10c0,2.3,0.1,4.6,0.4,6.4
		L612.8,349.4z M612.1,335.8c-5.4-0.1-11.5,0.8-11.5,6c0,3.1,2.1,4.6,4.7,4.6c3.5,0,5.8-2.2,6.6-4.4c0.2-0.5,0.3-1,0.3-1.5
		L612.1,335.8z"/>
	<path fill="#808285" d="M624.9,330c0-2.8,0-5-0.2-7.2l4.3,0l0.2,4.3l0.2,0c1.5-2.5,4.1-4.9,8.6-4.9c3.7,0,6.5,2.2,7.7,5.4l0.1,0
		c0.8-1.5,1.9-2.6,3-3.5c1.6-1.2,3.4-1.9,6-1.9c3.6,0,8.9,2.3,8.9,11.6l0,15.7l-4.8,0l0-15.1c0-5.1-1.9-8.2-5.9-8.2
		c-2.8,0-5,2-5.9,4.4c-0.2,0.7-0.4,1.5-0.4,2.4l0,16.5l-4.8,0l0-16c0-4.2-1.9-7.3-5.7-7.3c-3.1,0-5.4,2.4-6.1,4.8
		c-0.3,0.7-0.4,1.5-0.4,2.4l0,16.1l-4.8,0L624.9,330z"/>
	<path fill="#808285" d="M674.6,337.1c0.1,6.6,4.4,9.3,9.3,9.3c3.5,0,5.7-0.6,7.5-1.4l0.8,3.5c-1.7,0.8-4.7,1.6-9.1,1.6
		c-8.4,0-13.4-5.4-13.4-13.5s4.9-14.4,12.8-14.3c8.9,0,11.2,7.7,11.2,12.6c0,1-0.1,1.8-0.2,2.3L674.6,337.1z M689.1,333.6
		c0.1-3.1-1.3-7.9-6.9-7.9c-5,0-7.2,4.5-7.6,7.9L689.1,333.6z"/>
	<path fill="#808285" d="M710.8,311.4c-4.1,5.4-7.1,12.5-7.1,22.5c0,9.8,3.1,16.8,7.1,22.4l-3.9,0c-3.5-4.6-7.4-11.6-7.3-22.4
		c0.1-10.8,3.9-17.9,7.4-22.5L710.8,311.4z"/>
	<path fill="#808285" d="M719.7,311.9l-1,13.2l-3,0l-0.9-13.2L719.7,311.9z"/>
	<path fill="#808285" d="M726.6,331.7c0-3.4-0.1-6.2-0.2-8.7l4.4,0l0.2,4.6l0.1,0c2-3.2,5.2-5.2,9.7-5.2c6.6,0,11.5,5.5,11.5,13.6
		c0,9.6-6,14.3-12.4,14.3c-3.6,0-6.7-1.6-8.4-4.2l-0.1,0l0,14.5l-4.9,0L726.6,331.7z M731.5,338.8c0,0.7,0.1,1.4,0.2,2
		c0.9,3.4,3.9,5.7,7.4,5.7c5.2,0,8.3-4.2,8.3-10.3c0-5.3-2.9-9.9-8.1-9.9c-3.4,0-6.5,2.4-7.5,6c-0.2,0.6-0.3,1.3-0.3,2L731.5,338.8z
		"/>
	<path fill="#808285" d="M773.6,349.7l-0.4-3.4l-0.2,0c-1.5,2.1-4.5,4-8.3,3.9c-5.5,0-8.3-3.8-8.3-7.7c0-6.4,5.9-10,16.4-9.9l0-0.6
		c0-2.2-0.6-6.2-6.2-6.2c-2.5,0-5.2,0.8-7.1,2l-1.1-3.2c2.3-1.4,5.5-2.4,9-2.4c8.3,0,10.3,5.6,10.3,10.9l0,10c0,2.3,0.1,4.6,0.4,6.4
		L773.6,349.7z M772.9,336.1c-5.4-0.1-11.5,0.8-11.5,6c0,3.1,2.1,4.6,4.7,4.6c3.5,0,5.8-2.2,6.6-4.4c0.2-0.5,0.3-1,0.3-1.5
		L772.9,336.1z"/>
	<path fill="#808285" d="M785,344.7c1.5,0.9,4,1.9,6.5,1.9c3.6,0,5.3-1.8,5.3-4c0-2.3-1.4-3.6-5.1-4.9c-4.9-1.7-7.2-4.4-7.2-7.6
		c0-4.3,3.6-7.8,9.4-7.8c2.8,0,5.2,0.8,6.7,1.7l-1.2,3.5c-1.1-0.7-3-1.5-5.6-1.6c-2.9,0-4.6,1.6-4.6,3.6c0,2.2,1.6,3.2,5.2,4.5
		c4.7,1.8,7.1,4.1,7.1,8c0,4.7-3.7,8-10.2,8c-3,0-5.7-0.7-7.7-1.8L785,344.7z"/>
	<path fill="#808285" d="M807.3,344.8c1.5,0.9,4,1.9,6.5,1.9c3.6,0,5.3-1.8,5.3-4c0-2.3-1.4-3.6-5.1-4.9c-4.9-1.7-7.2-4.4-7.2-7.6
		c0-4.3,3.6-7.8,9.4-7.8c2.8,0,5.2,0.8,6.7,1.7l-1.2,3.5c-1.1-0.7-3-1.5-5.6-1.6c-2.9,0-4.6,1.6-4.6,3.6c0,2.2,1.6,3.2,5.2,4.5
		c4.7,1.8,7.1,4.1,7.1,8c0,4.7-3.7,8-10.2,8c-3,0-5.7-0.7-7.7-1.8L807.3,344.8z"/>
	<path fill="#808285" d="M832.3,323.1l3.6,13.5c0.8,3,1.5,5.7,2,8.5l0.2,0c0.6-2.7,1.5-5.6,2.4-8.4l4.5-13.6l4.2,0l4.2,13.3
		c1,3.2,1.8,6,2.4,8.7l0.2,0c0.5-2.7,1.2-5.5,2.1-8.6l3.9-13.4l4.9,0l-8.8,26.6l-4.5,0l-4.1-12.7c-1-3-1.7-5.6-2.4-8.8l-0.1,0
		c-0.7,3.2-1.5,5.9-2.5,8.8l-4.4,12.7l-4.5,0l-8.2-26.7L832.3,323.1z"/>
	<path fill="#808285" d="M895.8,336.3c0,9.9-7,14.1-13.6,14.1c-7.4,0-13-5.3-13-13.7c0-8.9,6-14.1,13.5-14.1
		C890.5,322.6,895.8,328.2,895.8,336.3z M874.2,336.6c0,5.8,3.4,10.2,8.3,10.3c4.7,0,8.3-4.3,8.3-10.3c0-4.5-2.3-10.2-8.1-10.3
		C876.7,326.2,874.2,331.5,874.2,336.6z"/>
	<path fill="#808285" d="M902,331.6c0-3.1,0-5.8-0.2-8.3l4.3,0l0.2,5.2l0.2,0c1.2-3.6,4.2-5.8,7.6-5.8c0.6,0,1,0.1,1.4,0.2l0,4.6
		c-0.5-0.1-1-0.2-1.7-0.2c-3.5,0-6,2.6-6.7,6.2c-0.1,0.7-0.2,1.4-0.2,2.3l0,14.2l-4.9,0L902,331.6z"/>
	<path fill="#808285" d="M943.4,310.9l-0.1,32.2c0,2.4,0,5.1,0.2,6.9l-4.4,0l-0.2-4.6l-0.1,0c-1.5,3-4.8,5.2-9.3,5.2
		c-6.6,0-11.6-5.5-11.6-13.6c0-8.9,5.6-14.3,12.2-14.3c4.2,0,7,1.9,8.2,4.1l0.1,0l0-15.9L943.4,310.9z M938.4,334.1
		c0-0.6-0.1-1.4-0.2-2c-0.7-3.1-3.4-5.6-7.1-5.6c-5.1,0-8.2,4.4-8.2,10.3c0,5.4,2.7,9.9,8,9.9c3.3,0,6.4-2.1,7.3-5.8
		c0.2-0.7,0.2-1.3,0.2-2.1L938.4,334.1z"/>
	<path fill="#808285" d="M955.3,312.3l-1,13.2l-3,0l-0.9-13.2L955.3,312.3z"/>
	<path fill="#808285" d="M959.1,356.6c4-5.4,7.1-12.6,7.1-22.5c0-9.9-3-16.9-7.1-22.4l3.8,0c3.6,4.5,7.4,11.6,7.3,22.4
		c0,10.8-3.8,17.8-7.4,22.4L959.1,356.6z"/>
	<path fill="#808285" d="M976.9,347.1c0-2,1.4-3.5,3.4-3.5c2,0,3.3,1.4,3.3,3.5c0,2-1.3,3.5-3.4,3.5
		C978.3,350.6,976.9,349.1,976.9,347.1z"/>
	<path fill="#808285" d="M989.1,345.1c1.5,0.9,4,1.9,6.5,1.9c3.6,0,5.3-1.8,5.3-4c0-2.3-1.4-3.6-5.1-4.9c-4.9-1.7-7.2-4.4-7.2-7.6
		c0-4.3,3.6-7.8,9.4-7.8c2.8,0,5.2,0.8,6.7,1.7l-1.2,3.5c-1.1-0.7-3-1.5-5.6-1.6c-2.9,0-4.6,1.6-4.6,3.6c0,2.2,1.6,3.2,5.2,4.5
		c4.7,1.8,7.1,4.1,7.1,8c0,4.7-3.7,8-10.2,8c-3,0-5.7-0.7-7.7-1.8L989.1,345.1z"/>
	<path fill="#808285" d="M1014.8,337.6c0.1,6.6,4.4,9.3,9.3,9.3c3.5,0,5.7-0.6,7.5-1.4l0.8,3.5c-1.7,0.8-4.7,1.6-9.1,1.6
		c-8.4,0-13.4-5.4-13.4-13.5s4.9-14.4,12.8-14.3c8.9,0,11.2,7.7,11.2,12.6c0,1-0.1,1.8-0.2,2.3L1014.8,337.6z M1029.4,334.2
		c0.1-3.1-1.3-7.9-6.9-7.9c-5,0-7.2,4.5-7.6,7.9L1029.4,334.2z"/>
	<path fill="#808285" d="M1040.3,330.7c0-2.8,0-5-0.2-7.2l4.4,0l0.3,4.4l0.1,0c1.4-2.5,4.5-5,9-5c3.8,0,9.6,2.2,9.6,11.4l0,15.9
		l-5,0l0-15.4c0-4.3-1.6-7.9-6.3-7.9c-3.3,0-5.8,2.2-6.6,4.9c-0.2,0.6-0.3,1.4-0.3,2.3l0,16l-5,0L1040.3,330.7z"/>
	<path fill="#808285" d="M1095.1,311.1l-0.1,32.2c0,2.4,0,5.1,0.2,6.9l-4.4,0l-0.2-4.6l-0.1,0c-1.5,3-4.8,5.2-9.3,5.2
		c-6.6,0-11.6-5.5-11.6-13.6c0-8.9,5.6-14.3,12.2-14.3c4.2,0,7,1.9,8.2,4.1l0.1,0l0-15.9L1095.1,311.1z M1090.1,334.4
		c0-0.6-0.1-1.4-0.2-2c-0.7-3.1-3.4-5.6-7.1-5.6c-5.1,0-8.2,4.4-8.2,10.3c0,5.4,2.7,9.9,8,9.9c3.3,0,6.4-2.1,7.3-5.8
		c0.2-0.7,0.2-1.3,0.2-2.1L1090.1,334.4z"/>
	<path fill="#808285" d="M1127.2,354.4l0,2.8l-28.1,0l0-2.8L1127.2,354.4z"/>
	<path fill="#808285" d="M1136.3,335.8l0.1,0c0.7-0.9,1.6-2.1,2.4-3l8-9.2l6,0l-10.5,10.9l12,15.7l-6,0l-9.4-12.8l-2.5,2.7l0,10
		l-4.9,0l0.1-39.1l4.9,0L1136.3,335.8z"/>
	<path fill="#808285" d="M1160.5,337.9c0.1,6.6,4.4,9.3,9.3,9.3c3.5,0,5.7-0.6,7.5-1.4l0.8,3.5c-1.7,0.8-4.7,1.6-9.1,1.6
		c-8.4,0-13.4-5.4-13.4-13.5s4.9-14.4,12.8-14.3c8.9,0,11.2,7.7,11.2,12.6c0,1-0.1,1.8-0.2,2.3L1160.5,337.9z M1175,334.4
		c0.1-3.1-1.3-7.9-6.9-7.9c-5,0-7.2,4.5-7.6,7.9L1175,334.4z"/>
	<path fill="#808285" d="M1187.8,323.7l5.9,15.8c0.6,1.8,1.3,3.9,1.7,5.5l0.1,0c0.5-1.6,1.1-3.6,1.8-5.6l5.4-15.6l5.2,0l-7.5,19
		c-3.6,9.1-6,13.8-9.4,16.7c-2.4,2.1-4.8,2.9-6.1,3.1l-1.2-4.1c1.2-0.4,2.9-1.2,4.3-2.4c1.4-1,3-2.9,4.2-5.4
		c0.2-0.5,0.4-0.9,0.4-1.2c0-0.3-0.1-0.7-0.3-1.3l-10-24.6L1187.8,323.7z"/>
	<path fill="#808285" d="M1211.4,345.4c1.5,0.9,4,1.9,6.5,1.9c3.6,0,5.3-1.8,5.3-4c0-2.3-1.4-3.6-5.1-4.9c-4.9-1.7-7.2-4.4-7.2-7.6
		c0-4.3,3.6-7.8,9.4-7.8c2.8,0,5.2,0.8,6.7,1.7l-1.2,3.5c-1.1-0.7-3-1.5-5.6-1.6c-2.9,0-4.6,1.6-4.6,3.6c0,2.2,1.6,3.2,5.2,4.5
		c4.7,1.8,7.1,4.1,7.1,8c0,4.7-3.7,8-10.2,8c-3,0-5.7-0.7-7.7-1.8L1211.4,345.4z"/>
	<path fill="#808285" d="M1245.2,312.2c-4.1,5.4-7.1,12.5-7.1,22.5c0,9.8,3.1,16.8,7.1,22.4l-3.9,0c-3.5-4.6-7.4-11.6-7.3-22.4
		c0.1-10.8,3.9-17.9,7.4-22.5L1245.2,312.2z"/>
	<path fill="#808285" d="M1249.7,345.5c1.5,0.9,4,1.9,6.5,1.9c3.6,0,5.3-1.8,5.3-4c0-2.3-1.4-3.6-5.1-4.9c-4.9-1.7-7.2-4.4-7.2-7.6
		c0-4.3,3.6-7.8,9.4-7.8c2.8,0,5.2,0.8,6.7,1.7l-1.2,3.5c-1.1-0.7-3-1.5-5.6-1.6c-2.9,0-4.6,1.6-4.6,3.6c0,2.2,1.6,3.2,5.2,4.5
		c4.7,1.8,7.1,4.1,7.1,8c0,4.7-3.7,8-10.2,8c-3,0-5.7-0.7-7.7-1.8L1249.7,345.5z"/>
	<path fill="#808285" d="M1275.4,338.1c0.1,6.6,4.4,9.3,9.3,9.3c3.5,0,5.7-0.6,7.5-1.4l0.8,3.5c-1.7,0.8-4.7,1.6-9.1,1.6
		c-8.4,0-13.4-5.4-13.4-13.5s4.9-14.4,12.8-14.3c8.9,0,11.2,7.7,11.2,12.6c0,1-0.1,1.8-0.2,2.3L1275.4,338.1z M1289.9,334.6
		c0.1-3.1-1.3-7.9-6.9-7.9c-5,0-7.2,4.5-7.6,7.9L1289.9,334.6z"/>
	<path fill="#808285" d="M1300.9,331.1c0-2.8,0-5-0.2-7.2l4.4,0l0.3,4.4l0.1,0c1.4-2.5,4.5-5,9-5c3.8,0,9.6,2.2,9.6,11.4l0,15.9
		l-5,0l0-15.4c0-4.3-1.6-7.9-6.3-7.9c-3.3,0-5.8,2.2-6.6,4.9c-0.2,0.6-0.3,1.4-0.3,2.3l0,16l-5,0L1300.9,331.1z"/>
	<path fill="#808285" d="M1332.1,311.5l5,0l0,16.6l0.1,0c0.8-1.4,2-2.6,3.6-3.4c1.5-0.8,3.2-1.4,5.1-1.4c3.7,0,9.5,2.2,9.5,11.4
		l0,15.9l-5,0l0-15.3c0-4.3-1.6-7.9-6.3-7.9c-3.2,0-5.7,2.2-6.6,4.8c-0.3,0.7-0.3,1.4-0.3,2.3l0,16.1l-5,0L1332.1,311.5z"/>
	<path fill="#808285" d="M1378.4,350.7l-0.4-3.4l-0.2,0c-1.5,2.1-4.5,4-8.3,3.9c-5.5,0-8.3-3.8-8.3-7.7c0-6.4,5.9-10,16.4-9.9l0-0.6
		c0-2.2-0.6-6.2-6.2-6.2c-2.5,0-5.2,0.8-7.1,2l-1.1-3.2c2.3-1.4,5.5-2.4,9-2.4c8.3,0,10.3,5.6,10.3,10.9l0,10c0,2.3,0.1,4.6,0.4,6.4
		L1378.4,350.7z M1377.7,337.1c-5.4-0.1-11.5,0.8-11.5,6c0,3.1,2.1,4.6,4.7,4.6c3.5,0,5.8-2.2,6.6-4.4c0.2-0.5,0.3-1,0.3-1.5
		L1377.7,337.1z"/>
	<path fill="#808285" d="M1387.4,357.3c4-5.4,7.1-12.6,7.1-22.5c0-9.9-3-16.9-7.1-22.4l3.8,0c3.6,4.5,7.4,11.6,7.3,22.4
		c0,10.8-3.8,17.8-7.4,22.4L1387.4,357.3z"/>
	<path fill="#808285" d="M15.3,375.4l-0.1,32.2c0,2.4,0,5.1,0.2,6.9l-4.4,0l-0.2-4.6l-0.1,0c-1.5,3-4.8,5.2-9.3,5.2
		c-6.6,0-11.6-5.5-11.6-13.6c0-8.9,5.6-14.3,12.2-14.3c4.2,0,7,1.9,8.2,4.1l0.1,0l0-15.9L15.3,375.4z M10.4,398.7
		c0-0.6-0.1-1.4-0.2-2C9.4,393.6,6.7,391,3,391c-5.1,0-8.2,4.4-8.2,10.3c0,5.4,2.7,9.9,8,9.9c3.3,0,6.4-2.1,7.3-5.8
		c0.2-0.7,0.2-1.3,0.2-2.1L10.4,398.7z"/>
	<path fill="#808285" d="M23.5,396.2c0-3.1,0-5.8-0.2-8.3l4.3,0l0.2,5.2l0.2,0c1.2-3.6,4.2-5.8,7.6-5.8c0.6,0,1,0.1,1.4,0.2l0,4.6
		c-0.5-0.1-1-0.2-1.7-0.2c-3.5,0-6,2.6-6.7,6.2c-0.1,0.7-0.2,1.4-0.2,2.3l0,14.2l-4.9,0L23.5,396.2z"/>
	<path fill="#808285" d="M47.7,380.4c0.1,1.7-1.2,3-3.2,3c-1.7,0-3-1.3-3-3c0-1.7,1.3-3,3.1-3C46.5,377.4,47.7,378.7,47.7,380.4z
		 M42.1,414.5l0-26.6l5,0l0,26.6L42.1,414.5z"/>
	<path fill="#808285" d="M57.2,387.9l5.3,15c0.9,2.4,1.6,4.6,2.2,6.8l0.2,0c0.6-2.2,1.4-4.4,2.3-6.8l5.3-15l5.2,0L67,414.6l-4.7,0
		L52,387.9L57.2,387.9z"/>
	<path fill="#808285" d="M84.6,402.2c0.1,6.6,4.4,9.3,9.3,9.3c3.5,0,5.7-0.6,7.5-1.4l0.8,3.5c-1.7,0.8-4.7,1.6-9.1,1.6
		c-8.4,0-13.4-5.4-13.4-13.5c0-8,4.9-14.4,12.8-14.3c8.9,0,11.2,7.7,11.2,12.6c0,1-0.1,1.8-0.2,2.3L84.6,402.2z M99.1,398.7
		c0.1-3.1-1.3-7.9-6.9-7.9c-5,0-7.2,4.5-7.6,7.9L99.1,398.7z"/>
	<path fill="#808285" d="M110,396.3c0-3.1,0-5.8-0.2-8.3l4.3,0l0.2,5.2l0.2,0c1.2-3.6,4.2-5.8,7.6-5.8c0.6,0,1,0.1,1.4,0.2l0,4.6
		c-0.5-0.1-1-0.2-1.7-0.2c-3.5,0-6,2.6-6.7,6.2c-0.1,0.7-0.2,1.4-0.2,2.3l0,14.2l-4.9,0L110,396.3z"/>
	<path fill="#808285" d="M124.2,411.8c0-2,1.4-3.5,3.4-3.5c2,0,3.3,1.4,3.3,3.5c0,2-1.3,3.5-3.4,3.5
		C125.6,415.3,124.2,413.8,124.2,411.8z"/>
	<path fill="#808285" d="M137.6,414.7l0-23l-3.8,0l0-3.7l3.8,0l0-1.4c0-7,4.2-11.6,11.9-11.6c2.5,0,5.5,0.8,6.9,1.8l-1.4,3.7
		c-1.2-0.8-3.3-1.5-5.7-1.6c-5.2,0-6.8,3.6-6.8,7.8l0,1.3l15.8,0l0,26.6l-4.9,0l0-23l-10.9,0l0,23L137.6,414.7z"/>
	<path fill="#808285" d="M166.5,395.3c0-2.8,0-5-0.2-7.2l4.4,0l0.3,4.4l0.1,0c1.4-2.5,4.5-5,9-5c3.8,0,9.6,2.2,9.6,11.4l0,15.9l-5,0
		l0-15.4c0-4.3-1.6-7.9-6.3-7.9c-3.3,0-5.8,2.2-6.6,4.9c-0.2,0.6-0.3,1.4-0.3,2.3l0,16l-5,0L166.5,395.3z"/>
	<path fill="#808285" d="M221.3,375.7l-0.1,32.2c0,2.4,0,5.1,0.2,6.9l-4.4,0l-0.2-4.6l-0.1,0c-1.5,3-4.8,5.2-9.3,5.2
		c-6.6,0-11.6-5.5-11.6-13.6c0-8.9,5.6-14.3,12.2-14.3c4.2,0,7,1.9,8.2,4.1l0.1,0l0-15.9L221.3,375.7z M216.3,399
		c0-0.6-0.1-1.4-0.2-2c-0.7-3.1-3.4-5.6-7.1-5.6c-5.1,0-8.2,4.4-8.2,10.3c0,5.4,2.7,9.9,8,9.9c3.3,0,6.4-2.1,7.3-5.8
		c0.2-0.7,0.2-1.3,0.2-2.1L216.3,399z"/>
	<path fill="#808285" d="M253.5,419l0,2.8l-28.1,0l0-2.8L253.5,419z"/>
	<path fill="#808285" d="M260.4,402.4c0.1,6.6,4.4,9.3,9.3,9.3c3.5,0,5.7-0.6,7.5-1.4l0.8,3.5c-1.7,0.8-4.7,1.6-9.1,1.6
		c-8.4,0-13.4-5.4-13.4-13.5c0-8,4.9-14.4,12.8-14.3c8.9,0,11.2,7.7,11.2,12.6c0,1-0.1,1.8-0.2,2.3L260.4,402.4z M274.9,399
		c0.1-3.1-1.3-7.9-6.9-7.9c-5,0-7.2,4.5-7.6,7.9L274.9,399z"/>
	<path fill="#808285" d="M285.8,375.8l5,0l-0.1,39.1l-5,0L285.8,375.8z"/>
	<path fill="#808285" d="M301.8,402.5c0.1,6.6,4.4,9.3,9.3,9.3c3.5,0,5.7-0.6,7.5-1.4l0.8,3.5c-1.7,0.8-4.7,1.6-9.1,1.6
		c-8.4,0-13.4-5.4-13.4-13.5c0-8,4.9-14.4,12.8-14.3c8.9,0,11.2,7.7,11.2,12.6c0,1-0.1,1.8-0.2,2.3L301.8,402.5z M316.4,399.1
		c0.1-3.1-1.3-7.9-6.9-7.9c-5,0-7.2,4.5-7.6,7.9L316.4,399.1z"/>
	<path fill="#808285" d="M327.3,395.6c0-2.8,0-5-0.2-7.2l4.3,0l0.2,4.3l0.2,0c1.5-2.5,4.1-4.9,8.6-4.9c3.7,0,6.5,2.2,7.7,5.4l0.1,0
		c0.8-1.5,1.9-2.6,3-3.5c1.6-1.2,3.4-1.9,6-1.9c3.6,0,8.9,2.3,8.9,11.6l0,15.7l-4.8,0l0-15.1c0-5.1-1.9-8.2-5.9-8.2
		c-2.8,0-5,2-5.9,4.4c-0.2,0.7-0.4,1.5-0.4,2.4l0,16.5l-4.8,0l0-16c0-4.2-1.9-7.3-5.7-7.3c-3.1,0-5.4,2.4-6.1,4.8
		c-0.3,0.7-0.4,1.5-0.4,2.4l0,16.1l-4.8,0L327.3,395.6z"/>
	<path fill="#808285" d="M377,402.6c0.1,6.6,4.4,9.3,9.3,9.3c3.5,0,5.7-0.6,7.5-1.4l0.8,3.5c-1.7,0.8-4.7,1.6-9.1,1.6
		c-8.4,0-13.4-5.4-13.4-13.5c0-8,4.9-14.4,12.8-14.3c8.9,0,11.2,7.7,11.2,12.6c0,1-0.1,1.8-0.2,2.3L377,402.6z M391.5,399.2
		c0.1-3.1-1.3-7.9-6.9-7.9c-5,0-7.2,4.5-7.6,7.9L391.5,399.2z"/>
	<path fill="#808285" d="M402.4,395.7c0-2.8,0-5-0.2-7.2l4.4,0l0.3,4.4l0.1,0c1.4-2.5,4.5-5,9-5c3.8,0,9.6,2.2,9.6,11.4l0,15.9l-5,0
		l0-15.4c0-4.3-1.6-7.9-6.3-7.9c-3.3,0-5.8,2.2-6.6,4.9c-0.2,0.6-0.3,1.4-0.3,2.3l0,16l-5,0L402.4,395.7z"/>
	<path fill="#808285" d="M439.4,380.9l0,7.7l7.1,0l0,3.7l-7.1,0l0,14.4c0,3.3,0.9,5.2,3.7,5.2c1.3,0,2.3-0.2,2.9-0.3l0.2,3.6
		c-1,0.4-2.5,0.7-4.4,0.7c-2.3,0-4.2-0.7-5.3-2c-1.4-1.4-1.9-3.8-1.9-6.9l0-14.5l-4.2,0l0-3.7l4.2,0l0-6.4L439.4,380.9z"/>
	<path fill="#808285" d="M476,419.4l0,2.8l-28.1,0l0-2.8L476,419.4z"/>
	<path fill="#808285" d="M479.9,415.2c0.1-1.8,0.2-4.5,0.2-6.9l0.1-32.2l4.9,0l0,16.7l0.1,0c1.7-3,4.9-4.9,9.3-4.9
		c6.8,0,11.5,5.5,11.5,13.6c0,9.5-6.2,14.2-12.2,14.2c-3.9,0-7.1-1.5-9.1-5l-0.2,0l-0.2,4.4L479.9,415.2z M485,404.6
		c0,0.6,0.1,1.2,0.2,1.8c1,3.4,3.8,5.7,7.4,5.7c5.2,0,8.3-4.1,8.3-10.2c0-5.3-2.8-9.9-8.1-9.9c-3.4,0-6.5,2.2-7.6,5.9
		c-0.1,0.6-0.3,1.2-0.3,2L485,404.6z"/>
	<path fill="#808285" d="M513.6,388.7l5.9,15.8c0.6,1.8,1.3,3.9,1.7,5.5l0.1,0c0.5-1.6,1.1-3.6,1.8-5.6l5.4-15.6l5.2,0l-7.5,19
		c-3.6,9.1-6,13.8-9.4,16.7c-2.4,2.1-4.8,2.9-6.1,3.1l-1.2-4.1c1.2-0.4,2.9-1.2,4.3-2.4c1.4-1,3-2.9,4.2-5.4
		c0.2-0.5,0.4-0.9,0.4-1.2c0-0.3-0.1-0.7-0.3-1.3l-10-24.6L513.6,388.7z"/>
	<path fill="#808285" d="M562.3,419.5l0,2.8l-28.1,0l0-2.8L562.3,419.5z"/>
	<path fill="#808285" d="M572,381.3c0.1,1.7-1.2,3-3.2,3c-1.7,0-3-1.3-3-3c0-1.7,1.3-3,3.1-3C570.8,378.2,572,379.6,572,381.3z
		 M566.4,415.4l0-26.6l5,0l0,26.6L566.4,415.4z"/>
	<path fill="#808285" d="M603.1,376.4l-0.1,32.2c0,2.4,0,5.1,0.2,6.9l-4.4,0l-0.2-4.6l-0.1,0c-1.5,3-4.8,5.2-9.3,5.2
		c-6.6,0-11.6-5.5-11.6-13.6c0-8.9,5.6-14.3,12.2-14.3c4.2,0,7,1.9,8.2,4.1l0.1,0l0-15.9L603.1,376.4z M598.2,399.6
		c0-0.6-0.1-1.4-0.2-2c-0.7-3.1-3.4-5.6-7.1-5.6c-5.1,0-8.2,4.4-8.2,10.3c0,5.4,2.7,9.9,8,9.9c3.3,0,6.4-2.1,7.3-5.8
		c0.2-0.7,0.2-1.3,0.2-2.1L598.2,399.6z"/>
	<path fill="#808285" d="M622.1,377.3c-4.1,5.4-7.1,12.5-7.1,22.5c0,9.8,3.1,16.8,7.1,22.4l-3.9,0c-3.5-4.6-7.4-11.6-7.3-22.4
		c0.1-10.8,3.9-17.9,7.4-22.5L622.1,377.3z"/>
	<path fill="#808285" d="M631,377.8l-1,13.2l-3,0l-0.9-13.2L631,377.8z"/>
	<path fill="#808285" d="M637.9,397.6c0-3.4-0.1-6.2-0.2-8.7l4.4,0l0.2,4.6l0.1,0c2-3.2,5.2-5.2,9.7-5.2c6.6,0,11.5,5.5,11.5,13.6
		c0,9.6-6,14.3-12.4,14.3c-3.6,0-6.7-1.6-8.4-4.2l-0.1,0l0,14.5l-4.9,0L637.9,397.6z M642.8,404.7c0,0.7,0.1,1.4,0.2,2
		c0.9,3.4,3.9,5.7,7.4,5.7c5.2,0,8.3-4.2,8.3-10.3c0-5.3-2.9-9.9-8.1-9.9c-3.4,0-6.5,2.4-7.5,6c-0.2,0.6-0.3,1.3-0.3,2L642.8,404.7z
		"/>
	<path fill="#808285" d="M685,415.6l-0.4-3.4l-0.2,0c-1.5,2.1-4.5,4-8.3,3.9c-5.5,0-8.3-3.8-8.3-7.7c0-6.4,5.9-10,16.4-9.9l0-0.6
		c0-2.2-0.6-6.2-6.2-6.2c-2.5,0-5.2,0.8-7.1,2l-1.1-3.2c2.3-1.4,5.5-2.4,9-2.4c8.3,0,10.3,5.6,10.3,10.9l0,10c0,2.3,0.1,4.6,0.4,6.4
		L685,415.6z M684.2,402c-5.4-0.1-11.5,0.8-11.5,6c0,3.1,2.1,4.6,4.7,4.6c3.5,0,5.8-2.2,6.6-4.4c0.2-0.5,0.3-1,0.3-1.5L684.2,402z"
		/>
	<path fill="#808285" d="M696.3,410.6c1.5,0.9,4,1.9,6.5,1.9c3.6,0,5.3-1.8,5.3-4c0-2.3-1.4-3.6-5.1-4.9c-4.9-1.7-7.2-4.4-7.2-7.6
		c0-4.3,3.6-7.8,9.4-7.8c2.8,0,5.2,0.8,6.7,1.7l-1.2,3.5c-1.1-0.7-3-1.5-5.6-1.6c-2.9,0-4.6,1.6-4.6,3.6c0,2.2,1.6,3.2,5.2,4.5
		c4.7,1.8,7.1,4.1,7.1,8c0,4.7-3.7,8-10.2,8c-3,0-5.7-0.7-7.7-1.8L696.3,410.6z"/>
	<path fill="#808285" d="M718.6,410.7c1.5,0.9,4,1.9,6.5,1.9c3.6,0,5.3-1.8,5.3-4c0-2.3-1.4-3.6-5.1-4.9c-4.9-1.7-7.2-4.4-7.2-7.6
		c0-4.3,3.6-7.8,9.4-7.8c2.8,0,5.2,0.8,6.7,1.7l-1.2,3.5c-1.1-0.7-3-1.5-5.6-1.6c-2.9,0-4.6,1.6-4.6,3.6c0,2.2,1.6,3.2,5.2,4.5
		c4.7,1.8,7.1,4.1,7.1,8c0,4.7-3.7,8-10.2,8c-3,0-5.7-0.7-7.7-1.8L718.6,410.7z"/>
	<path fill="#808285" d="M743.6,389l3.6,13.5c0.8,3,1.5,5.7,2,8.5l0.2,0c0.6-2.7,1.5-5.6,2.4-8.4l4.5-13.6l4.2,0l4.2,13.3
		c1,3.2,1.8,6,2.4,8.7l0.2,0c0.5-2.7,1.2-5.5,2.1-8.6l3.9-13.4l4.9,0l-8.8,26.6l-4.5,0l-4.1-12.7c-1-3-1.7-5.6-2.4-8.8l-0.1,0
		c-0.7,3.2-1.5,5.9-2.5,8.8l-4.4,12.7l-4.5,0l-8.2-26.7L743.6,389z"/>
	<path fill="#808285" d="M807.1,402.2c0,9.9-7,14.1-13.6,14.1c-7.4,0-13-5.3-13-13.7c0-8.9,6-14.1,13.5-14.1
		C801.8,388.5,807.1,394.1,807.1,402.2z M785.5,402.5c0,5.8,3.4,10.2,8.3,10.3c4.7,0,8.3-4.3,8.3-10.3c0-4.5-2.3-10.2-8.1-10.3
		C788,392.1,785.5,397.4,785.5,402.5z"/>
	<path fill="#808285" d="M813.3,397.5c0-3.1,0-5.8-0.2-8.3l4.3,0l0.2,5.2l0.2,0c1.2-3.6,4.2-5.8,7.6-5.8c0.6,0,1,0.1,1.4,0.2l0,4.6
		c-0.5-0.1-1-0.2-1.7-0.2c-3.5,0-6,2.6-6.7,6.2c-0.1,0.7-0.2,1.4-0.2,2.3l0,14.2l-4.9,0L813.3,397.5z"/>
	<path fill="#808285" d="M854.7,376.8l-0.1,32.2c0,2.4,0,5.1,0.2,6.9l-4.4,0l-0.2-4.6l-0.1,0c-1.5,3-4.8,5.2-9.3,5.2
		c-6.6,0-11.6-5.5-11.6-13.6c0-8.9,5.6-14.3,12.2-14.3c4.2,0,7,1.9,8.2,4.1l0.1,0l0-15.9L854.7,376.8z M849.7,400
		c0-0.6-0.1-1.4-0.2-2c-0.7-3.1-3.4-5.6-7.1-5.6c-5.1,0-8.2,4.4-8.2,10.3c0,5.4,2.7,9.9,8,9.9c3.3,0,6.4-2.1,7.3-5.8
		c0.2-0.7,0.2-1.3,0.2-2.1L849.7,400z"/>
	<path fill="#808285" d="M863.1,415.9l0.1-37.1l5.3,0l12.1,18.8c2.8,4.4,5,8.3,6.8,12.1l0.1-0.1c-0.4-5-0.5-9.5-0.5-15.2l0-15.5
		l4.6,0l-0.1,37.1l-5,0l-12-18.8c-2.6-4.1-5.2-8.4-7.1-12.4l-0.2,0.1c0.3,4.7,0.4,9.1,0.4,15.3l0,15.9L863.1,415.9z"/>
	<path fill="#808285" d="M902.7,403.5c0.1,6.6,4.4,9.3,9.3,9.3c3.5,0,5.7-0.6,7.5-1.4l0.8,3.5c-1.7,0.8-4.7,1.6-9.1,1.6
		c-8.4,0-13.4-5.4-13.4-13.5c0-8,4.9-14.4,12.8-14.3c8.9,0,11.2,7.7,11.2,12.6c0,1-0.1,1.8-0.2,2.3L902.7,403.5z M917.2,400
		c0.1-3.1-1.3-7.9-6.9-7.9c-5,0-7.2,4.5-7.6,7.9L917.2,400z"/>
	<path fill="#808285" d="M930.3,389.3l3.9,5.7c1,1.5,1.9,2.9,2.7,4.4l0.2,0c0.9-1.6,1.8-3,2.7-4.4l3.8-5.7l5.3,0l-9.3,12.9l9.5,13.8
		l-5.6,0l-4-6c-1.1-1.5-2-3-2.9-4.6l-0.1,0c-0.9,1.6-1.9,3-2.9,4.6l-3.9,6l-5.5,0l9.7-13.6l-9.2-13.1L930.3,389.3z"/>
	<path fill="#808285" d="M960.7,381.7l0,7.7l7.1,0l0,3.7l-7.1,0l0,14.4c0,3.3,0.9,5.2,3.7,5.2c1.3,0,2.3-0.2,2.9-0.3l0.2,3.6
		c-1,0.4-2.5,0.7-4.4,0.7c-2.3,0-4.2-0.7-5.3-2c-1.4-1.4-1.9-3.8-1.9-6.9l0-14.5l-4.2,0l0-3.7l4.2,0l0-6.4L960.7,381.7z"/>
	<path fill="#808285" d="M977.1,378.3l-1,13.2l-3,0l-0.9-13.2L977.1,378.3z"/>
	<path fill="#808285" d="M980.9,422.7c4-5.4,7.1-12.6,7.1-22.5c0-9.9-3-16.9-7.1-22.4l3.8,0c3.6,4.5,7.4,11.6,7.3,22.4
		c0,10.8-3.8,17.8-7.4,22.4L980.9,422.7z"/>
	<path fill="#808285" d="M998.7,413.2c0-2,1.4-3.5,3.4-3.5c2,0,3.3,1.4,3.3,3.5c0,2-1.3,3.5-3.4,3.5
		C1000.1,416.7,998.7,415.2,998.7,413.2z"/>
	<path fill="#808285" d="M1031,415.2c-1.3,0.7-4.2,1.5-7.8,1.5c-8.2,0-13.6-5.5-13.5-13.6c0-8.2,5.8-14.1,14.7-14.1
		c2.9,0,5.5,0.7,6.9,1.4l-1.1,3.7c-1.2-0.7-3-1.3-5.7-1.3c-6.2,0-9.6,4.5-9.6,10.1c0,6.2,4,10,9.4,10c2.8,0,4.7-0.7,6.1-1.3
		L1031,415.2z"/>
	<path fill="#808285" d="M1036.8,377.1l5,0l-0.1,39.1l-5,0L1036.8,377.1z"/>
	<path fill="#808285" d="M1055.6,382.1c0.1,1.7-1.2,3-3.2,3c-1.7,0-3-1.3-3-3c0-1.7,1.3-3,3.1-3
		C1054.4,379,1055.6,380.4,1055.6,382.1z M1050,416.2l0-26.6l5,0l0,26.6L1050,416.2z"/>
	<path fill="#808285" d="M1082.6,415.2c-1.3,0.7-4.2,1.5-7.8,1.5c-8.2,0-13.6-5.5-13.5-13.6c0-8.2,5.8-14.1,14.7-14.1
		c2.9,0,5.5,0.7,6.9,1.4l-1.1,3.7c-1.2-0.7-3-1.3-5.7-1.3c-6.2,0-9.6,4.5-9.6,10.1c0,6.2,4,10,9.4,10c2.8,0,4.7-0.7,6.1-1.3
		L1082.6,415.2z"/>
	<path fill="#808285" d="M1093.3,401.8l0.1,0c0.7-0.9,1.6-2.1,2.4-3l8-9.2l6,0l-10.5,10.9l12,15.7l-6,0l-9.4-12.8l-2.5,2.7l0,10
		l-4.9,0l0.1-39.1l4.9,0L1093.3,401.8z"/>
	<path fill="#808285" d="M1125.6,378.1c-4.1,5.4-7.1,12.5-7.1,22.5c0,9.8,3.1,16.8,7.1,22.4l-3.9,0c-3.5-4.6-7.4-11.6-7.3-22.4
		c0.1-10.8,3.9-17.9,7.4-22.5L1125.6,378.1z"/>
	<path fill="#808285" d="M1127.8,423c4-5.4,7.1-12.6,7.1-22.5c0-9.9-3-16.9-7.1-22.4l3.8,0c3.6,4.5,7.4,11.6,7.3,22.4
		c0,10.8-3.8,17.8-7.4,22.4L1127.8,423z"/>
	<path fill="#808285" d="M-2.4,512.3l0,7.7l7.1,0l0,3.7l-7.1,0l0,14.4c0,3.3,0.9,5.2,3.7,5.2c1.3,0,2.3-0.2,2.9-0.3l0.2,3.6
		c-1,0.4-2.5,0.7-4.4,0.7c-2.3,0-4.2-0.7-5.3-2c-1.4-1.4-1.9-3.8-1.9-6.9l0-14.5l-4.2,0l0-3.7l4.2,0l0-6.4L-2.4,512.3z"/>
	<path fill="#808285" d="M15.7,512.4c0.1,1.7-1.2,3-3.2,3c-1.7,0-3-1.3-3-3c0-1.7,1.3-3,3.1-3C14.6,509.4,15.7,510.7,15.7,512.4z
		 M10.2,546.6l0-26.6l5,0l0,26.6L10.2,546.6z"/>
	<path fill="#808285" d="M23.4,527.2c0-2.8,0-5-0.2-7.2l4.3,0l0.2,4.3l0.2,0c1.5-2.5,4.1-4.9,8.6-4.9c3.7,0,6.5,2.2,7.7,5.4l0.1,0
		c0.8-1.5,1.9-2.6,3-3.5c1.6-1.2,3.4-1.9,6-1.9c3.6,0,8.9,2.3,8.9,11.6l0,15.7l-4.8,0l0-15.1c0-5.1-1.9-8.2-5.9-8.2
		c-2.8,0-5,2-5.9,4.4c-0.2,0.7-0.4,1.5-0.4,2.4l0,16.5l-4.8,0l0-16c0-4.2-1.9-7.3-5.7-7.3c-3.1,0-5.4,2.4-6.1,4.8
		c-0.3,0.7-0.4,1.5-0.4,2.4l0,16.1l-4.8,0L23.4,527.2z"/>
	<path fill="#808285" d="M73,534.2c0.1,6.5,4.4,9.3,9.3,9.3c3.5,0,5.7-0.6,7.5-1.4l0.8,3.5c-1.7,0.8-4.7,1.6-9.1,1.6
		c-8.4,0-13.4-5.4-13.4-13.5c0-8,4.9-14.4,12.8-14.3c8.9,0,11.2,7.7,11.2,12.6c0,1-0.1,1.8-0.2,2.3L73,534.2z M87.6,530.8
		c0.1-3.1-1.3-7.9-6.9-7.9c-5,0-7.2,4.5-7.6,7.9L87.6,530.8z"/>
	<path fill="#808285" d="M96.6,543.8c0-2,1.4-3.5,3.4-3.5s3.3,1.4,3.3,3.5c0,2-1.3,3.5-3.4,3.5C98,547.3,96.6,545.8,96.6,543.8z"/>
	<path fill="#808285" d="M108.8,541.8c1.5,0.9,4,1.9,6.5,1.9c3.6,0,5.3-1.8,5.3-4c0-2.3-1.4-3.6-5.1-4.9c-4.9-1.7-7.2-4.4-7.2-7.6
		c0-4.3,3.6-7.8,9.4-7.8c2.8,0,5.2,0.8,6.7,1.7l-1.2,3.5c-1.1-0.7-3-1.5-5.6-1.5c-2.9,0-4.6,1.6-4.6,3.6c0,2.2,1.6,3.2,5.2,4.5
		c4.7,1.8,7.1,4.1,7.1,8c0,4.7-3.7,8-10.2,8c-3,0-5.7-0.7-7.7-1.8L108.8,541.8z"/>
	<path fill="#808285" d="M131.8,507.7l5,0l-0.1,39.1l-5,0L131.8,507.7z"/>
	<path fill="#808285" d="M147.8,534.4c0.1,6.5,4.4,9.3,9.3,9.3c3.5,0,5.7-0.6,7.5-1.4l0.8,3.5c-1.7,0.8-4.7,1.6-9.1,1.6
		c-8.4,0-13.4-5.4-13.4-13.5c0-8,4.9-14.4,12.8-14.3c8.9,0,11.2,7.7,11.2,12.6c0,1-0.1,1.8-0.2,2.3L147.8,534.4z M162.3,530.9
		c0.1-3.1-1.3-7.9-6.9-7.9c-5,0-7.2,4.5-7.6,7.9L162.3,530.9z"/>
	<path fill="#808285" d="M176,534.4c0.1,6.5,4.4,9.3,9.3,9.3c3.5,0,5.7-0.6,7.5-1.4l0.8,3.5c-1.7,0.8-4.7,1.6-9.1,1.6
		c-8.4,0-13.4-5.4-13.4-13.5c0-8,4.9-14.4,12.8-14.3c8.9,0,11.2,7.7,11.2,12.6c0,1-0.1,1.8-0.2,2.3L176,534.4z M190.5,531
		c0.1-3.1-1.3-7.9-6.9-7.9c-5,0-7.2,4.5-7.6,7.9L190.5,531z"/>
	<path fill="#808285" d="M201.4,528.9c0-3.4-0.1-6.2-0.2-8.7l4.4,0l0.2,4.6l0.1,0c2-3.2,5.2-5.2,9.7-5.2c6.6,0,11.5,5.5,11.5,13.6
		c0,9.6-6,14.3-12.4,14.3c-3.6,0-6.8-1.6-8.4-4.2l-0.1,0l0,14.5l-4.9,0L201.4,528.9z M206.3,536c0,0.7,0.1,1.4,0.2,2
		c0.9,3.4,3.9,5.7,7.4,5.7c5.2,0,8.3-4.2,8.3-10.3c0-5.3-2.9-9.9-8.1-9.9c-3.4,0-6.5,2.4-7.5,6c-0.2,0.6-0.3,1.3-0.3,2L206.3,536z"
		/>
	<path fill="#808285" d="M244.2,508.8c-4.1,5.4-7.1,12.5-7.1,22.5c0,9.8,3.1,16.8,7.1,22.4l-3.9,0c-3.5-4.6-7.4-11.6-7.3-22.4
		c0.1-10.8,3.9-17.9,7.4-22.5L244.2,508.8z"/>
	<path fill="#808285" d="M269.7,515.3l-14,0l-1.4,9.2c0.8-0.1,1.6-0.2,3-0.2c2.8,0,5.6,0.6,7.9,1.9c2.9,1.6,5.2,4.7,5.2,9.2
		c0,7-5.7,12.2-13.6,12.2c-4,0-7.4-1.1-9.1-2.2l1.2-3.7c1.5,0.9,4.5,2,7.8,2c4.7,0,8.7-3,8.7-7.7c0-4.6-3.2-7.9-10.5-7.9
		c-2.1,0-3.7,0.2-5.1,0.4l2.4-17.2l17.5,0L269.7,515.3z"/>
	<path fill="#808285" d="M275.2,553.7c4-5.4,7.1-12.6,7.1-22.5c0-9.9-3-16.9-7.1-22.4l3.8,0c3.6,4.5,7.4,11.6,7.3,22.4
		c0,10.8-3.8,17.8-7.4,22.4L275.2,553.7z"/>
	<path fill="#808285" d="M15,573.5L15,605.7c0,2.4,0,5.1,0.2,6.9l-4.4,0l-0.2-4.6l-0.1,0c-1.5,3-4.8,5.2-9.3,5.2
		c-6.6,0-11.6-5.5-11.6-13.6c0-8.9,5.6-14.3,12.2-14.3c4.2,0,7,1.9,8.2,4.1l0.1,0l0-15.9L15,573.5z M10,596.8c0-0.6-0.1-1.4-0.2-2
		c-0.7-3.1-3.4-5.6-7.1-5.6c-5.1,0-8.2,4.4-8.2,10.3c0,5.4,2.7,9.9,8,9.9c3.3,0,6.4-2.1,7.3-5.8c0.2-0.7,0.2-1.3,0.2-2.1L10,596.8z"
		/>
	<path fill="#808285" d="M23.2,594.3c0-3.1,0-5.8-0.2-8.3l4.3,0l0.2,5.2l0.2,0c1.2-3.6,4.2-5.8,7.6-5.8c0.6,0,1,0.1,1.4,0.2l0,4.6
		c-0.5-0.1-1-0.2-1.7-0.2c-3.5,0-6,2.6-6.7,6.2c-0.1,0.7-0.2,1.4-0.2,2.3l0,14.2l-4.9,0L23.2,594.3z"/>
	<path fill="#808285" d="M47.4,578.5c0.1,1.7-1.2,3-3.2,3c-1.7,0-3-1.3-3-3c0-1.7,1.3-3,3.1-3C46.2,575.5,47.4,576.8,47.4,578.5z
		 M41.8,612.7l0-26.6l5,0l0,26.6L41.8,612.7z"/>
	<path fill="#808285" d="M56.9,586l5.3,15c0.9,2.4,1.6,4.6,2.2,6.8l0.2,0c0.6-2.2,1.4-4.4,2.3-6.8l5.3-15l5.2,0l-10.7,26.6l-4.7,0
		L51.6,586L56.9,586z"/>
	<path fill="#808285" d="M84.2,600.3c0.1,6.5,4.4,9.3,9.3,9.3c3.5,0,5.7-0.6,7.5-1.4l0.8,3.5c-1.7,0.8-4.7,1.6-9.1,1.6
		c-8.4,0-13.4-5.4-13.4-13.5c0-8,4.9-14.4,12.8-14.3c8.9,0,11.2,7.7,11.2,12.6c0,1-0.1,1.8-0.2,2.3L84.2,600.3z M98.8,596.9
		c0.1-3.1-1.3-7.9-6.9-7.9c-5,0-7.2,4.5-7.6,7.9L98.8,596.9z"/>
	<path fill="#808285" d="M109.7,594.4c0-3.1,0-5.8-0.2-8.3l4.3,0l0.2,5.2l0.2,0c1.2-3.6,4.2-5.8,7.6-5.8c0.6,0,1,0.1,1.4,0.2l0,4.6
		c-0.5-0.1-1-0.2-1.7-0.2c-3.5,0-6,2.6-6.7,6.2c-0.1,0.7-0.2,1.4-0.2,2.3l0,14.2l-4.9,0L109.7,594.4z"/>
	<path fill="#808285" d="M123.9,609.9c0-2,1.4-3.5,3.4-3.5s3.3,1.4,3.3,3.5c0,2-1.3,3.5-3.4,3.5
		C125.2,613.4,123.9,611.9,123.9,609.9z"/>
	<path fill="#808285" d="M137.2,612.8l0-23l-3.8,0l0-3.7l3.8,0l0-1.4c0-7,4.2-11.6,11.9-11.6c2.5,0,5.5,0.8,6.9,1.8l-1.4,3.7
		c-1.2-0.8-3.3-1.5-5.7-1.6c-5.2,0-6.8,3.6-6.8,7.8l0,1.3l15.8,0l0,26.6l-4.9,0l0-23l-10.9,0l0,23L137.2,612.8z"/>
	<path fill="#808285" d="M166.2,593.4c0-2.8,0-5-0.2-7.2l4.4,0l0.3,4.4l0.1,0c1.4-2.5,4.5-5,9-5c3.8,0,9.6,2.2,9.6,11.4l0,15.9l-5,0
		l0-15.4c0-4.3-1.6-7.9-6.3-7.9c-3.3,0-5.8,2.2-6.6,4.9c-0.2,0.6-0.3,1.4-0.3,2.3l0,16l-5,0L166.2,593.4z"/>
	<path fill="#808285" d="M221,573.9l-0.1,32.2c0,2.4,0,5.1,0.2,6.9l-4.4,0l-0.2-4.6l-0.1,0c-1.5,3-4.8,5.2-9.3,5.2
		c-6.6,0-11.6-5.5-11.6-13.6c0-8.9,5.6-14.3,12.2-14.3c4.2,0,7,1.9,8.2,4.1l0.1,0l0-15.9L221,573.9z M216,597.2c0-0.6-0.1-1.4-0.2-2
		c-0.7-3.1-3.4-5.6-7.1-5.6c-5.1,0-8.2,4.4-8.2,10.3c0,5.4,2.7,9.9,8,9.9c3.3,0,6.4-2.1,7.3-5.8c0.2-0.7,0.2-1.3,0.2-2.1L216,597.2z
		"/>
	<path fill="#808285" d="M253.1,617.1l0,2.8l-28.1,0l0-2.8L253.1,617.1z"/>
	<path fill="#808285" d="M260,600.6c0.1,6.5,4.4,9.3,9.3,9.3c3.5,0,5.7-0.6,7.5-1.4l0.8,3.5c-1.7,0.8-4.7,1.6-9.1,1.6
		c-8.4,0-13.4-5.4-13.4-13.5c0-8,4.9-14.4,12.8-14.3c8.9,0,11.2,7.7,11.2,12.6c0,1-0.1,1.8-0.2,2.3L260,600.6z M274.6,597.1
		c0.1-3.1-1.3-7.9-6.9-7.9c-5,0-7.2,4.5-7.6,7.9L274.6,597.1z"/>
	<path fill="#808285" d="M285.5,574l5,0l-0.1,39.1l-5,0L285.5,574z"/>
	<path fill="#808285" d="M301.5,600.7c0.1,6.5,4.4,9.3,9.3,9.3c3.5,0,5.7-0.6,7.5-1.4l0.8,3.5c-1.7,0.8-4.7,1.6-9.1,1.6
		c-8.4,0-13.4-5.4-13.4-13.5c0-8,4.9-14.4,12.8-14.3c8.9,0,11.2,7.7,11.2,12.6c0,1-0.1,1.8-0.2,2.3L301.5,600.7z M316,597.2
		c0.1-3.1-1.3-7.9-6.9-7.9c-5,0-7.2,4.5-7.6,7.9L316,597.2z"/>
	<path fill="#808285" d="M327,593.7c0-2.8,0-5-0.2-7.2l4.3,0l0.2,4.3l0.2,0c1.5-2.5,4.1-4.9,8.6-4.9c3.7,0,6.5,2.2,7.7,5.4l0.1,0
		c0.8-1.5,1.9-2.6,3-3.5c1.6-1.2,3.4-1.9,6-1.9c3.6,0,8.9,2.3,8.9,11.6l0,15.7l-4.8,0l0-15.1c0-5.1-1.9-8.2-5.9-8.2
		c-2.8,0-5,2-5.9,4.4c-0.2,0.7-0.4,1.5-0.4,2.4l0,16.5l-4.8,0l0-16c0-4.2-1.9-7.3-5.7-7.3c-3.1,0-5.4,2.4-6.1,4.8
		c-0.3,0.7-0.4,1.5-0.4,2.4l0,16.1l-4.8,0L327,593.7z"/>
	<path fill="#808285" d="M376.6,600.8c0.1,6.5,4.4,9.3,9.3,9.3c3.5,0,5.7-0.6,7.5-1.4l0.8,3.5c-1.7,0.8-4.7,1.6-9.1,1.6
		c-8.4,0-13.4-5.4-13.4-13.5c0-8,4.9-14.4,12.8-14.3c8.9,0,11.2,7.7,11.2,12.6c0,1-0.1,1.8-0.2,2.3L376.6,600.8z M391.2,597.3
		c0.1-3.1-1.3-7.9-6.9-7.9c-5,0-7.2,4.5-7.6,7.9L391.2,597.3z"/>
	<path fill="#808285" d="M402.1,593.8c0-2.8,0-5-0.2-7.2l4.4,0l0.3,4.4l0.1,0c1.4-2.5,4.5-5,9-5c3.8,0,9.6,2.2,9.6,11.4l0,15.9l-5,0
		l0-15.4c0-4.3-1.6-7.9-6.3-7.9c-3.3,0-5.8,2.2-6.6,4.9c-0.2,0.6-0.3,1.4-0.3,2.3l0,16l-5,0L402.1,593.8z"/>
	<path fill="#808285" d="M439.1,579l0,7.7l7.1,0l0,3.7l-7.1,0l0,14.4c0,3.3,0.9,5.2,3.7,5.2c1.3,0,2.3-0.2,2.9-0.3l0.2,3.6
		c-1,0.4-2.5,0.7-4.4,0.7c-2.3,0-4.2-0.7-5.3-2c-1.4-1.4-1.9-3.8-1.9-6.9l0-14.5l-4.2,0l0-3.7l4.2,0l0-6.4L439.1,579z"/>
	<path fill="#808285" d="M475.7,617.5l0,2.8l-28.1,0l0-2.8L475.7,617.5z"/>
	<path fill="#808285" d="M479.6,613.4c0.1-1.8,0.2-4.5,0.2-6.9l0.1-32.2l4.9,0l0,16.7l0.1,0c1.7-3,4.9-4.9,9.3-4.9
		c6.8,0,11.5,5.5,11.5,13.6c0,9.5-6.2,14.2-12.2,14.2c-3.9,0-7.1-1.5-9.1-5l-0.2,0l-0.2,4.4L479.6,613.4z M484.7,602.7
		c0,0.6,0.1,1.2,0.2,1.8c1,3.4,3.8,5.7,7.4,5.7c5.2,0,8.3-4.1,8.3-10.2c0-5.3-2.8-9.9-8.1-9.9c-3.4,0-6.5,2.2-7.6,5.9
		c-0.1,0.6-0.3,1.2-0.3,2L484.7,602.7z"/>
	<path fill="#808285" d="M513.3,586.8l5.9,15.8c0.6,1.8,1.3,3.9,1.7,5.5l0.1,0c0.5-1.6,1.1-3.6,1.8-5.6l5.4-15.6l5.2,0l-7.5,19
		c-3.6,9.1-6,13.8-9.4,16.7c-2.4,2.1-4.8,2.9-6.1,3.1l-1.2-4.1c1.2-0.4,2.9-1.2,4.3-2.4c1.4-1,3-2.9,4.2-5.4
		c0.2-0.5,0.4-0.9,0.4-1.2c0-0.3-0.1-0.7-0.3-1.3l-10-24.6L513.3,586.8z"/>
	<path fill="#808285" d="M562,617.6l0,2.8l-28.1,0l0-2.8L562,617.6z"/>
	<path fill="#808285" d="M585.5,612.6c-1.3,0.7-4.2,1.5-7.8,1.5c-8.2,0-13.6-5.5-13.5-13.6c0-8.2,5.8-14.1,14.7-14.1
		c2.9,0,5.5,0.7,6.9,1.4l-1.1,3.7c-1.2-0.7-3-1.3-5.7-1.3c-6.2,0-9.6,4.5-9.6,10.1c0,6.2,4,10,9.4,10c2.8,0,4.7-0.7,6.1-1.3
		L585.5,612.6z"/>
	<path fill="#808285" d="M590.6,608.6c1.5,0.9,4,1.9,6.5,1.9c3.6,0,5.3-1.8,5.3-4c0-2.3-1.4-3.6-5.1-4.9c-4.9-1.7-7.2-4.4-7.2-7.6
		c0-4.3,3.6-7.8,9.4-7.8c2.8,0,5.2,0.8,6.7,1.7l-1.2,3.5c-1.1-0.7-3-1.5-5.6-1.5c-2.9,0-4.6,1.6-4.6,3.6c0,2.2,1.6,3.2,5.2,4.5
		c4.7,1.8,7.1,4.1,7.1,8c0,4.7-3.7,8-10.2,8c-3,0-5.7-0.7-7.7-1.8L590.6,608.6z"/>
	<path fill="#808285" d="M612.9,608.7c1.5,0.9,4,1.9,6.5,1.9c3.6,0,5.3-1.8,5.3-4c0-2.3-1.4-3.6-5.1-4.9c-4.9-1.7-7.2-4.4-7.2-7.6
		c0-4.3,3.6-7.8,9.4-7.8c2.8,0,5.2,0.8,6.7,1.7l-1.2,3.5c-1.1-0.7-3-1.5-5.6-1.5c-2.9,0-4.6,1.6-4.6,3.6c0,2.2,1.6,3.2,5.2,4.5
		c4.7,1.8,7.1,4.1,7.1,8c0,4.7-3.7,8-10.2,8c-3,0-5.7-0.7-7.7-1.8L612.9,608.7z"/>
	<path fill="#808285" d="M659.9,617.8l0,2.8l-28.1,0l0-2.8L659.9,617.8z"/>
	<path fill="#808285" d="M663.3,608.7c1.5,0.9,4,1.9,6.5,1.9c3.6,0,5.3-1.8,5.3-4c0-2.3-1.4-3.6-5.1-4.9c-4.9-1.7-7.2-4.4-7.2-7.6
		c0-4.3,3.6-7.8,9.4-7.8c2.8,0,5.2,0.8,6.7,1.7l-1.2,3.5c-1.1-0.7-3-1.5-5.6-1.5c-2.9,0-4.6,1.6-4.6,3.6c0,2.2,1.6,3.2,5.2,4.5
		c4.7,1.8,7.1,4.1,7.1,8c0,4.7-3.7,8-10.2,8c-3,0-5.7-0.7-7.7-1.8L663.3,608.7z"/>
	<path fill="#808285" d="M689,601.3c0.1,6.5,4.4,9.3,9.3,9.3c3.5,0,5.7-0.6,7.5-1.4l0.8,3.5c-1.7,0.8-4.7,1.6-9.1,1.6
		c-8.4,0-13.4-5.4-13.4-13.5c0-8,4.9-14.4,12.8-14.3c8.9,0,11.2,7.7,11.2,12.6c0,1-0.1,1.8-0.2,2.3L689,601.3z M703.6,597.8
		c0.1-3.1-1.3-7.9-6.9-7.9c-5,0-7.2,4.5-7.6,7.9L703.6,597.8z"/>
	<path fill="#808285" d="M714.5,574.7l5,0l-0.1,39.1l-5,0L714.5,574.7z"/>
	<path fill="#808285" d="M730.5,601.4c0.1,6.5,4.4,9.3,9.3,9.3c3.5,0,5.7-0.6,7.5-1.4l0.8,3.5c-1.7,0.8-4.7,1.6-9.1,1.6
		c-8.4,0-13.4-5.4-13.4-13.5c0-8,4.9-14.4,12.8-14.3c8.9,0,11.2,7.7,11.2,12.6c0,1-0.1,1.8-0.2,2.3L730.5,601.4z M745,597.9
		c0.1-3.1-1.3-7.9-6.9-7.9c-5,0-7.2,4.5-7.6,7.9L745,597.9z"/>
	<path fill="#808285" d="M775.3,612.9c-1.3,0.7-4.2,1.5-7.8,1.5c-8.2,0-13.6-5.5-13.5-13.6c0-8.2,5.8-14.1,14.7-14.1
		c2.9,0,5.5,0.7,6.9,1.4l-1.1,3.7c-1.2-0.7-3-1.3-5.7-1.3c-6.2,0-9.6,4.5-9.6,10.1c0,6.2,4,10,9.4,10c2.8,0,4.7-0.7,6.1-1.3
		L775.3,612.9z"/>
	<path fill="#808285" d="M787.9,579.6l0,7.7l7.1,0l0,3.7l-7.1,0l0,14.4c0,3.3,0.9,5.2,3.7,5.2c1.3,0,2.3-0.2,2.9-0.3l0.2,3.6
		c-1,0.4-2.5,0.7-4.4,0.7c-2.3,0-4.2-0.7-5.3-2c-1.4-1.4-1.9-3.8-1.9-6.9l0-14.5l-4.2,0l0-3.7l4.2,0l0-6.4L787.9,579.6z"/>
	<path fill="#808285" d="M824.8,600.4c0,9.9-7,14.1-13.6,14.1c-7.4,0-13-5.3-13-13.7c0-8.9,6-14.1,13.5-14.1
		C819.6,586.7,824.8,592.3,824.8,600.4z M803.2,600.7c0,5.8,3.4,10.2,8.3,10.3c4.7,0,8.3-4.3,8.3-10.3c0-4.5-2.3-10.2-8.1-10.3
		C805.8,590.3,803.2,595.6,803.2,600.7z"/>
	<path fill="#808285" d="M831.1,595.6c0-3.1,0-5.8-0.2-8.3l4.3,0l0.2,5.2l0.2,0c1.2-3.6,4.2-5.8,7.6-5.8c0.6,0,1,0.1,1.4,0.2l0,4.6
		c-0.5-0.1-1-0.2-1.7-0.2c-3.5,0-6,2.6-6.7,6.2c-0.1,0.7-0.2,1.4-0.2,2.3l0,14.2l-4.9,0L831.1,595.6z"/>
	<path fill="#808285" d="M860.3,575.8c-4.1,5.4-7.1,12.5-7.1,22.5c0,9.8,3.1,16.8,7.1,22.4l-3.9,0c-3.5-4.6-7.4-11.6-7.3-22.4
		c0.1-10.8,3.9-17.9,7.4-22.5L860.3,575.8z"/>
	<path fill="#808285" d="M869.1,576.3l-1,13.2l-3,0l-0.9-13.2L869.1,576.3z"/>
	<path fill="#808285" d="M868.5,611.2c0-2,1.4-3.5,3.4-3.5c2,0,3.3,1.4,3.3,3.5c0,2-1.3,3.5-3.4,3.5
		C869.8,614.6,868.5,613.1,868.5,611.2z"/>
	<path fill="#808285" d="M888.7,581l-11.5,0l0-4.1l28.1,0l0,4.1l-11.6,0l-0.1,33l-5,0L888.7,581z"/>
	<path fill="#808285" d="M917.9,597.4l0,3.6l-13.9,0l0-3.6L917.9,597.4z"/>
	<path fill="#808285" d="M928.8,577l-0.1,37.1l-4.9,0l0.1-37.1L928.8,577z"/>
	<path fill="#808285" d="M948.6,597.5l0,3.6l-13.9,0l0-3.6L948.6,597.5z"/>
	<path fill="#808285" d="M954.6,577.1l4.9,0l0,17.9l0.2,0c1-1.4,2-2.7,3-4l11.6-13.9l6.1,0l-13.8,15.7l14.8,21.4l-5.8,0L963.1,596
		l-3.6,4.1l0,14.1l-4.9,0L954.6,577.1z"/>
	<path fill="#808285" d="M1004.7,596.9l-14.7,0l0,13.4l16.4,0l0,4l-21.3,0l0.1-37.1l20.5,0l0,4l-15.6,0l0,11.7l14.7,0L1004.7,596.9z
		"/>
	<path fill="#808285" d="M1016.3,576.6l-1,13.2l-3,0l-0.9-13.2L1016.3,576.6z"/>
	<path fill="#808285" d="M1020.2,620.9c4-5.4,7.1-12.6,7.1-22.5c0-9.9-3-16.9-7.1-22.4l3.8,0c3.6,4.5,7.4,11.6,7.3,22.4
		c0,10.8-3.8,17.8-7.4,22.4L1020.2,620.9z"/>
	<path fill="#808285" d="M1038,611.4c0-2,1.4-3.5,3.4-3.5c2,0,3.3,1.4,3.3,3.5c0,2-1.3,3.5-3.4,3.5
		C1039.3,614.9,1038,613.4,1038,611.4z"/>
	<path fill="#808285" d="M1070.2,613.4c-1.3,0.7-4.2,1.5-7.8,1.5c-8.2,0-13.6-5.5-13.5-13.6c0-8.2,5.8-14.1,14.7-14.1
		c2.9,0,5.5,0.7,6.9,1.4l-1.1,3.7c-1.2-0.7-3-1.3-5.7-1.3c-6.2,0-9.6,4.5-9.6,10.1c0,6.2,4,10,9.4,10c2.8,0,4.7-0.7,6.1-1.3
		L1070.2,613.4z"/>
	<path fill="#808285" d="M1076.1,575.3l5,0l-0.1,39.1l-5,0L1076.1,575.3z"/>
	<path fill="#808285" d="M1094.8,580.3c0.1,1.7-1.2,3-3.2,3c-1.7,0-3-1.3-3-3c0-1.7,1.3-3,3.1-3
		C1093.7,577.2,1094.8,578.6,1094.8,580.3z M1089.3,614.4l0-26.6l5,0l0,26.6L1089.3,614.4z"/>
	<path fill="#808285" d="M1121.9,613.4c-1.3,0.7-4.2,1.5-7.8,1.5c-8.2,0-13.6-5.5-13.5-13.6c0-8.2,5.8-14.1,14.7-14.1
		c2.9,0,5.5,0.7,6.9,1.4l-1.1,3.7c-1.2-0.7-3-1.3-5.7-1.3c-6.2,0-9.6,4.5-9.6,10.1c0,6.2,4,10,9.4,10c2.8,0,4.7-0.7,6.1-1.3
		L1121.9,613.4z"/>
	<path fill="#808285" d="M1132.6,600l0.1,0c0.7-0.9,1.6-2.1,2.4-3l8-9.2l6,0l-10.5,10.9l12,15.7l-6,0l-9.4-12.8l-2.5,2.7l0,10
		l-4.9,0l0.1-39.1l4.9,0L1132.6,600z"/>
	<path fill="#808285" d="M1164.8,576.3c-4.1,5.4-7.1,12.5-7.1,22.5c0,9.8,3.1,16.8,7.1,22.4l-3.9,0c-3.5-4.6-7.4-11.6-7.3-22.4
		c0.1-10.8,3.9-17.9,7.4-22.5L1164.8,576.3z"/>
	<path fill="#808285" d="M1167,621.2c4-5.4,7.1-12.6,7.1-22.5c0-9.9-3-16.9-7.1-22.4l3.8,0c3.6,4.5,7.4,11.6,7.3,22.4
		c0,10.8-3.8,17.8-7.4,22.4L1167,621.2z"/>
	<path fill="#808285" d="M-2.8,710.4l0,7.7l7.1,0l0,3.7l-7.1,0l0,14.4c0,3.3,0.9,5.2,3.7,5.2c1.3,0,2.3-0.2,2.9-0.3l0.2,3.6
		c-1,0.4-2.5,0.7-4.4,0.7c-2.3,0-4.2-0.7-5.3-2c-1.4-1.4-1.9-3.8-1.9-6.9l0-14.5l-4.2,0l0-3.7l4.2,0l0-6.4L-2.8,710.4z"/>
	<path fill="#808285" d="M15.4,710.6c0.1,1.7-1.2,3-3.2,3c-1.7,0-3-1.3-3-3c0-1.7,1.3-3,3.1-3C14.2,707.6,15.4,708.9,15.4,710.6z
		 M9.8,744.7l0-26.6l5,0l0,26.6L9.8,744.7z"/>
	<path fill="#808285" d="M23,725.3c0-2.8,0-5-0.2-7.2l4.3,0l0.2,4.3l0.2,0c1.5-2.5,4.1-4.9,8.6-4.9c3.7,0,6.5,2.2,7.7,5.4l0.1,0
		c0.8-1.5,1.9-2.6,3-3.5c1.6-1.2,3.4-1.9,6-1.9c3.6,0,8.9,2.3,8.9,11.6l0,15.7l-4.8,0l0-15.1c0-5.1-1.9-8.2-5.9-8.2
		c-2.8,0-5,2-5.9,4.4c-0.2,0.7-0.4,1.5-0.4,2.4l0,16.5l-4.8,0l0-16c0-4.2-1.9-7.3-5.7-7.3c-3.1,0-5.4,2.4-6.1,4.8
		c-0.3,0.7-0.4,1.5-0.4,2.4l0,16.1l-4.8,0L23,725.3z"/>
	<path fill="#808285" d="M72.7,732.4c0.1,6.5,4.4,9.3,9.3,9.3c3.5,0,5.7-0.6,7.5-1.4l0.8,3.5c-1.7,0.8-4.7,1.6-9.1,1.6
		C73,745.4,68,740,68,731.9c0-8,4.9-14.4,12.8-14.3c8.9,0,11.2,7.7,11.2,12.6c0,1-0.1,1.8-0.2,2.3L72.7,732.4z M87.2,728.9
		c0.1-3.1-1.3-7.9-6.9-7.9c-5,0-7.2,4.5-7.6,7.9L87.2,728.9z"/>
	<path fill="#808285" d="M96.3,742c0-2,1.4-3.5,3.4-3.5s3.3,1.4,3.3,3.5c0,2-1.3,3.5-3.4,3.5C97.6,745.5,96.3,744,96.3,742z"/>
	<path fill="#808285" d="M108.4,739.9c1.5,0.9,4,1.9,6.5,1.9c3.6,0,5.3-1.8,5.3-4c0-2.3-1.4-3.6-5.1-4.9c-4.9-1.7-7.2-4.4-7.2-7.6
		c0-4.3,3.6-7.8,9.4-7.8c2.8,0,5.2,0.8,6.7,1.7l-1.2,3.5c-1.1-0.7-3-1.5-5.6-1.5c-2.9,0-4.6,1.6-4.6,3.6c0,2.2,1.6,3.2,5.2,4.5
		c4.7,1.8,7.1,4.1,7.1,8c0,4.7-3.7,8-10.2,8c-3,0-5.7-0.7-7.7-1.8L108.4,739.9z"/>
	<path fill="#808285" d="M131.5,705.8l5,0l-0.1,39.1l-5,0L131.5,705.8z"/>
	<path fill="#808285" d="M147.4,732.5c0.1,6.5,4.4,9.3,9.3,9.3c3.5,0,5.7-0.6,7.5-1.4l0.8,3.5c-1.7,0.8-4.7,1.6-9.1,1.6
		c-8.4,0-13.4-5.4-13.4-13.5c0-8,4.9-14.4,12.8-14.3c8.9,0,11.2,7.7,11.2,12.6c0,1-0.1,1.8-0.2,2.3L147.4,732.5z M162,729.1
		c0.1-3.1-1.3-7.9-6.9-7.9c-5,0-7.2,4.5-7.6,7.9L162,729.1z"/>
	<path fill="#808285" d="M175.6,732.5c0.1,6.5,4.4,9.3,9.3,9.3c3.5,0,5.7-0.6,7.5-1.4l0.8,3.5c-1.7,0.8-4.7,1.6-9.1,1.6
		c-8.4,0-13.4-5.4-13.4-13.5c0-8,4.9-14.4,12.8-14.3c8.9,0,11.2,7.7,11.2,12.6c0,1-0.1,1.8-0.2,2.3L175.6,732.5z M190.2,729.1
		c0.1-3.1-1.3-7.9-6.9-7.9c-5,0-7.2,4.5-7.6,7.9L190.2,729.1z"/>
	<path fill="#808285" d="M201.1,727.1c0-3.4-0.1-6.2-0.2-8.7l4.4,0l0.2,4.6l0.1,0c2-3.2,5.2-5.2,9.7-5.2c6.6,0,11.5,5.5,11.5,13.6
		c0,9.6-6,14.3-12.4,14.3c-3.6,0-6.8-1.6-8.4-4.2l-0.1,0l0,14.5l-4.9,0L201.1,727.1z M206,734.2c0,0.7,0.1,1.4,0.2,2
		c0.9,3.4,3.9,5.7,7.4,5.7c5.2,0,8.3-4.2,8.3-10.3c0-5.3-2.9-9.9-8.1-9.9c-3.4,0-6.5,2.4-7.5,6c-0.2,0.6-0.3,1.3-0.3,2L206,734.2z"
		/>
	<path fill="#808285" d="M243.9,706.9c-4.1,5.4-7.1,12.5-7.1,22.5c0,9.8,3.1,16.8,7.1,22.4l-3.9,0c-3.5-4.6-7.4-11.6-7.3-22.4
		c0.1-10.8,3.9-17.9,7.4-22.5L243.9,706.9z"/>
	<path fill="#808285" d="M247.5,745.1l0-3l3.9-3.7c9.4-8.7,13.6-13.3,13.6-18.7c0-3.6-1.8-7-7.2-7c-3.3,0-6.1,1.6-7.8,3l-1.6-3.4
		c2.5-2.1,6.1-3.6,10.4-3.6c7.9,0,11.2,5.3,11.2,10.4c0,6.6-4.9,11.9-12.6,19.2l-2.9,2.6l0,0.1l16.4,0l0,4L247.5,745.1z"/>
	<path fill="#808285" d="M274.9,751.8c4-5.4,7.1-12.6,7.1-22.5c0-9.9-3-16.9-7.1-22.4l3.8,0c3.6,4.5,7.4,11.6,7.3,22.4
		c0,10.8-3.8,17.8-7.4,22.4L274.9,751.8z"/>
	<path fill="#808285" d="M14.7,771.7l-0.1,32.2c0,2.4,0,5.1,0.2,6.9l-4.4,0l-0.2-4.6l-0.1,0c-1.5,3-4.8,5.2-9.3,5.2
		c-6.6,0-11.6-5.5-11.6-13.6c0-8.9,5.6-14.3,12.2-14.3c4.2,0,7,1.9,8.2,4.1l0.1,0l0-15.9L14.7,771.7z M9.7,795c0-0.6-0.1-1.4-0.2-2
		c-0.7-3.1-3.4-5.6-7.1-5.6c-5.1,0-8.2,4.4-8.2,10.3c0,5.4,2.7,9.9,8,9.9c3.3,0,6.4-2.1,7.3-5.8c0.2-0.7,0.2-1.3,0.2-2.1L9.7,795z"
		/>
	<path fill="#808285" d="M22.9,792.5c0-3.1,0-5.8-0.2-8.3l4.3,0l0.2,5.2l0.2,0c1.2-3.6,4.2-5.8,7.6-5.8c0.6,0,1,0.1,1.4,0.2l0,4.6
		c-0.5-0.1-1-0.2-1.7-0.2c-3.5,0-6,2.6-6.7,6.2c-0.1,0.7-0.2,1.4-0.2,2.3l0,14.2l-4.9,0L22.9,792.5z"/>
	<path fill="#808285" d="M47,776.7c0.1,1.7-1.2,3-3.2,3c-1.7,0-3-1.3-3-3c0-1.7,1.3-3,3.1-3C45.9,773.7,47,775,47,776.7z
		 M41.5,810.8l0-26.6l5,0l0,26.6L41.5,810.8z"/>
	<path fill="#808285" d="M56.6,784.2l5.3,15c0.9,2.4,1.6,4.6,2.2,6.8l0.2,0c0.6-2.2,1.4-4.4,2.3-6.8l5.3-15l5.2,0l-10.7,26.6l-4.7,0
		l-10.3-26.7L56.6,784.2z"/>
	<path fill="#808285" d="M83.9,798.4c0.1,6.5,4.4,9.3,9.3,9.3c3.5,0,5.7-0.6,7.5-1.4l0.8,3.5c-1.7,0.8-4.7,1.6-9.1,1.6
		c-8.4,0-13.4-5.4-13.4-13.5c0-8,4.9-14.4,12.8-14.3c8.9,0,11.2,7.7,11.2,12.6c0,1-0.1,1.8-0.2,2.3L83.9,798.4z M98.4,795
		c0.1-3.1-1.3-7.9-6.9-7.9c-5,0-7.2,4.5-7.6,7.9L98.4,795z"/>
	<path fill="#808285" d="M109.4,792.6c0-3.1,0-5.8-0.2-8.3l4.3,0l0.2,5.2l0.2,0c1.2-3.6,4.2-5.8,7.6-5.8c0.6,0,1,0.1,1.4,0.2l0,4.6
		c-0.5-0.1-1-0.2-1.7-0.2c-3.5,0-6,2.6-6.7,6.2c-0.1,0.7-0.2,1.4-0.2,2.3l0,14.2l-4.9,0L109.4,792.6z"/>
	<path fill="#808285" d="M123.6,808.1c0-2,1.4-3.5,3.4-3.5c2,0,3.3,1.4,3.3,3.5c0,2-1.3,3.5-3.4,3.5
		C124.9,811.6,123.6,810.1,123.6,808.1z"/>
	<path fill="#808285" d="M136.9,811l0-23l-3.8,0l0-3.7l3.8,0l0-1.4c0-7,4.2-11.6,11.9-11.6c2.5,0,5.5,0.8,6.9,1.8l-1.4,3.7
		c-1.2-0.8-3.3-1.5-5.7-1.6c-5.2,0-6.8,3.6-6.8,7.8l0,1.3l15.8,0l0,26.6l-4.9,0l0-23l-10.9,0l0,23L136.9,811z"/>
	<path fill="#808285" d="M165.9,791.6c0-2.8,0-5-0.2-7.2l4.4,0l0.3,4.4l0.1,0c1.4-2.5,4.5-5,9-5c3.8,0,9.6,2.2,9.6,11.4l0,15.9l-5,0
		l0-15.4c0-4.3-1.6-7.9-6.3-7.9c-3.3,0-5.8,2.2-6.6,4.9c-0.2,0.6-0.3,1.4-0.3,2.3l0,16l-5,0L165.9,791.6z"/>
	<path fill="#808285" d="M220.6,772l-0.1,32.2c0,2.4,0,5.1,0.2,6.9l-4.4,0l-0.2-4.6l-0.1,0c-1.5,3-4.8,5.2-9.3,5.2
		c-6.6,0-11.6-5.5-11.6-13.6c0-8.9,5.6-14.3,12.2-14.3c4.2,0,7,1.9,8.2,4.1l0.1,0l0-15.9L220.6,772z M215.7,795.3
		c0-0.6-0.1-1.4-0.2-2c-0.7-3.1-3.4-5.6-7.1-5.6c-5.1,0-8.2,4.4-8.2,10.3c0,5.4,2.7,9.9,8,9.9c3.3,0,6.4-2.1,7.3-5.8
		c0.2-0.7,0.2-1.3,0.2-2.1L215.7,795.3z"/>
	<path fill="#808285" d="M252.8,815.3l0,2.8l-28.1,0l0-2.8L252.8,815.3z"/>
	<path fill="#808285" d="M259.7,798.7c0.1,6.5,4.4,9.3,9.3,9.3c3.5,0,5.7-0.6,7.5-1.4l0.8,3.5c-1.7,0.8-4.7,1.6-9.1,1.6
		c-8.4,0-13.4-5.4-13.4-13.5c0-8,4.9-14.4,12.8-14.3c8.9,0,11.2,7.7,11.2,12.6c0,1-0.1,1.8-0.2,2.3L259.7,798.7z M274.2,795.3
		c0.1-3.1-1.3-7.9-6.9-7.9c-5,0-7.2,4.5-7.6,7.9L274.2,795.3z"/>
	<path fill="#808285" d="M285.2,772.1l5,0l-0.1,39.1l-5,0L285.2,772.1z"/>
	<path fill="#808285" d="M301.2,798.8c0.1,6.5,4.4,9.3,9.3,9.3c3.5,0,5.7-0.6,7.5-1.4l0.8,3.5c-1.7,0.8-4.7,1.6-9.1,1.6
		c-8.4,0-13.4-5.4-13.4-13.5c0-8,4.9-14.4,12.8-14.3c8.9,0,11.2,7.7,11.2,12.6c0,1-0.1,1.8-0.2,2.3L301.2,798.8z M315.7,795.4
		c0.1-3.1-1.3-7.9-6.9-7.9c-5,0-7.2,4.5-7.6,7.9L315.7,795.4z"/>
	<path fill="#808285" d="M326.6,791.8c0-2.8,0-5-0.2-7.2l4.3,0l0.2,4.3l0.2,0c1.5-2.5,4.1-4.9,8.6-4.9c3.7,0,6.5,2.2,7.7,5.4l0.1,0
		c0.8-1.5,1.9-2.6,3-3.5c1.6-1.2,3.4-1.9,6-1.9c3.6,0,8.9,2.3,8.9,11.6l0,15.7l-4.8,0l0-15.1c0-5.1-1.9-8.2-5.9-8.2
		c-2.8,0-5,2-5.9,4.4c-0.2,0.7-0.4,1.5-0.4,2.4l0,16.5l-4.8,0l0-16c0-4.2-1.9-7.3-5.7-7.3c-3.1,0-5.4,2.4-6.1,4.8
		c-0.3,0.7-0.4,1.5-0.4,2.4l0,16.1l-4.8,0L326.6,791.8z"/>
	<path fill="#808285" d="M376.3,798.9c0.1,6.5,4.4,9.3,9.3,9.3c3.5,0,5.7-0.6,7.5-1.4l0.8,3.5c-1.7,0.8-4.7,1.6-9.1,1.6
		c-8.4,0-13.4-5.4-13.4-13.5c0-8,4.9-14.4,12.8-14.3c8.9,0,11.2,7.7,11.2,12.6c0,1-0.1,1.8-0.2,2.3L376.3,798.9z M390.8,795.5
		c0.1-3.1-1.3-7.9-6.9-7.9c-5,0-7.2,4.5-7.6,7.9L390.8,795.5z"/>
	<path fill="#808285" d="M401.7,792c0-2.8,0-5-0.2-7.2l4.4,0l0.3,4.4l0.1,0c1.4-2.5,4.5-5,9-5c3.8,0,9.6,2.2,9.6,11.4l0,15.9l-5,0
		l0-15.4c0-4.3-1.6-7.9-6.3-7.9c-3.3,0-5.8,2.2-6.6,4.9c-0.2,0.6-0.3,1.4-0.3,2.3l0,16l-5,0L401.7,792z"/>
	<path fill="#808285" d="M438.7,777.2l0,7.7l7.1,0l0,3.7l-7.1,0l0,14.4c0,3.3,0.9,5.2,3.7,5.2c1.3,0,2.3-0.2,2.9-0.3l0.2,3.6
		c-1,0.4-2.5,0.7-4.4,0.7c-2.3,0-4.2-0.7-5.3-2c-1.4-1.4-1.9-3.8-1.9-6.9l0-14.5l-4.2,0l0-3.7l4.2,0l0-6.4L438.7,777.2z"/>
	<path fill="#808285" d="M475.4,815.7l0,2.8l-28.1,0l0-2.8L475.4,815.7z"/>
	<path fill="#808285" d="M479.3,811.5c0.1-1.8,0.2-4.5,0.2-6.9l0.1-32.2l4.9,0l0,16.7l0.1,0c1.7-3,4.9-4.9,9.3-4.9
		c6.8,0,11.5,5.5,11.5,13.6c0,9.5-6.2,14.2-12.2,14.2c-3.9,0-7.1-1.5-9.1-5l-0.2,0l-0.2,4.4L479.3,811.5z M484.4,800.9
		c0,0.6,0.1,1.2,0.2,1.8c1,3.4,3.8,5.7,7.4,5.7c5.2,0,8.3-4.1,8.3-10.2c0-5.3-2.8-9.9-8.1-9.9c-3.4,0-6.5,2.2-7.6,5.9
		c-0.1,0.6-0.3,1.2-0.3,2L484.4,800.9z"/>
	<path fill="#808285" d="M513,784.9l5.9,15.8c0.6,1.8,1.3,3.9,1.7,5.5l0.1,0c0.5-1.6,1.1-3.6,1.8-5.6l5.4-15.6l5.2,0l-7.5,19
		c-3.6,9.1-6,13.8-9.4,16.7c-2.4,2.1-4.8,2.9-6.1,3.1l-1.2-4.1c1.2-0.4,2.9-1.2,4.3-2.4c1.4-1,3-2.9,4.2-5.4
		c0.2-0.5,0.4-0.9,0.4-1.2c0-0.3-0.1-0.7-0.3-1.3l-10-24.6L513,784.9z"/>
	<path fill="#808285" d="M561.6,815.8l0,2.8l-28.1,0l0-2.8L561.6,815.8z"/>
	<path fill="#808285" d="M565.8,792.2c0-2.8,0-5-0.2-7.2l4.4,0l0.3,4.4l0.1,0c1.4-2.5,4.5-5,9-5c3.8,0,9.6,2.2,9.6,11.4l0,15.9l-5,0
		l0-15.4c0-4.3-1.6-7.9-6.3-7.9c-3.3,0-5.8,2.2-6.6,4.9c-0.2,0.6-0.3,1.4-0.3,2.3l0,16l-5,0L565.8,792.2z"/>
	<path fill="#808285" d="M612.1,811.7l-0.4-3.4l-0.2,0c-1.5,2.1-4.5,4-8.3,4c-5.5,0-8.3-3.8-8.3-7.7c0-6.4,5.9-10,16.4-9.9l0-0.6
		c0-2.2-0.6-6.2-6.2-6.2c-2.5,0-5.2,0.8-7.1,2l-1.1-3.2c2.3-1.4,5.5-2.4,9-2.4c8.3,0,10.3,5.6,10.3,10.9l0,10c0,2.3,0.1,4.6,0.4,6.4
		L612.1,811.7z M611.3,798.2c-5.4-0.1-11.5,0.8-11.5,6c0,3.1,2.1,4.6,4.7,4.6c3.5,0,5.8-2.2,6.6-4.4c0.2-0.5,0.3-1,0.3-1.5
		L611.3,798.2z"/>
	<path fill="#808285" d="M624.1,792.3c0-2.8,0-5-0.2-7.2l4.3,0l0.2,4.3l0.2,0c1.5-2.5,4.1-4.9,8.6-4.9c3.7,0,6.5,2.2,7.7,5.4l0.1,0
		c0.8-1.5,1.9-2.6,3-3.5c1.6-1.2,3.4-1.9,6-1.9c3.6,0,8.9,2.3,8.9,11.6l0,15.7l-4.8,0l0-15.1c0-5.1-1.9-8.2-5.9-8.2
		c-2.8,0-5,2-5.9,4.4c-0.2,0.7-0.4,1.5-0.4,2.4l0,16.5l-4.8,0l0-16c0-4.2-1.9-7.3-5.7-7.3c-3.1,0-5.4,2.4-6.1,4.8
		c-0.3,0.7-0.4,1.5-0.4,2.4l0,16.1l-4.8,0L624.1,792.3z"/>
	<path fill="#808285" d="M673.8,799.4c0.1,6.5,4.4,9.3,9.3,9.3c3.5,0,5.7-0.6,7.5-1.4l0.8,3.5c-1.7,0.8-4.7,1.6-9.1,1.6
		c-8.4,0-13.4-5.4-13.4-13.5c0-8,4.9-14.4,12.8-14.3c8.9,0,11.2,7.7,11.2,12.6c0,1-0.1,1.8-0.2,2.3L673.8,799.4z M688.3,796
		c0.1-3.1-1.3-7.9-6.9-7.9c-5,0-7.2,4.5-7.6,7.9L688.3,796z"/>
	<path fill="#808285" d="M710,773.7c-4.1,5.4-7.1,12.5-7.1,22.5c0,9.8,3.1,16.8,7.1,22.4l-3.9,0c-3.5-4.6-7.4-11.6-7.3-22.4
		c0.1-10.8,3.9-17.9,7.4-22.5L710,773.7z"/>
	<path fill="#808285" d="M718.9,774.2l-1,13.2l-3,0l-0.9-13.2L718.9,774.2z"/>
	<path fill="#808285" d="M733.1,777.7l0,7.7l7.1,0l0,3.7l-7.1,0l0,14.4c0,3.3,0.9,5.2,3.7,5.2c1.3,0,2.3-0.2,2.9-0.3l0.2,3.6
		c-1,0.4-2.5,0.7-4.4,0.7c-2.3,0-4.2-0.7-5.3-2c-1.4-1.4-1.9-3.8-1.9-6.9l0-14.5l-4.2,0l0-3.7l4.2,0l0-6.4L733.1,777.7z"/>
	<path fill="#808285" d="M770.1,798.5c0,9.9-7,14.1-13.6,14.1c-7.4,0-13-5.3-13-13.7c0-8.9,6-14.1,13.5-14.1
		C764.8,784.8,770.1,790.3,770.1,798.5z M748.5,798.7c0,5.8,3.4,10.2,8.3,10.3c4.7,0,8.3-4.3,8.3-10.3c0-4.5-2.3-10.2-8.1-10.3
		C751,788.4,748.5,793.6,748.5,798.7z"/>
	<path fill="#808285" d="M779.4,774.3l-1,13.2l-3,0l-0.9-13.2L779.4,774.3z"/>
	<path fill="#808285" d="M783.3,818.7c4-5.4,7.1-12.6,7.1-22.5c0-9.9-3-16.9-7.1-22.4l3.8,0c3.6,4.5,7.4,11.6,7.3,22.4
		c0,10.8-3.8,17.8-7.4,22.4L783.3,818.7z"/>
	<path fill="#808285" d="M801.1,809.2c0-2,1.4-3.5,3.4-3.5c2,0,3.3,1.4,3.3,3.5c0,2-1.3,3.5-3.4,3.5
		C802.4,812.7,801.1,811.2,801.1,809.2z"/>
	<path fill="#808285" d="M813.2,807.1c1.5,0.9,4,1.9,6.5,1.9c3.6,0,5.3-1.8,5.3-4c0-2.3-1.4-3.6-5.1-4.9c-4.9-1.7-7.2-4.4-7.2-7.6
		c0-4.3,3.6-7.8,9.4-7.8c2.8,0,5.2,0.8,6.7,1.7l-1.2,3.5c-1.1-0.7-3-1.5-5.6-1.5c-2.9,0-4.6,1.6-4.6,3.6c0,2.2,1.6,3.2,5.2,4.5
		c4.7,1.8,7.1,4.1,7.1,8c0,4.7-3.7,8-10.2,8c-3,0-5.7-0.7-7.7-1.8L813.2,807.1z"/>
	<path fill="#808285" d="M839,799.7c0.1,6.5,4.4,9.3,9.3,9.3c3.5,0,5.7-0.6,7.5-1.4l0.8,3.5c-1.7,0.8-4.7,1.6-9.1,1.6
		c-8.4,0-13.4-5.4-13.4-13.5c0-8,4.9-14.4,12.8-14.3c8.9,0,11.2,7.7,11.2,12.6c0,1-0.1,1.8-0.2,2.3L839,799.7z M853.5,796.2
		c0.1-3.1-1.3-7.9-6.9-7.9c-5,0-7.2,4.5-7.6,7.9L853.5,796.2z"/>
	<path fill="#808285" d="M864.4,792.7c0-2.8,0-5-0.2-7.2l4.4,0l0.3,4.4l0.1,0c1.4-2.5,4.5-5,9-5c3.8,0,9.6,2.2,9.6,11.4l0,15.9l-5,0
		l0-15.4c0-4.3-1.6-7.9-6.3-7.9c-3.3,0-5.8,2.2-6.6,4.9c-0.2,0.6-0.3,1.4-0.3,2.3l0,16l-5,0L864.4,792.7z"/>
	<path fill="#808285" d="M919.2,773.2l-0.1,32.2c0,2.4,0,5.1,0.2,6.9l-4.4,0l-0.2-4.6l-0.1,0c-1.5,3-4.8,5.2-9.3,5.2
		c-6.6,0-11.6-5.5-11.6-13.6c0-8.9,5.6-14.3,12.2-14.3c4.2,0,7,1.9,8.2,4.1l0.1,0l0-15.9L919.2,773.2z M914.2,796.4
		c0-0.6-0.1-1.4-0.2-2c-0.7-3.1-3.4-5.6-7.1-5.6c-5.1,0-8.2,4.4-8.2,10.3c0,5.4,2.7,9.9,8,9.9c3.3,0,6.4-2.1,7.3-5.8
		c0.2-0.7,0.2-1.3,0.2-2.1L914.2,796.4z"/>
	<path fill="#808285" d="M951.4,816.4l0,2.8l-28.1,0l0-2.8L951.4,816.4z"/>
	<path fill="#808285" d="M960.4,797.9l0.1,0c0.7-0.9,1.6-2.1,2.4-3l8-9.2l6,0l-10.5,10.9l12,15.7l-6,0l-9.4-12.8l-2.5,2.7l0,10
		l-4.9,0l0.1-39.1l4.9,0L960.4,797.9z"/>
	<path fill="#808285" d="M984.6,799.9c0.1,6.5,4.4,9.3,9.3,9.3c3.5,0,5.7-0.6,7.5-1.4l0.8,3.5c-1.7,0.8-4.7,1.6-9.1,1.6
		c-8.4,0-13.4-5.4-13.4-13.5c0-8,4.9-14.4,12.8-14.3c8.9,0,11.2,7.7,11.2,12.6c0,1-0.1,1.8-0.2,2.3L984.6,799.9z M999.2,796.5
		c0.1-3.1-1.3-7.9-6.9-7.9c-5,0-7.2,4.5-7.6,7.9L999.2,796.5z"/>
	<path fill="#808285" d="M1011.9,785.8l5.9,15.8c0.6,1.8,1.3,3.9,1.7,5.5l0.1,0c0.5-1.6,1.1-3.6,1.8-5.6l5.4-15.6l5.2,0l-7.5,19
		c-3.6,9.1-6,13.8-9.4,16.7c-2.4,2.1-4.8,2.9-6.1,3.1l-1.2-4.1c1.2-0.4,2.9-1.2,4.3-2.4c1.4-1,3-2.9,4.2-5.4
		c0.2-0.5,0.4-0.9,0.4-1.2c0-0.3-0.1-0.7-0.3-1.3l-10-24.6L1011.9,785.8z"/>
	<path fill="#808285" d="M1035.6,807.5c1.5,0.9,4,1.9,6.5,1.9c3.6,0,5.3-1.8,5.3-4c0-2.3-1.4-3.6-5.1-4.9c-4.9-1.7-7.2-4.4-7.2-7.6
		c0-4.3,3.6-7.8,9.4-7.8c2.8,0,5.2,0.8,6.7,1.7l-1.2,3.5c-1.1-0.7-3-1.5-5.6-1.5c-2.9,0-4.6,1.6-4.6,3.6c0,2.2,1.6,3.2,5.2,4.5
		c4.7,1.8,7.1,4.1,7.1,8c0,4.7-3.7,8-10.2,8c-3,0-5.7-0.7-7.7-1.8L1035.6,807.5z"/>
	<path fill="#808285" d="M1069.3,774.3c-4.1,5.4-7.1,12.5-7.1,22.5c0,9.8,3.1,16.8,7.1,22.4l-3.9,0c-3.5-4.6-7.4-11.6-7.3-22.4
		c0.1-10.8,3.9-17.9,7.4-22.5L1069.3,774.3z"/>
	<path fill="#808285" d="M1098.1,773.5l-0.1,32.2c0,2.4,0,5.1,0.2,6.9l-4.4,0l-0.2-4.6l-0.1,0c-1.5,3-4.8,5.2-9.3,5.2
		c-6.6,0-11.6-5.5-11.6-13.6c0-8.9,5.6-14.3,12.2-14.3c4.2,0,7,1.9,8.2,4.1l0.1,0l0-15.9L1098.1,773.5z M1093.1,796.7
		c0-0.6-0.1-1.4-0.2-2c-0.7-3.1-3.4-5.6-7.1-5.6c-5.1,0-8.2,4.4-8.2,10.3c0,5.4,2.7,9.9,8,9.9c3.3,0,6.4-2.1,7.3-5.8
		c0.2-0.7,0.2-1.3,0.2-2.1L1093.1,796.7z"/>
	<path fill="#808285" d="M1109,800.1c0.1,6.5,4.4,9.3,9.3,9.3c3.5,0,5.7-0.6,7.5-1.4l0.8,3.5c-1.7,0.8-4.7,1.6-9.1,1.6
		c-8.4,0-13.4-5.4-13.4-13.5c0-8,4.9-14.4,12.8-14.3c8.9,0,11.2,7.7,11.2,12.6c0,1-0.1,1.8-0.2,2.3L1109,800.1z M1123.5,796.7
		c0.1-3.1-1.3-7.9-6.9-7.9c-5,0-7.2,4.5-7.6,7.9L1123.5,796.7z"/>
	<path fill="#808285" d="M1133.7,807.7c1.5,0.9,4,1.9,6.5,1.9c3.6,0,5.3-1.8,5.3-4c0-2.3-1.4-3.6-5.1-4.9c-4.9-1.7-7.2-4.4-7.2-7.6
		c0-4.3,3.6-7.8,9.4-7.8c2.8,0,5.2,0.8,6.7,1.7l-1.2,3.5c-1.1-0.7-3-1.5-5.6-1.5c-2.9,0-4.6,1.6-4.6,3.6c0,2.2,1.6,3.2,5.2,4.5
		c4.7,1.8,7.1,4.1,7.1,8c0,4.7-3.7,8-10.2,8c-3,0-5.7-0.7-7.7-1.8L1133.7,807.7z"/>
	<path fill="#808285" d="M1162.7,778.4l0,7.7l7.1,0l0,3.7l-7.1,0l0,14.4c0,3.3,0.9,5.2,3.7,5.2c1.3,0,2.3-0.2,2.9-0.3l0.2,3.6
		c-1,0.4-2.5,0.7-4.4,0.7c-2.3,0-4.2-0.7-5.3-2c-1.4-1.4-1.9-3.8-1.9-6.9l0-14.5l-4.2,0l0-3.7l4.2,0l0-6.4L1162.7,778.4z"/>
	<path fill="#808285" d="M1180.9,778.6c0.1,1.7-1.2,3-3.2,3c-1.7,0-3-1.3-3-3c0-1.7,1.3-3,3.1-3
		C1179.7,775.5,1180.9,776.8,1180.9,778.6z M1175.3,812.7l0-26.6l5,0l0,26.6L1175.3,812.7z"/>
	<path fill="#808285" d="M1188.5,793.3c0-2.8,0-5-0.2-7.2l4.4,0l0.3,4.4l0.1,0c1.4-2.5,4.5-5,9-5c3.8,0,9.6,2.2,9.6,11.4l0,15.9
		l-5,0l0-15.4c0-4.3-1.6-7.9-6.3-7.9c-3.3,0-5.8,2.2-6.6,4.9c-0.2,0.6-0.3,1.4-0.3,2.3l0,16l-5,0L1188.5,793.3z"/>
	<path fill="#808285" d="M1234.8,812.8l-0.4-3.4l-0.2,0c-1.5,2.1-4.5,4-8.3,4c-5.5,0-8.3-3.8-8.3-7.7c0-6.4,5.9-10,16.4-9.9l0-0.6
		c0-2.2-0.6-6.2-6.2-6.2c-2.5,0-5.2,0.8-7.1,2l-1.1-3.2c2.3-1.4,5.5-2.4,9-2.4c8.3,0,10.3,5.6,10.3,10.9l0,10c0,2.3,0.1,4.6,0.4,6.4
		L1234.8,812.8z M1234.1,799.2c-5.4-0.1-11.5,0.8-11.5,6c0,3.1,2.1,4.6,4.7,4.6c3.5,0,5.8-2.2,6.6-4.4c0.2-0.5,0.3-1,0.3-1.5
		L1234.1,799.2z"/>
	<path fill="#808285" d="M1252.6,778.5l0,7.7l7.1,0l0,3.7l-7.1,0l0,14.4c0,3.3,0.9,5.2,3.7,5.2c1.3,0,2.3-0.2,2.9-0.3l0.2,3.6
		c-1,0.4-2.5,0.7-4.4,0.7c-2.3,0-4.2-0.7-5.3-2c-1.4-1.4-1.9-3.8-1.9-6.9l0-14.5l-4.2,0l0-3.7l4.2,0l0-6.4L1252.6,778.5z"/>
	<path fill="#808285" d="M1280.3,812.8l-0.4-3.4l-0.2,0c-1.5,2.1-4.5,4-8.3,4c-5.5,0-8.3-3.8-8.3-7.7c0-6.4,5.9-10,16.4-9.9l0-0.6
		c0-2.2-0.6-6.2-6.2-6.2c-2.5,0-5.2,0.8-7.1,2l-1.1-3.2c2.3-1.4,5.5-2.4,9-2.4c8.3,0,10.3,5.6,10.3,10.9l0,10c0,2.3,0.1,4.6,0.4,6.4
		L1280.3,812.8z M1279.6,799.2c-5.4-0.1-11.5,0.8-11.5,6c0,3.1,2.1,4.6,4.7,4.6c3.5,0,5.8-2.2,6.6-4.4c0.2-0.5,0.3-1,0.3-1.5
		L1279.6,799.2z"/>
	<path fill="#808285" d="M1292.4,794.5c0-3.1,0-5.8-0.2-8.3l4.3,0l0.2,5.2l0.2,0c1.2-3.6,4.2-5.8,7.6-5.8c0.6,0,1,0.1,1.4,0.2l0,4.6
		c-0.5-0.1-1-0.2-1.7-0.2c-3.5,0-6,2.6-6.7,6.2c-0.1,0.7-0.2,1.4-0.2,2.3l0,14.2l-4.9,0L1292.4,794.5z"/>
	<path fill="#808285" d="M1316.6,778.8c0.1,1.7-1.2,3-3.2,3c-1.7,0-3-1.3-3-3c0-1.7,1.3-3,3.1-3
		C1315.4,775.7,1316.6,777.1,1316.6,778.8z M1311,812.9l0-26.6l5,0l0,26.6L1311,812.9z"/>
	<path fill="#808285" d="M1348.8,799.4c0,9.9-7,14.1-13.6,14.1c-7.4,0-13-5.3-13-13.7c0-8.9,6-14.1,13.5-14.1
		C1343.6,785.7,1348.8,791.3,1348.8,799.4z M1327.2,799.7c0,5.8,3.4,10.2,8.3,10.3c4.7,0,8.3-4.3,8.3-10.3c0-4.5-2.3-10.2-8.1-10.3
		S1327.2,794.6,1327.2,799.7z"/>
	<path fill="#808285" d="M1351.9,819.6c4-5.4,7.1-12.6,7.1-22.5c0-9.9-3-16.9-7.1-22.4l3.8,0c3.6,4.5,7.4,11.6,7.3,22.4
		c0,10.8-3.8,17.8-7.4,22.4L1351.9,819.6z"/>
</g>
</svg>
